<svg xmlns="http://www.w3.org/2000/svg" viewBox="0 0 863.9 848.05"><path d="M553.15 202.19h275.51V58.16c0-10.32-7.65-18.86-16.91-18.86H553.14v162.89zM333.76 392.95c-1.43-.59-2.43-1.91-2.81-3.43-1.79-7.41-4.47-14.63-7.09-21.71-.58-1.58-.39-3.31.37-4.65l12.14-23.95c-6.82-12.03-15.16-23.11-24.6-32.69l-23.52 9.28c-1.3.51-2.66.32-3.77-.38-.07-.04-24.44-15.69-37.58-19.64-1.59-.47-2.75-1.83-3.19-3.47l-8.62-25.68a128.185 128.185 0 0 0-38.27 0l-8.74 26.06c-.53 1.59-1.71 2.71-3.08 3.13-9.75 2.93-19.68 7.95-28.58 13.23-1.41.83-3.04.76-4.34-.04l-22.37-11.36c-10.15 8.64-19.32 18.86-27.06 30.18l10.34 25.32c.66 1.6.5 3.39-.28 4.79-5.1 9.94-9.01 20.52-11.69 31.57-.42 1.77-1.64 3.07-3.11 3.55l-23.07 9.63c-1.7 14.13-1.7 28.55 0 42.68l23.33 9.74c1.32.55 2.28 1.72 2.72 3.09.02.06 6.86 22.39 11.89 32.11.76 1.47.78 3.19.19 4.62l-10.33 25.29c7.74 11.32 16.91 21.54 27.06 30.18l22.68-11.52c1.37-.7 2.89-.57 4.1.19 1.51.87 16.8 9.67 28.53 13.19 1.59.47 2.75 1.83 3.18 3.47l8.62 25.69c12.67 1.89 25.6 1.89 38.27 0l8.73-26.02c.53-1.6 1.71-2.71 3.08-3.13 9.72-2.92 19.74-8.04 28.64-13.26 1.37-.8 2.93-.75 4.21-.01l22.47 11.41c10.15-8.64 19.32-18.86 27.06-30.18l-10.33-25.29c-.62-1.52-.51-3.22.17-4.58.79-1.68 8.67-18.74 11.82-31.82.42-1.77 1.64-3.07 3.11-3.55l23.03-9.61c1.71-14.15 1.72-28.54 0-42.68l-23.33-9.73zm-117.78-46.9c38.61 0 69.9 34.91 69.9 77.97 0 43.07-31.29 77.97-69.9 77.97-38.61 0-69.91-34.9-69.91-77.97s31.3-77.97 69.91-77.97zM52.15 173.3h155.02l.07-115.26C207.33 26.18 230.72 0 259.32 0h552.45c28.62 0 52.14 26.24 52.14 58.16 0 243.95-.07 487.89-.07 731.84-.09 31.99-23.28 57.86-51.97 57.96 0 .14-506.52.08-552.56.08-28.6 0-51.98-26.17-52.07-58.04l-.07-115.27H52.15c-28.62 0-52.14-26.24-52.14-58.16V231.45c0-31.92 23.53-58.16 52.14-58.16zm397.42 58.06v385.22c-.65 32.37-22.93 57.93-52.14 58.16H242.4l-.07 115.27c.03 10.27 7.79 18.74 16.98 18.74h258.61V39.31H259.31c-9.19 0-16.95 8.46-16.98 18.74l.07 115.26h155.03c28.61 0 52.14 26.14 52.14 58.06zM52.15 212.6c-9.36 0-16.91 8.42-16.91 18.86v385.12c0 10.44 7.55 18.86 16.91 18.86h345.28c9.19 0 16.68-8.11 16.91-18.37V231.46c0-10.44-7.53-18.86-16.91-18.86H52.15zm501.01 433.25v162.89l258.71.08c9.01-.03 16.84-8.76 16.87-18.81V645.86H553.16zm0-202.18v162.88h275.51V443.67H553.16zm0-202.19v162.89h275.51V241.48H553.16z"/></svg>