<svg xmlns="http://www.w3.org/2000/svg" viewBox="0 0 296.09 324.6"><path d="M47.74 263.05h70.36v-70.36h-12.35c-6.89 0-6.89-10.49 0-10.49h17.59c2.9 0 5.24 2.35 5.24 5.24v80.85c0 2.89-2.35 5.24-5.24 5.24H42.49c-2.9 0-5.24-2.35-5.24-5.24v-80.85c0-2.9 2.35-5.24 5.24-5.24h17.59c6.89 0 6.89 10.49 0 10.49H47.73v70.36zM42.5 50.1h80.85c2.9 0 5.24 2.35 5.24 5.24v17.59c0 6.89-10.48 6.89-10.48 0V60.58H47.75v70.36h70.36v-12.35c0-6.89 10.48-6.89 10.48 0v17.59c0 2.89-2.35 5.24-5.24 5.24H42.5c-2.9 0-5.24-2.35-5.24-5.24V55.33c0-2.9 2.35-5.24 5.24-5.24zM175.71 9.77l-8.09 4.93h123.23c2.9 0 5.24 2.35 5.24 5.24v136.68c0 6.89-10.48 6.89-10.48 0V25.18H167.62l8.09 4.93c5.88 3.58.43 12.51-5.44 8.93l-24.06-14.66c-3.32-2.02-3.32-6.86 0-8.88L170.27.84c5.88-3.58 11.32 5.35 5.44 8.93zm-47.06 275.79 24.06 14.66c3.32 2.02 3.32 6.86 0 8.88l-24.06 14.66c-5.88 3.58-11.32-5.35-5.44-8.93l9.67-5.89H5.26c-2.9 0-5.24-2.35-5.24-5.24V167.02c0-6.89 10.48-6.89 10.48 0v131.44h119.22l-6.51-3.97c-5.88-3.58-.43-12.51 5.44-8.93zm15.09-40.96v-77.53H66.21c-6.89 0-6.89-10.48 0-10.48h77.53V79.06c0-6.89 10.48-6.89 10.48 0v77.53h77.53c6.89 0 6.89 10.48 0 10.48h-77.53v77.53c0 6.89-10.48 6.89-10.48 0zm0 23.7c0-2.9 2.35-5.24 5.24-5.24 2.9 0 5.24 2.35 5.24 5.24 0 2.9-2.35 5.24-5.24 5.24-2.9 0-5.24-2.35-5.24-5.24zm0-212.95c0 2.9 2.35 5.24 5.24 5.24 2.9 0 5.24-2.35 5.24-5.24 0-2.9-2.35-5.24-5.24-5.24-2.9 0-5.24 2.35-5.24 5.24zM42.51 156.58c2.9 0 5.24 2.35 5.24 5.24 0 2.9-2.35 5.24-5.24 5.24-2.9 0-5.24-2.35-5.24-5.24 0-2.9 2.35-5.24 5.24-5.24zm212.95 0c-2.9 0-5.24 2.35-5.24 5.24 0 2.9 2.35 5.24 5.24 5.24 2.9 0 5.24-2.35 5.24-5.24 0-2.9-2.35-5.24-5.24-5.24zM82.93 182.21c2.9 0 5.24 2.35 5.24 5.24 0 2.9-2.35 5.24-5.24 5.24-2.9 0-5.24-2.35-5.24-5.24 0-2.9 2.35-5.24 5.24-5.24zm91.68 40.42c2.9 0 5.24 2.35 5.24 5.24 0 2.9-2.35 5.24-5.24 5.24-2.9 0-5.24-2.35-5.24-5.24 0-2.9 2.35-5.24 5.24-5.24zm40.42-91.68c2.9 0 5.24 2.35 5.24 5.24 0 2.9-2.35 5.24-5.24 5.24-2.9 0-5.24-2.35-5.24-5.24 0-2.9 2.35-5.24 5.24-5.24zm-91.68-42.67c2.9 0 5.24 2.35 5.24 5.24 0 2.9-2.35 5.24-5.24 5.24-2.9 0-5.24-2.35-5.24-5.24 0-2.9 2.35-5.24 5.24-5.24zM71.3 211.01h23.25c2.89 0 5.24 2.35 5.24 5.24v23.25c0 2.89-2.35 5.24-5.24 5.24H71.3c-2.9 0-5.24-2.35-5.24-5.24v-23.25c0-2.9 2.35-5.24 5.24-5.24zm132.1 0h23.25c2.9 0 5.24 2.35 5.24 5.24v23.25c0 2.89-2.35 5.24-5.24 5.24H203.4c-2.9 0-5.24-2.35-5.24-5.24v-23.25c0-2.9 2.35-5.24 5.24-5.24zm0-132.1h23.25c2.9 0 5.24 2.35 5.24 5.24v23.25c0 2.89-2.35 5.24-5.24 5.24H203.4c-2.9 0-5.24-2.35-5.24-5.24V84.15c0-2.9 2.35-5.24 5.24-5.24zm-132.1 0h23.25c2.89 0 5.24 2.35 5.24 5.24v23.25c0 2.89-2.35 5.24-5.24 5.24H71.3c-2.9 0-5.24-2.35-5.24-5.24V84.15c0-2.9 2.35-5.24 5.24-5.24zm184.15 194.63H174.6c-2.9 0-5.24-2.35-5.24-5.24v-17.59c0-6.89 10.48-6.89 10.48 0v12.35h70.36V192.7h-70.36v12.35c0 6.89-10.48 6.89-10.48 0v-17.59c0-2.9 2.35-5.24 5.24-5.24h80.85c2.9 0 5.24 2.35 5.24 5.24v80.85c0 2.89-2.35 5.24-5.24 5.24zm-5.24-212.95h-70.36v70.36h12.35c6.89 0 6.89 10.48 0 10.48h-17.59c-2.9 0-5.24-2.35-5.24-5.24V55.34c0-2.9 2.35-5.24 5.24-5.24h80.85c2.9 0 5.24 2.35 5.24 5.24v80.85c0 2.89-2.35 5.24-5.24 5.24h-17.59c-6.89 0-6.89-10.48 0-10.48h12.35V60.59z"/></svg>