<svg xmlns="http://www.w3.org/2000/svg" viewBox="0 0 516.78 654.24"><path d="M122.07 362.63c1.65 0 3.28-.31 4.81-.93l41.89-16.85 41.89 16.85c4.11 1.65 8.8 1.07 12.39-1.53 3.58-2.6 5.58-6.9 5.28-11.31l-3.08-45.05 28.97-34.63c2.85-3.4 3.74-8.03 2.37-12.25a12.895 12.895 0 0 0-9.12-8.52l-43.79-10.99-23.99-38.25a12.886 12.886 0 0 0-10.92-6.04c-4.44 0-8.57 2.28-10.92 6.04l-23.99 38.25-43.79 10.99c-4.31 1.08-7.75 4.3-9.12 8.52-1.37 4.22-.47 8.85 2.37 12.25l28.97 34.63-3.08 45.05a12.94 12.94 0 0 0 5.29 11.31c2.2 1.6 4.86 2.46 7.58 2.46zm-5.79-94.22 28.89-7.25c3.23-.81 6.02-2.84 7.78-5.65l15.82-25.23 15.82 25.23a12.86 12.86 0 0 0 7.78 5.65l28.89 7.25-19.11 22.84c-2.13 2.55-3.2 5.83-2.97 9.15l2.03 29.71L173.58 319a12.904 12.904 0 0 0-9.62 0l-27.63 11.11 2.03-29.71c.23-3.32-.84-6.6-2.97-9.15l-19.11-22.84zm237.23-137.68c0 7.12 5.77 12.89 12.89 12.89h137.48c7.12 0 12.89-5.77 12.89-12.89V67.94c0-7.12-5.77-12.89-12.89-12.89H379.29V12.89C379.29 5.77 373.52 0 366.4 0H150.37c-7.12 0-12.89 5.77-12.89 12.89v42.16H12.89C5.77 55.05 0 60.82 0 67.94v573.4c0 7.12 5.77 12.89 12.89 12.89h490.99c7.12 0 12.89-5.77 12.89-12.89V243.55c0-7.12-5.77-12.89-12.89-12.89-7.12 0-12.89 5.77-12.89 12.89v384.9H25.78V143.61h262.79c7.12 0 12.89-5.77 12.89-12.89 0-7.12-5.77-12.89-12.89-12.89H163.26V25.78h190.25v104.94zM25.78 80.84h111.7v37H25.78v-37zm465.21 37h-111.7v-37h111.7v37zM215.46 574.89c2.72 0 5.37-.86 7.58-2.46 3.57-2.6 5.59-6.9 5.28-11.31l-3.08-45.05 28.97-34.63c2.85-3.4 3.74-8.03 2.37-12.25a12.895 12.895 0 0 0-9.12-8.52l-43.79-10.99-23.99-38.25a12.886 12.886 0 0 0-10.92-6.04c-4.44 0-8.57 2.28-10.92 6.04l-23.99 38.25-43.79 10.99c-4.31 1.08-7.75 4.3-9.12 8.52-1.37 4.22-.47 8.85 2.37 12.25l28.97 34.63-3.08 45.05c-.3 4.41 1.71 8.71 5.28 11.31 3.59 2.6 8.28 3.19 12.39 1.53l41.89-16.85 41.89 16.85c1.53.61 3.16.93 4.81.93zm-99.19-94.23 28.89-7.25c3.23-.81 6.02-2.84 7.78-5.65l15.82-25.23 15.82 25.23a12.86 12.86 0 0 0 7.78 5.65l28.89 7.25-19.11 22.84c-2.13 2.55-3.2 5.83-2.97 9.15l2.03 29.71-27.63-11.11a12.904 12.904 0 0 0-9.62 0l-27.63 11.11 2.03-29.71c.23-3.32-.84-6.6-2.97-9.15l-19.11-22.84zm307.29-11.97c7.12 0 12.89-5.77 12.89-12.89 0-7.12-5.77-12.89-12.89-12.89H311.62c-7.12 0-12.89 5.77-12.89 12.89 0 7.12 5.77 12.89 12.89 12.89h111.94zm0-212.25c7.12 0 12.89-5.77 12.89-12.89 0-7.12-5.77-12.89-12.89-12.89H311.62c-7.12 0-12.89 5.77-12.89 12.89 0 7.12 5.77 12.89 12.89 12.89h111.94zm-39.3 68.65c7.12 0 12.89-5.77 12.89-12.89 0-7.12-5.77-12.89-12.89-12.89h-72.64c-7.12 0-12.89 5.77-12.89 12.89 0 7.12 5.77 12.89 12.89 12.89h72.64zm0 212.25c7.12 0 12.89-5.77 12.89-12.89 0-7.12-5.77-12.89-12.89-12.89h-72.64c-7.12 0-12.89 5.77-12.89 12.89 0 7.12 5.77 12.89 12.89 12.89h72.64z"/></svg>