<svg xmlns="http://www.w3.org/2000/svg" viewBox="0 0 1353.69 1352.81"><path d="M949.9 203.29c-74.43-42.77-9.32-156.08 65.11-113.31 209.22 120.79 338.68 344.32 338.68 585.98 0 373.8-303.05 676.85-676.85 676.85S-.01 1049.77-.01 675.96c0-241.72 129.45-465.19 338.68-585.98 74.43-42.77 139.54 70.54 65.11 113.31-168.94 97.53-272.54 277.64-272.54 472.67 0 301.33 244.26 545.59 545.59 545.59 301.33 0 545.59-244.26 545.59-545.59 0-195.05-103.51-375.09-272.54-472.67zM611.22 64.74c0-86.32 131.26-86.32 131.26 0v605.82c0 86.32-131.26 86.32-131.26 0V64.74z"/></svg>