<svg xmlns="http://www.w3.org/2000/svg" viewBox="0 0 401.47 507.2"><path d="M200.74 331c6.43 0 12.86 4.23 12.86 12.69v34.09h34.09c16.92 0 16.92 25.73 0 25.73H213.6v34.09c0 8.46-6.43 12.69-12.86 12.69s-12.86-4.23-12.86-12.69v-34.09h-34.09c-16.92 0-16.92-25.73 0-25.73h34.09v-34.09c0-8.46 6.43-12.69 12.86-12.69zm0 150.47c-50.16 0-90.83-40.66-90.83-90.83 0-50.38 40.81-90.5 90.83-90.81 50.01.32 90.83 40.44 90.83 90.81 0 50.16-40.66 90.83-90.83 90.83zm0-207.37c-59.45.02-109.08 44.53-115.85 103.68l-58.7.05c5.26-72.88 55.59-135.06 125.83-155.36 15.48 7.13 31.81 10.55 48.71 10.64 16.91-.09 33.23-3.51 48.71-10.64 70.25 20.3 120.58 82.48 125.83 155.36l-58.7-.05c-6.77-59.15-56.4-103.66-115.85-103.68zm0-66.72c-50.25-.3-90.83-40.4-90.83-90.83 0-50.16 40.66-90.83 90.83-90.83 50.16 0 90.83 40.66 90.83 90.83 0 50.42-40.57 90.53-90.83 90.83zm0-207.38C136.37 0 84.19 52.19 84.19 116.55c0 34.06 14.74 66.13 40.5 88.32C49.38 235.73 0 309.1 0 390.64c0 7.1 5.76 12.86 12.86 12.86 24 0 48.01-.05 72.02-.05 6.45 58.97 56.44 103.74 115.86 103.74 59.41 0 109.41-44.77 115.86-103.74 24 0 48.01.05 72.02.05 7.1 0 12.86-5.76 12.86-12.86 0-81.54-49.38-154.91-124.69-185.77 25.76-22.2 40.5-54.26 40.5-88.32C317.29 52.18 265.1 0 200.74 0z"/></svg>