<svg xmlns="http://www.w3.org/2000/svg" viewBox="0 0 1728.82 431.88"><path d="M1512.89 0c119.26 0 215.93 96.68 215.93 215.94 0 119.26-96.68 215.94-215.93 215.94-119.26 0-215.94-96.68-215.94-215.94C1296.95 96.68 1393.63 0 1512.89 0zM864.41 0c119.26 0 215.94 96.68 215.94 215.94 0 119.26-96.68 215.94-215.94 215.94-119.26 0-215.94-96.68-215.94-215.94C648.47 96.68 745.15 0 864.41 0zM215.94 0C335.2 0 431.87 96.68 431.87 215.94c0 119.26-96.68 215.94-215.93 215.94C96.68 431.88 0 335.2 0 215.94 0 96.68 96.68 0 215.94 0z"/></svg>