<?xml version="1.0" encoding="UTF-8"?>
<svg xmlns="http://www.w3.org/2000/svg" xmlns:xlink="http://www.w3.org/1999/xlink" width="0" height="0">
<defs>
<symbol viewBox="0 0 863.9 848.05" id="ppc-order"><path d="M553.15 202.19h275.51V58.16c0-10.32-7.65-18.86-16.91-18.86H553.14v162.89zM333.76 392.95c-1.43-.59-2.43-1.91-2.81-3.43-1.79-7.41-4.47-14.63-7.09-21.71-.58-1.58-.39-3.31.37-4.65l12.14-23.95c-6.82-12.03-15.16-23.11-24.6-32.69l-23.52 9.28c-1.3.51-2.66.32-3.77-.38-.07-.04-24.44-15.69-37.58-19.64-1.59-.47-2.75-1.83-3.19-3.47l-8.62-25.68a128.185 128.185 0 0 0-38.27 0l-8.74 26.06c-.53 1.59-1.71 2.71-3.08 3.13-9.75 2.93-19.68 7.95-28.58 13.23-1.41.83-3.04.76-4.34-.04l-22.37-11.36c-10.15 8.64-19.32 18.86-27.06 30.18l10.34 25.32c.66 1.6.5 3.39-.28 4.79-5.1 9.94-9.01 20.52-11.69 31.57-.42 1.77-1.64 3.07-3.11 3.55l-23.07 9.63c-1.7 14.13-1.7 28.55 0 42.68l23.33 9.74c1.32.55 2.28 1.72 2.72 3.09.02.06 6.86 22.39 11.89 32.11.76 1.47.78 3.19.19 4.62l-10.33 25.29c7.74 11.32 16.91 21.54 27.06 30.18l22.68-11.52c1.37-.7 2.89-.57 4.1.19 1.51.87 16.8 9.67 28.53 13.19 1.59.47 2.75 1.83 3.18 3.47l8.62 25.69c12.67 1.89 25.6 1.89 38.27 0l8.73-26.02c.53-1.6 1.71-2.71 3.08-3.13 9.72-2.92 19.74-8.04 28.64-13.26 1.37-.8 2.93-.75 4.21-.01l22.47 11.41c10.15-8.64 19.32-18.86 27.06-30.18l-10.33-25.29c-.62-1.52-.51-3.22.17-4.58.79-1.68 8.67-18.74 11.82-31.82.42-1.77 1.64-3.07 3.11-3.55l23.03-9.61c1.71-14.15 1.72-28.54 0-42.68l-23.33-9.73zm-117.78-46.9c38.61 0 69.9 34.91 69.9 77.97 0 43.07-31.29 77.97-69.9 77.97-38.61 0-69.91-34.9-69.91-77.97s31.3-77.97 69.91-77.97zM52.15 173.3h155.02l.07-115.26C207.33 26.18 230.72 0 259.32 0h552.45c28.62 0 52.14 26.24 52.14 58.16 0 243.95-.07 487.89-.07 731.84-.09 31.99-23.28 57.86-51.97 57.96 0 .14-506.52.08-552.56.08-28.6 0-51.98-26.17-52.07-58.04l-.07-115.27H52.15c-28.62 0-52.14-26.24-52.14-58.16V231.45c0-31.92 23.53-58.16 52.14-58.16zm397.42 58.06v385.22c-.65 32.37-22.93 57.93-52.14 58.16H242.4l-.07 115.27c.03 10.27 7.79 18.74 16.98 18.74h258.61V39.31H259.31c-9.19 0-16.95 8.46-16.98 18.74l.07 115.26h155.03c28.61 0 52.14 26.14 52.14 58.06zM52.15 212.6c-9.36 0-16.91 8.42-16.91 18.86v385.12c0 10.44 7.55 18.86 16.91 18.86h345.28c9.19 0 16.68-8.11 16.91-18.37V231.46c0-10.44-7.53-18.86-16.91-18.86H52.15zm501.01 433.25v162.89l258.71.08c9.01-.03 16.84-8.76 16.87-18.81V645.86H553.16zm0-202.18v162.88h275.51V443.67H553.16zm0-202.19v162.89h275.51V241.48H553.16z"></path></symbol>
<symbol viewBox="0 0 296.09 324.6" id="scanning-transfer"><path d="M47.74 263.05h70.36v-70.36h-12.35c-6.89 0-6.89-10.49 0-10.49h17.59c2.9 0 5.24 2.35 5.24 5.24v80.85c0 2.89-2.35 5.24-5.24 5.24H42.49c-2.9 0-5.24-2.35-5.24-5.24v-80.85c0-2.9 2.35-5.24 5.24-5.24h17.59c6.89 0 6.89 10.49 0 10.49H47.73v70.36zM42.5 50.1h80.85c2.9 0 5.24 2.35 5.24 5.24v17.59c0 6.89-10.48 6.89-10.48 0V60.58H47.75v70.36h70.36v-12.35c0-6.89 10.48-6.89 10.48 0v17.59c0 2.89-2.35 5.24-5.24 5.24H42.5c-2.9 0-5.24-2.35-5.24-5.24V55.33c0-2.9 2.35-5.24 5.24-5.24zM175.71 9.77l-8.09 4.93h123.23c2.9 0 5.24 2.35 5.24 5.24v136.68c0 6.89-10.48 6.89-10.48 0V25.18H167.62l8.09 4.93c5.88 3.58.43 12.51-5.44 8.93l-24.06-14.66c-3.32-2.02-3.32-6.86 0-8.88L170.27.84c5.88-3.58 11.32 5.35 5.44 8.93zm-47.06 275.79 24.06 14.66c3.32 2.02 3.32 6.86 0 8.88l-24.06 14.66c-5.88 3.58-11.32-5.35-5.44-8.93l9.67-5.89H5.26c-2.9 0-5.24-2.35-5.24-5.24V167.02c0-6.89 10.48-6.89 10.48 0v131.44h119.22l-6.51-3.97c-5.88-3.58-.43-12.51 5.44-8.93zm15.09-40.96v-77.53H66.21c-6.89 0-6.89-10.48 0-10.48h77.53V79.06c0-6.89 10.48-6.89 10.48 0v77.53h77.53c6.89 0 6.89 10.48 0 10.48h-77.53v77.53c0 6.89-10.48 6.89-10.48 0zm0 23.7c0-2.9 2.35-5.24 5.24-5.24 2.9 0 5.24 2.35 5.24 5.24 0 2.9-2.35 5.24-5.24 5.24-2.9 0-5.24-2.35-5.24-5.24zm0-212.95c0 2.9 2.35 5.24 5.24 5.24 2.9 0 5.24-2.35 5.24-5.24 0-2.9-2.35-5.24-5.24-5.24-2.9 0-5.24 2.35-5.24 5.24zM42.51 156.58c2.9 0 5.24 2.35 5.24 5.24 0 2.9-2.35 5.24-5.24 5.24-2.9 0-5.24-2.35-5.24-5.24 0-2.9 2.35-5.24 5.24-5.24zm212.95 0c-2.9 0-5.24 2.35-5.24 5.24 0 2.9 2.35 5.24 5.24 5.24 2.9 0 5.24-2.35 5.24-5.24 0-2.9-2.35-5.24-5.24-5.24zM82.93 182.21c2.9 0 5.24 2.35 5.24 5.24 0 2.9-2.35 5.24-5.24 5.24-2.9 0-5.24-2.35-5.24-5.24 0-2.9 2.35-5.24 5.24-5.24zm91.68 40.42c2.9 0 5.24 2.35 5.24 5.24 0 2.9-2.35 5.24-5.24 5.24-2.9 0-5.24-2.35-5.24-5.24 0-2.9 2.35-5.24 5.24-5.24zm40.42-91.68c2.9 0 5.24 2.35 5.24 5.24 0 2.9-2.35 5.24-5.24 5.24-2.9 0-5.24-2.35-5.24-5.24 0-2.9 2.35-5.24 5.24-5.24zm-91.68-42.67c2.9 0 5.24 2.35 5.24 5.24 0 2.9-2.35 5.24-5.24 5.24-2.9 0-5.24-2.35-5.24-5.24 0-2.9 2.35-5.24 5.24-5.24zM71.3 211.01h23.25c2.89 0 5.24 2.35 5.24 5.24v23.25c0 2.89-2.35 5.24-5.24 5.24H71.3c-2.9 0-5.24-2.35-5.24-5.24v-23.25c0-2.9 2.35-5.24 5.24-5.24zm132.1 0h23.25c2.9 0 5.24 2.35 5.24 5.24v23.25c0 2.89-2.35 5.24-5.24 5.24H203.4c-2.9 0-5.24-2.35-5.24-5.24v-23.25c0-2.9 2.35-5.24 5.24-5.24zm0-132.1h23.25c2.9 0 5.24 2.35 5.24 5.24v23.25c0 2.89-2.35 5.24-5.24 5.24H203.4c-2.9 0-5.24-2.35-5.24-5.24V84.15c0-2.9 2.35-5.24 5.24-5.24zm-132.1 0h23.25c2.89 0 5.24 2.35 5.24 5.24v23.25c0 2.89-2.35 5.24-5.24 5.24H71.3c-2.9 0-5.24-2.35-5.24-5.24V84.15c0-2.9 2.35-5.24 5.24-5.24zm184.15 194.63H174.6c-2.9 0-5.24-2.35-5.24-5.24v-17.59c0-6.89 10.48-6.89 10.48 0v12.35h70.36V192.7h-70.36v12.35c0 6.89-10.48 6.89-10.48 0v-17.59c0-2.9 2.35-5.24 5.24-5.24h80.85c2.9 0 5.24 2.35 5.24 5.24v80.85c0 2.89-2.35 5.24-5.24 5.24zm-5.24-212.95h-70.36v70.36h12.35c6.89 0 6.89 10.48 0 10.48h-17.59c-2.9 0-5.24-2.35-5.24-5.24V55.34c0-2.9 2.35-5.24 5.24-5.24h80.85c2.9 0 5.24 2.35 5.24 5.24v80.85c0 2.89-2.35 5.24-5.24 5.24h-17.59c-6.89 0-6.89-10.48 0-10.48h12.35V60.59z"></path></symbol>
<symbol viewBox="0 0 1728.82 431.88" id="settings"><path d="M1512.89 0c119.26 0 215.93 96.68 215.93 215.94 0 119.26-96.68 215.94-215.93 215.94-119.26 0-215.94-96.68-215.94-215.94C1296.95 96.68 1393.63 0 1512.89 0zM864.41 0c119.26 0 215.94 96.68 215.94 215.94 0 119.26-96.68 215.94-215.94 215.94-119.26 0-215.94-96.68-215.94-215.94C648.47 96.68 745.15 0 864.41 0zM215.94 0C335.2 0 431.87 96.68 431.87 215.94c0 119.26-96.68 215.94-215.93 215.94C96.68 431.88 0 335.2 0 215.94 0 96.68 96.68 0 215.94 0z"></path></symbol>
<symbol viewBox="0 0 516.78 654.24" id="skill-level"><path d="M122.07 362.63c1.65 0 3.28-.31 4.81-.93l41.89-16.85 41.89 16.85c4.11 1.65 8.8 1.07 12.39-1.53 3.58-2.6 5.58-6.9 5.28-11.31l-3.08-45.05 28.97-34.63c2.85-3.4 3.74-8.03 2.37-12.25a12.895 12.895 0 0 0-9.12-8.52l-43.79-10.99-23.99-38.25a12.886 12.886 0 0 0-10.92-6.04c-4.44 0-8.57 2.28-10.92 6.04l-23.99 38.25-43.79 10.99c-4.31 1.08-7.75 4.3-9.12 8.52-1.37 4.22-.47 8.85 2.37 12.25l28.97 34.63-3.08 45.05a12.94 12.94 0 0 0 5.29 11.31c2.2 1.6 4.86 2.46 7.58 2.46zm-5.79-94.22 28.89-7.25c3.23-.81 6.02-2.84 7.78-5.65l15.82-25.23 15.82 25.23a12.86 12.86 0 0 0 7.78 5.65l28.89 7.25-19.11 22.84c-2.13 2.55-3.2 5.83-2.97 9.15l2.03 29.71L173.58 319a12.904 12.904 0 0 0-9.62 0l-27.63 11.11 2.03-29.71c.23-3.32-.84-6.6-2.97-9.15l-19.11-22.84zm237.23-137.68c0 7.12 5.77 12.89 12.89 12.89h137.48c7.12 0 12.89-5.77 12.89-12.89V67.94c0-7.12-5.77-12.89-12.89-12.89H379.29V12.89C379.29 5.77 373.52 0 366.4 0H150.37c-7.12 0-12.89 5.77-12.89 12.89v42.16H12.89C5.77 55.05 0 60.82 0 67.94v573.4c0 7.12 5.77 12.89 12.89 12.89h490.99c7.12 0 12.89-5.77 12.89-12.89V243.55c0-7.12-5.77-12.89-12.89-12.89-7.12 0-12.89 5.77-12.89 12.89v384.9H25.78V143.61h262.79c7.12 0 12.89-5.77 12.89-12.89 0-7.12-5.77-12.89-12.89-12.89H163.26V25.78h190.25v104.94zM25.78 80.84h111.7v37H25.78v-37zm465.21 37h-111.7v-37h111.7v37zM215.46 574.89c2.72 0 5.37-.86 7.58-2.46 3.57-2.6 5.59-6.9 5.28-11.31l-3.08-45.05 28.97-34.63c2.85-3.4 3.74-8.03 2.37-12.25a12.895 12.895 0 0 0-9.12-8.52l-43.79-10.99-23.99-38.25a12.886 12.886 0 0 0-10.92-6.04c-4.44 0-8.57 2.28-10.92 6.04l-23.99 38.25-43.79 10.99c-4.31 1.08-7.75 4.3-9.12 8.52-1.37 4.22-.47 8.85 2.37 12.25l28.97 34.63-3.08 45.05c-.3 4.41 1.71 8.71 5.28 11.31 3.59 2.6 8.28 3.19 12.39 1.53l41.89-16.85 41.89 16.85c1.53.61 3.16.93 4.81.93zm-99.19-94.23 28.89-7.25c3.23-.81 6.02-2.84 7.78-5.65l15.82-25.23 15.82 25.23a12.86 12.86 0 0 0 7.78 5.65l28.89 7.25-19.11 22.84c-2.13 2.55-3.2 5.83-2.97 9.15l2.03 29.71-27.63-11.11a12.904 12.904 0 0 0-9.62 0l-27.63 11.11 2.03-29.71c.23-3.32-.84-6.6-2.97-9.15l-19.11-22.84zm307.29-11.97c7.12 0 12.89-5.77 12.89-12.89 0-7.12-5.77-12.89-12.89-12.89H311.62c-7.12 0-12.89 5.77-12.89 12.89 0 7.12 5.77 12.89 12.89 12.89h111.94zm0-212.25c7.12 0 12.89-5.77 12.89-12.89 0-7.12-5.77-12.89-12.89-12.89H311.62c-7.12 0-12.89 5.77-12.89 12.89 0 7.12 5.77 12.89 12.89 12.89h111.94zm-39.3 68.65c7.12 0 12.89-5.77 12.89-12.89 0-7.12-5.77-12.89-12.89-12.89h-72.64c-7.12 0-12.89 5.77-12.89 12.89 0 7.12 5.77 12.89 12.89 12.89h72.64zm0 212.25c7.12 0 12.89-5.77 12.89-12.89 0-7.12-5.77-12.89-12.89-12.89h-72.64c-7.12 0-12.89 5.77-12.89 12.89 0 7.12 5.77 12.89 12.89 12.89h72.64z"></path></symbol>
<symbol viewBox="0 0 196.7 179.78" id="box-assign"><path d="M2.73 0h191.24c1.51 0 2.73 1.22 2.73 2.73v174.32c0 1.51-1.22 2.73-2.73 2.73H2.73c-1.51 0-2.73-1.22-2.73-2.73V2.73C0 1.22 1.22 0 2.73 0zM126.8 134.79c0 3.95 3.2 7.15 7.15 7.15s7.15-3.2 7.15-7.15-3.2-7.15-7.15-7.15c-4.01 0-7.15 3.24-7.15 7.15zM109.55 98.4c2.3 29.51 46.51 29.51 48.81 0a.767.767 0 0 0-.77-.83h-4.56c-.4 0-.73.3-.77.7-2.13 21.69-34.49 21.69-36.61 0-.04-.4-.37-.7-.77-.7h-4.56c-.45 0-.8.38-.77.83zm21.36-38.67v22.44c0 .42-.35.77-.77.77h-10.62c-.69 0-1.03.83-.54 1.32l14.43 14.43c.3.3.79.3 1.09 0l14.43-14.43c.49-.49.14-1.32-.54-1.32h-10.62c-.42 0-.77-.35-.77-.77V59.73c0-.42-.35-.77-.77-.77h-4.54c-.42 0-.77.35-.77.77zm-4.11-14.76c0 3.95 3.2 7.15 7.15 7.15s7.15-3.2 7.15-7.15-3.2-7.15-7.15-7.15c-4.01 0-7.15 3.24-7.15 7.15zm-84.26 71.15h40.89c1.51 0 2.73 1.22 2.73 2.73v13.71c0 1.51-1.22 2.73-2.73 2.73H42.54c-1.51 0-2.73-1.22-2.73-2.73v-13.71c0-1.51 1.22-2.73 2.73-2.73zm38.16 5.46H45.27v8.25H80.7v-8.25zm1.47-62.44-2.98 2.98a2.722 2.722 0 0 1-3.86 0 2.722 2.722 0 0 1 0-3.86l2.98-2.98a24.525 24.525 0 0 0-12.59-5.22v4.21c0 1.51-1.22 2.73-2.73 2.73s-2.73-1.22-2.73-2.73v-4.21c-4.73.52-9.06 2.39-12.59 5.22l2.98 2.98a2.722 2.722 0 0 1 0 3.86 2.722 2.722 0 0 1-3.86 0l-2.98-2.98a24.525 24.525 0 0 0-5.22 12.59h4.21c1.51 0 2.73 1.22 2.73 2.73s-1.22 2.73-2.73 2.73h-4.21c.52 4.73 2.39 9.06 5.22 12.59l2.98-2.98a2.722 2.722 0 0 1 3.86 0 2.722 2.722 0 0 1 0 3.86l-2.98 2.98c3.53 2.82 7.86 4.69 12.59 5.22v-4.21c0-1.51 1.22-2.73 2.73-2.73s2.73 1.22 2.73 2.73v4.21c4.73-.52 9.06-2.39 12.59-5.22l-2.98-2.98a2.722 2.722 0 0 1 0-3.86 2.722 2.722 0 0 1 3.86 0l2.98 2.98c2.82-3.53 4.69-7.86 5.22-12.59h-4.21c-1.51 0-2.73-1.22-2.73-2.73s1.22-2.73 2.73-2.73h4.21C86.87 67 85 62.67 82.17 59.14zM62.99 63.5c3.03 0 5.77 1.23 7.75 3.21 1.98 1.98 3.21 4.72 3.21 7.75 0 3.02-1.23 5.76-3.21 7.74l-.01.01.01.01a10.928 10.928 0 0 1-7.75 3.21c-3.03 0-5.77-1.23-7.75-3.21a10.928 10.928 0 0 1-3.21-7.75c0-3.03 1.23-5.77 3.21-7.75l.17-.16a10.93 10.93 0 0 1 7.58-3.05zm3.89 7.07a5.495 5.495 0 0 0-3.89-1.61c-1.47 0-2.8.57-3.78 1.49l-.11.12c-.99.99-1.61 2.37-1.61 3.89s.62 2.89 1.61 3.89c.99.99 2.37 1.61 3.89 1.61s2.89-.62 3.89-1.61l.01.01c.99-.99 1.61-2.37 1.61-3.89s-.62-2.89-1.61-3.89zm-3.89-26.12c8.26 0 15.74 3.34 21.17 8.74l.05.05.05.05C89.66 58.72 93 66.2 93 74.46c0 8.29-3.36 15.79-8.79 21.22s-12.93 8.79-21.22 8.79c-8.26 0-15.74-3.34-21.17-8.74l-.05-.05-.05-.05c-5.4-5.43-8.74-12.91-8.74-21.17 0-8.26 3.34-15.74 8.74-21.17l.05-.05.05-.05c5.43-5.4 12.91-8.74 21.17-8.74zM19.43 16.54H177.3c1.51 0 2.73 1.22 2.73 2.73v141.2c0 1.51-1.22 2.73-2.73 2.73H19.43c-1.51 0-2.73-1.22-2.73-2.73V19.27c0-1.51 1.22-2.73 2.73-2.73zM174.57 22H22.16v135.74h152.41V22zm16.69-16.56H5.48V174.3h185.78V5.44z"></path></symbol>
<symbol viewBox="0 0 192.5 176.05" id="box"><path d="M3.32 0h185.87c1.83 0 3.32 1.48 3.32 3.32v169.42c0 1.83-1.48 3.32-3.32 3.32H3.32c-1.83 0-3.32-1.49-3.32-3.32V3.32C0 1.49 1.49 0 3.32 0zm38.69 112.87h39.74c1.83 0 3.32 1.48 3.32 3.32v13.32c0 1.83-1.48 3.32-3.32 3.32H42.01c-1.83 0-3.32-1.49-3.32-3.32v-13.32c0-1.83 1.48-3.32 3.32-3.32zm36.42 6.63h-33.1v6.69h33.1v-6.69zm2.03-60.34-2.36 2.36c-3.08 3.08-7.77-1.61-4.69-4.69l2.36-2.36a23.124 23.124 0 0 0-10.57-4.38v3.34c0 4.36-6.63 4.36-6.63 0v-3.34c-3.93.56-7.54 2.11-10.57 4.38l2.36 2.36c3.08 3.08-1.61 7.78-4.69 4.69l-2.36-2.36a23.08 23.08 0 0 0-4.38 10.57h3.34c4.36 0 4.36 6.63 0 6.63h-3.34c.56 3.93 2.11 7.54 4.38 10.57l2.36-2.36c3.08-3.08 7.77 1.61 4.69 4.69L48 91.62c3.04 2.27 6.65 3.82 10.57 4.38v-3.34c0-1.83 1.49-3.32 3.32-3.32 1.83 0 3.32 1.49 3.32 3.32V96c3.93-.56 7.54-2.11 10.57-4.38l-2.36-2.36c-3.08-3.08 1.61-7.78 4.69-4.69l2.36 2.36c2.27-3.04 3.82-6.65 4.38-10.57h-3.34c-4.36 0-4.36-6.63 0-6.63h3.34c-.56-3.93-2.11-7.54-4.38-10.57zM32.05 73.05c0-16.47 13.43-29.92 29.92-29.83 16.42 0 29.75 13.44 29.75 29.83 0 16.47-13.36 29.83-29.83 29.83-16.53-.17-29.83-13.22-29.83-29.83zm29.83-11.32c6.25 0 11.32 5.07 11.32 11.32s-5.07 11.32-11.32 11.32c-6.23 0-11.32-5.09-11.32-11.32 0-6.24 5.08-11.32 11.32-11.32zm0 6.63c-2.59 0-4.68 2.08-4.68 4.68 0 2.6 2.08 4.68 4.68 4.68a4.68 4.68 0 1 0 0-9.36zm55.98-8.35h33.1V48.67h-33.1v11.34zm36.42 6.63h-39.74c-1.83 0-3.32-1.48-3.32-3.32V45.34c0-1.83 1.48-3.32 3.32-3.32h39.74c1.83 0 3.32 1.48 3.32 3.32v17.98c0 1.83-1.49 3.32-3.32 3.32zm-39.74 11.39h39.74c1.83 0 3.32 1.48 3.32 3.32v13.32c0 1.83-1.49 3.32-3.32 3.32h-39.74c-1.83 0-3.32-1.49-3.32-3.32V81.35c0-1.83 1.48-3.32 3.32-3.32zm36.42 6.63h-33.1v6.69h33.1v-6.69zm-36.42 24.71h39.74c1.83 0 3.32 1.48 3.32 3.32v17.98c0 1.83-1.49 3.32-3.32 3.32h-39.74c-1.83 0-3.32-1.49-3.32-3.32v-17.98c0-1.83 1.48-3.32 3.32-3.32zm36.42 6.63h-33.1v11.34h33.1V116zM19.53 16.07h153.43c1.83 0 3.32 1.49 3.32 3.32v137.23c0 1.83-1.48 3.32-3.32 3.32H19.53c-1.83 0-3.32-1.48-3.32-3.32V19.39c0-1.83 1.48-3.32 3.32-3.32zm150.11 6.63H22.85v130.6h146.79V22.7zm16.22-16.09H6.63v162.78h179.23V6.61z"></path></symbol>
<symbol viewBox="0 0 453.14 542.08" id="cut-job"><path d="M78.06 474.33c-6.44 0-11.66-5.22-11.66-11.66s5.22-11.66 11.66-11.66l296.7-.01c6.44 0 11.66 5.22 11.66 11.66s-5.22 11.66-11.66 11.66l-296.7.01zM54.85 0h343.46c30.16 0 54.84 24.68 54.84 54.84v432.39c0 30.16-24.68 54.84-54.84 54.84H54.85c-30.16 0-54.84-24.68-54.84-54.84V54.84C.01 24.68 24.69 0 54.85 0zm343.46 23.41H54.85c-17.24 0-31.43 14.19-31.43 31.43v432.39c0 17.24 14.19 31.43 31.43 31.43h343.46c17.24 0 31.43-14.19 31.43-31.43V54.84c0-17.24-14.19-31.43-31.43-31.43zm-289 324.06 60.04-59v-84.26c-20.14 2.62-38.19 11.9-51.85 25.57-16.26 16.26-26.32 38.73-26.32 63.56 0 20.33 6.75 39.08 18.13 54.14zm83.45-143.26v89.12h-.03c0 3.02-1.16 6.04-3.49 8.32l-63.57 62.47c15.26 11.96 34.49 19.09 55.38 19.09 24.82 0 47.29-10.06 63.55-26.32 16.26-16.26 26.32-38.73 26.32-63.55s-10.06-47.29-26.32-63.56c-13.66-13.66-31.71-22.95-51.85-25.57zm-11.71-24.16c62.57 0 113.29 50.72 113.29 113.29 0 62.57-50.72 113.29-113.29 113.29-62.57 0-113.29-50.72-113.29-113.29 0-62.57 50.72-113.29 113.29-113.29zm146.06 23.25c-15.34 0-15.34-23.32 0-23.32l47.64-.01c15.34 0 15.34 23.32 0 23.32l-47.64.01zm0 67.76c-15.34 0-15.34-23.32 0-23.32l47.64-.01c15.34 0 15.34 23.32 0 23.32l-47.64.01zm0 67.76c-15.34 0-15.34-23.32 0-23.32l47.64-.01c15.34 0 15.34 23.32 0 23.32l-47.64.01zm0 67.76c-15.34 0-15.34-23.32 0-23.32l47.64-.01c15.34 0 15.34 23.32 0 23.32l-47.64.01z"></path></symbol>
<symbol viewBox="0 0 668.81 800.07" id="cut-report"><path d="M668.81 80.94C668.81 36.42 632.39 0 587.87 0H80.95C36.43 0 .01 36.42.01 80.94v638.18c0 44.52 36.42 80.94 80.94 80.94h506.92c44.52 0 80.94-36.42 80.94-80.94V80.94zM115.7 709.62l437.91-.01c9.5 0 17.21-7.7 17.21-17.21 0-9.5-7.7-17.21-17.21-17.21l-437.91.01c-9.5 0-17.21 7.7-17.21 17.21 0 9.5 7.7 17.21 17.21 17.21zm0-86.95 437.91-.01c9.5 0 17.21-7.7 17.21-17.21 0-9.5-7.7-17.21-17.21-17.21l-437.91.01c-9.5 0-17.21 7.7-17.21 17.21 0 9.5 7.7 17.21 17.21 17.21zm0-488.26 437.91-.01c9.5 0 17.21-7.7 17.21-17.21 0-9.5-7.7-17.21-17.21-17.21l-437.91.01c-9.5 0-17.21 7.7-17.21 17.21 0 9.5 7.7 17.21 17.21 17.21zm0 100 70.32-.01c22.63 0 22.63-34.42 0-34.42l-70.32.01c-22.63 0-22.63 34.42 0 34.42zm0 100.01 70.32-.01c22.63 0 22.63-34.41 0-34.41l-70.32.01c-22.63 0-22.63 34.41 0 34.41zm0 100.01 70.32-.01c22.63 0 22.63-34.42 0-34.42l-70.32.01c-22.63 0-22.63 34.42 0 34.42zm70.32 100c22.63 0 22.63-34.42 0-34.42l-70.32.01c-22.63 0-22.63 34.41 0 34.41l70.32-.01zM495.4 273.32c-20.17-20.17-46.8-33.87-76.53-37.73v124.36l88.62 87.09c16.8-22.22 26.76-49.9 26.76-79.91 0-36.64-14.85-69.8-38.85-93.8zm73.4 93.8c0 92.34-74.86 167.2-167.2 167.2-92.34 0-167.2-74.86-167.2-167.2 0-92.34 74.86-167.2 167.2-167.2 92.34 0 167.2 74.86 167.2 167.2zM483.34 471.6l-93.82-92.2a17.173 17.173 0 0 1-5.15-12.28h-.05V235.58c-29.73 3.87-56.36 17.57-76.53 37.73-24 24-38.85 57.17-38.85 93.8 0 36.63 14.85 69.8 38.85 93.8s57.17 38.85 93.8 38.85c30.84 0 59.22-10.52 81.74-28.17zM634.26 80.93v638.18c0 25.45-20.95 46.39-46.39 46.39H80.95c-25.45 0-46.39-20.95-46.39-46.39V80.93c0-25.45 20.95-46.39 46.39-46.39h506.92c25.45 0 46.39 20.95 46.39 46.39z"></path></symbol>
<symbol viewBox="0 0 386.75 347.15" id="fault"><path d="M233.16 22.9c-17.64-30.55-61.86-30.53-79.5.01L6.22 278.25c-8.32 14.41-8.28 31.64.06 46.02 8.3 14.32 23.14 22.89 39.7 22.89h294.85c35.19 0 57.35-38.44 39.76-68.9L233.17 22.92zm129.48 265.73c9.68 16.77-2.46 37.73-21.81 37.73H45.98c-18.9 0-31.94-21.26-21.87-37.64L171.59 33.25c9.65-16.71 33.98-16.66 43.62.03l147.42 255.34zM193.41 248.2c-16.47 0-29.83 13.36-29.83 29.83s13.36 29.83 29.83 29.83 29.83-13.36 29.83-29.83-13.36-29.83-29.83-29.83zm0 20.78c5 0 9.05 4.05 9.05 9.05 0 5-4.05 9.05-9.05 9.05-5 0-9.05-4.05-9.05-9.05 0-5 4.05-9.05 9.05-9.05zm36.96-128.27c.99-10.95-2.2-21.18-10.66-28.48-7.31-6.3-17.21-9.18-26.76-9.06-9.13.12-18.47 3-25.5 8.95-8.56 7.25-11.92 17.45-11.06 28.46l4.93 63.52c3.5 45.06 59.32 44.61 63.36-.28l5.69-63.12zm-26.32 61.32c-1.74 19.35-20.48 20.55-22.04.52l-4.93-63.52c-1.58-20.37 34.48-20.4 32.66-.12l-5.69 63.12z"></path></symbol>
<symbol fill-rule="evenodd" viewBox="0 0 657.21 663.43" id="line"><path fill-rule="nonzero" d="M205.21 563.96V43.1H20.8V0h636.41v563.96h-41.59V43.1H246.8v520.86h-41.59zm205.21 56.37V99.47h41.59v520.86h184.41v43.1H.01V99.47H41.6v520.86h368.82z"></path></symbol>
<symbol viewBox="0 0 1353.69 1352.81" id="logout"><path d="M949.9 203.29c-74.43-42.77-9.32-156.08 65.11-113.31 209.22 120.79 338.68 344.32 338.68 585.98 0 373.8-303.05 676.85-676.85 676.85S-.01 1049.77-.01 675.96c0-241.72 129.45-465.19 338.68-585.98 74.43-42.77 139.54 70.54 65.11 113.31-168.94 97.53-272.54 277.64-272.54 472.67 0 301.33 244.26 545.59 545.59 545.59 301.33 0 545.59-244.26 545.59-545.59 0-195.05-103.51-375.09-272.54-472.67zM611.22 64.74c0-86.32 131.26-86.32 131.26 0v605.82c0 86.32-131.26 86.32-131.26 0V64.74z"></path></symbol>
<symbol fill-rule="evenodd" viewBox="0 0 3299.49 3167.37" id="machine-assign"><path d="M2586.5 781.88v621.73h-343.46l422.32 422.33 422.33-422.33h-343.47V781.88h-157.71zm-599.82-372.83c-28.7-11.55-55.81-21.16-79.44-27.52-16.59-4.43-28.78-17.12-33.32-32.47l-90.1-240.76c-66.2-8.97-133.03-13.46-199.85-13.49-66.39-.03-133.34 4.47-200.22 13.48l-91.41 244.24c-5.56 14.95-17.87 25.42-32.18 29.25l.03.11c-101.95 27.53-205.68 74.57-298.79 124.03-14.77 7.85-31.81 7.11-45.42-.44L682.05 398.97c-106.12 80.96-201.93 176.77-282.89 282.89L507.22 919.2c6.87 15.04 5.22 31.79-2.92 44.85-53.35 93.15-94.19 192.33-122.21 295.95-4.43 16.59-17.12 28.78-32.47 33.32l-241.14 90.25c-8.88 66.15-13.31 133.06-13.31 200.03s4.43 133.88 13.31 200.03l243.88 91.28c13.84 5.15 23.84 16.09 28.29 29.04l.15-.05c.2.6 71.72 209.9 124.28 301.02 7.91 13.77 8.14 29.86 2.01 43.3l.03.01-107.96 237.1c40.39 52.95 84.52 103.36 132.02 150.86 47.51 47.51 97.92 91.63 150.86 132.02l237.1-107.96c14.31-6.53 30.17-5.36 42.91 1.79 15.78 8.21 175.63 90.6 298.27 123.6 16.59 4.43 28.78 17.12 33.32 32.47l90.11 240.77c66.15 8.88 133.06 13.31 200.03 13.31s133.88-4.43 200.03-13.31l91.28-243.88c1.6-4.3 32.16-29.33 32.15-29.37 26.13-7.03 53.37-15.86 80.98-25.93l-104.42-105.8a47.313 47.313 0 0 1-11.68-19.8c-91.84 25.17-188.51 38.66-288.33 38.66-601.53 0-1089.18-487.65-1089.18-1089.18 0-599.33 486.82-1089.17 1089.18-1089.17 99.84 0 196.53 13.49 288.38 38.66 2.24-7.56 6.3-14.31 11.67-19.78l102.85-104.25zm703.08-373.18c154.95 0 280.59 125.63 280.59 280.59 0 154.95-125.64 280.59-280.59 280.59-136.73 0-250.61-97.83-275.51-227.29h-255.48l-193.95 196.51-4.18 412.85a47.13 47.13 0 0 1-5.78 22.67l-201.74 370.17c59.12 51.44 96.5 127.23 96.5 211.74 0 84.48-37.35 160.24-96.43 211.68l201.67 370.03c3.87 7.11 5.69 14.61 5.76 22.68l4.2 412.85 193.95 196.51h255.56c24.92-128.03 137.75-227.3 275.44-227.3 154.95 0 280.59 125.64 280.59 280.59 0 154.96-125.64 280.59-280.59 280.59-140.72 0-257.25-103.62-277.47-238.71h-273.23c-14.52 0-27.52-6.51-36.25-16.77l-41.73-42.28c-35.57 14.19-71.2 26.9-105.63 37.19l-91.4 244.21c-4.94 17.4-19.65 31.19-38.7 34.06-79.91 12.24-160.8 18.36-241.59 18.36-20.25 0-242.63-11.13-241.56-18.51-16.48-2.49-31.15-13.61-37.38-30.34l-92.77-247.86c-105.21-31.95-226.65-90.68-274.38-114.66l-239.61 109.1c-15.53 8.12-34.99 7.29-50.09-3.78-65.71-48.19-127.25-100.99-184.1-157.85-14.64-14.64-164.87-179.08-157.8-184.14-9.8-13.4-12.27-31.56-4.88-47.74l109.83-241.2c-44.5-85.37-94.4-222.36-112.85-274.55L52.4 1863.88c-17.39-4.94-31.19-19.65-34.06-38.7C6.1 1745.27-.02 1664.38-.02 1583.59c0-20.25 11.13-242.63 18.5-241.56 2.49-16.48 13.61-31.15 30.34-37.38l248.05-92.83c27.74-95.63 66.04-187.94 114.1-275.14L302.25 697.9c-8.12-15.53-7.29-34.99 3.78-50.09 96.13-131.04 210.91-245.82 341.95-341.95.01.01 42.49-7.25 47.77-4.83l241.7 110.05c86.72-44.72 180.91-86.31 274.5-114.27l91.53-244.58c4.94-17.4 19.65-31.2 38.7-34.06C1421.43 6.03 1502.35-.03 1583.96.01c80.47.03 160.95 6.16 240.49 18.38 16.87 2.2 31.99 13.42 38.35 30.47l92.76 247.87c31.56 10.04 66.81 23.89 102.9 39.56l46.77-47.41c9.28-9.44 21.55-14.17 33.83-14.17l273.26-.13c20.25-133.5 135.68-238.72 277.44-238.72zm-185.42 280.59c0 102.42 83.01 185.42 185.42 185.42 102.42 0 185.42-83 185.42-185.42 0-102.42-83-185.42-185.42-185.42-104.04 0-185.42 84.04-185.42 185.42zm0 2534.27c0 102.42 83.01 185.42 185.42 185.42 102.42 0 185.42-83 185.42-185.42 0-102.42-83-185.42-185.42-185.42-104.04 0-185.42 84.04-185.42 185.42zm-935.31-1547.62c36.35 0 71.1 6.92 102.99 19.51l193.92-355.83 3.41-334.51c-90.45-27.13-186.29-41.74-285.57-41.74-549.75 0-993.06 446.13-993.06 993.06 0 548.46 444.6 993.06 993.06 993.06 99.27 0 195.12-14.62 285.57-41.74l-3.41-334.51-193.84-355.67c-31.91 12.62-66.69 19.55-103.08 19.55-154.96 0-280.59-125.64-280.59-280.59 0-152.68 124.3-280.59 280.59-280.59zm-185.42 280.59c0 102.42 83 185.42 185.42 185.42 102.42 0 185.42-83.01 185.42-185.42 0-102.42-83-185.42-185.42-185.42-104.04 0-185.42 84.04-185.42 185.42zm-598.64-97.63c-3.18 26.08-26.9 44.64-52.97 41.45-26.07-3.19-44.63-26.9-41.45-52.98 12.95-106.08 44.69-208.32 92.96-302.24a899.485 899.485 0 0 1 191.58-251.37c19.3-17.76 49.34-16.51 67.1 2.79 17.76 19.3 16.51 49.34-2.79 67.1a804.958 804.958 0 0 0-171.5 224.97c-42.99 83.65-71.31 175.06-82.93 270.27zm1246.25 296.85c16.89 335.28 294.72 602.58 634.14 602.58 339.42 0 617.24-267.3 634.14-602.58h-157.96c-16.64 248.54-223.41 444.87-476.18 444.87s-459.54-196.32-476.19-444.87h-157.96z"></path></symbol>
<symbol viewBox="0 0 18799.48 11991.22" id="machine-type"><path d="M4075.69 8828.92h9693.46v1872.6H4075.69v-1872.6zm799.61 1260.44h724.07c447.9 0 447.9-660.93 0-660.93H4875.3c-413.17 0-413.17 660.93 0 660.93zm2028.65 0h5948.25c447.94 0 447.94-660.93 0-660.93H6903.95c-413.17 0-413.17 660.93 0 660.93zm916.94-3757.24h1248.4c447.9 0 447.9-660.88 0-660.88h-1248.4c-413.22 0-413.22 660.88 0 660.88zm-3745.21 954.69h2092.91c182.7 0 71.81 293.72 403.89 293.72h3781.89c189.31 0 289.45-100.27 293.76-293.72h3121v881.24H4075.67v-881.24zm10354.38 0h3671.75l-480.36 3632.05c-15.76 178.88-130.6 406.87-275.82 406.87h-2915.57V7286.81zm-11015.31 0v4038.92H1468.7c-140.33 0-263.16-132.87-293.72-440.57-64.08-596.85-470.73-3301.7-477.34-3598.35h2717.11zm3488.17-2203.09h3121V6919.6h-3121V5083.72zm3781.93 293.76h7453.69v1248.4h-7453.69v-1248.4zm-6609.18 0h2166.32v1248.4H4075.67v-1248.4zm10354.38-4369.41h3084.28v3708.48h-3084.28V1008.07zm-6572.49 1872.6h1211.72v1542.16H7857.56V2880.67zM660.91 677.58h3708.48v2496.8H1542.15c-383.29 0-456.16 660.93 110.18 660.93h1762.43v2790.56H660.92V677.58zm4369.41 330.49h587.48v1835.88h-587.48V1008.07zm7820.85 514.02c279.33-65.06 680.69-310.68 917.96-330.44v1505.44c-137.49-72.74-305.79-129.72-466.77-194.15-140.6-56.27-317.52-141.88-451.19-173.01V1522.1zM-.02 457.32v6792.76s463.67 3330.7 570.69 4129.2c68.08 524.59 883.72 607.37 1742.53 607.37 638.5 0 1753.28 98.99 1762.47-624.2h9693.46c32.73 393.46 281.77 580.77 665.28 619.8l2565.86 4.4c1108.78-18.34 1156.79-137.62 1319.77-1287.17 79.14-558.25 479.43-3449.4 479.43-3449.4V5157.17c-168.53-337.9-339.06-386.17-624.2-440.62v-2900.7c0-1451.35 102.72-1468.71-1432.03-1468.71-561.32 0-2491.79-75.32-2851.94 48.72-360.46 124.17-706.36 288.21-1045.37 423.34-388.75 154.98-643.92 249.53-655.69 776.34-9.68 873.06-88.15 1150.17 597.91 1421.59l980.98 377.6v1321.81h-3121c-8.79-394.43-436.71-293.72-917.96-293.72 0-588.1 2.75-1176.64 2.09-1764.56-.36-334.17-112.93-434.36-440.88-440.35l-1727.48 1.87c-315.16-16.12-371.87 188.33-368.37 476.14 6.97 574.33 1.15 1152.13 1.15 1726.9-187.89 0-445.86-15.28-624.91-.71-247.8 20.12-249.84 127.85-329.77 294.43H4075.68V3835.3c456.16 0 919.12 96.72 954.64-330.44 520.6 0 954.73 76.03 1152.21-279.82 126.79-230.35 108.8-1297.92 108.8-1297.92 0-1212.43 76.43-1580-1261.01-1580-36.73-294.43-653.16-330.44-1138.23-330.44-552.84 0-3217.68-72.12-3551.36 83.66C96.75 214.2 115.18 324.78-.01 457.29z"></path></symbol>
<symbol viewBox="0 0 40917.21 42175.13" id="machine"><path d="M26106.85 13037.26h2169.29-2169.29zm-.26 16098.06h2169.55-2169.55zm347.08-23688.64c-382.14-153.77-743.1-281.79-1057.84-366.5-220.9-59.05-383.19-228.02-443.65-432.4l-1199.75-3205.87c-881.49-119.41-1771.33-179.16-2661.09-179.6-884.04-.44-1775.46 59.49-2666.1 179.43l-1217.15 3252.18c-74.07 199.02-237.95 338.47-428.53 389.52l.35 1.49c-1357.56 366.59-2738.76 992.91-3978.58 1651.48-196.65 104.48-423.52 94.72-604.8-5.8L9081.69 5312.33C7668.59 6390.3 6392.84 7666.05 5314.87 9079.15L6753.8 12239.5c91.47 200.25 69.5 423.35-38.93 597.15-710.41 1240.35-1254.23 2561-1627.23 3940.71-59.05 220.9-228.02 383.19-432.4 443.65l-3210.88 1201.68c-118.18 880.88-177.23 1771.77-177.23 2663.55 0 891.77 59.05 1782.67 177.23 2663.55l3247.34 1215.39c184.26 68.63 317.47 214.22 376.69 386.71l1.93-.62c2.72 8 955.04 2794.91 1654.82 4008.28 105.35 183.38 108.34 397.6 26.8 576.5l.44.18-1437.52 3157.1c537.84 705.05 1125.42 1376.28 1757.98 2008.84s1303.79 1220.14 2008.84 1757.98l3157.1-1437.52c190.5-86.99 401.73-71.35 571.41 23.81 210.18 109.31 2338.61 1206.34 3971.55 1645.86 220.9 59.05 383.19 228.02 443.65 432.4l1199.84 3205.96c880.88 118.18 1771.77 177.23 2663.55 177.23 891.77 0 1782.67-59.05 2663.55-177.23l1215.39-3247.34c74.07-199.02 237.95-338.38 428.53-389.52l-.44-1.49c347.96-93.67 710.59-211.15 1078.23-345.32l-1390.43-1408.79c-75.3-76.53-127.06-167.48-155.53-263.69-1222.86 335.13-2510.04 514.73-3839.31 514.73-8009.62 0-14502.99-6493.37-14502.99-14502.99 0-7980.36 6482.3-14502.9 14502.99-14502.9 1329.44 0 2616.89 179.6 3839.93 514.82 29.79-100.61 83.83-190.59 155.44-263.34l1369.51-1388.14zm5557.92 3906.71c2063.32 0 3736.15 1672.92 3736.15 3736.15s-1672.83 3736.15-3736.15 3736.15c-2063.23 0-3736.15-1672.92-3736.15-3736.15 0-17.49.44-34.88.7-52.28v-4.39c30.49-2007.87 1673.8-3679.48 3735.45-3679.48zm-2469.01 3736.15c0 1363.71 1105.29 2469.01 2469.01 2469.01 1363.71 0 2469.01-1105.29 2469.01-2469.01 0-1363.71-1105.29-2469.01-2469.01-2469.01-1385.24 0-2469.01 1119.18-2469.01 2469.01zM35815.57 477.56c2063.23 0 3736.15 1672.83 3736.15 3736.15 0 2063.23-1672.92 3736.15-3736.15 3736.15-1820.63 0-3336.97-1302.65-3668.58-3026.53h-3401.9l-2582.53 2616.63-55.71 5478.58-.09 8.79.09 9.93c.09 102.19-24.69 205.88-76.97 301.91l-2686.3 4928.96c787.21 684.93 1284.98 1694.1 1284.98 2819.43 0 1124.89-497.33 2133.61-1284.02 2818.63l2685.34 4927.12c46.13 84.62 73.55 181.01 76.45 283.55l.26 13.44v5.01l55.97 5497.29 2582.53 2616.63h3402.87c331.79-1704.73 1834.25-3026.62 3667.62-3026.62 2063.23 0 3736.15 1672.92 3736.15 3736.15 0 2063.32-1672.92 3736.15-3736.15 3736.15-1873.79 0-3425.45-1379.71-3694.68-3178.54h-3638.18c-193.31 0-366.41-86.64-482.66-223.27l-555.59-562.97c-473.7 188.92-948.1 358.24-1406.51 495.14l-1217.06 3251.82c-65.81 231.71-261.58 415.35-515.26 453.49-1064.08 163-2141.08 244.54-3216.85 244.54s-2152.77-81.54-3216.85-244.54l.35-1.93c-219.49-33.13-414.83-181.27-497.77-404.02l-1235.25-3300.42c-1400.88-425.46-3017.92-1207.48-3653.47-1526.71l-3190.49 1452.72c-206.84 108.08-465.96 97.01-666.92-50.35-874.9-641.7-1694.36-1344.73-2451.43-2101.81-757.07-757.07-1460.02-1576.62-2101.81-2451.43l.62-.44c-130.48-178.46-163.35-420.27-65.02-635.64l1462.48-3211.67c-592.58-1136.75-1256.95-2960.89-1502.63-3655.75L697.95 24818.34c-231.62-65.81-415.35-261.58-453.49-515.26C81.46 23239.08.01 22162 .01 21086.23s81.45-2152.86 244.45-3216.85l1.93.35c33.13-219.49 181.27-414.83 404.02-497.77l3302.88-1236.13c369.4-1273.3 879.3-2502.57 1519.24-3663.66L4024.81 9292.75c-108.08-206.84-97.01-465.96 50.35-666.92C5355.22 6880.94 6883.51 5352.57 8628.4 4072.59l.44.62c178.46-130.48 420.27-163.35 635.64-64.93l3218.35 1465.38c1154.68-595.48 2408.91-1149.23 3655.05-1521.52L17356.7 695.48c65.81-231.71 261.58-415.44 515.26-453.58C18927.26 80.31 20004.7-.44 21091.36.09c1071.46.44 2143.1 81.98 3202.27 244.8 224.68 29.26 425.98 178.72 510.6 405.78l1235.16 3300.5c420.19 133.65 889.66 318.17 1370.13 526.77l622.81-631.24c123.63-125.74 286.98-188.74 450.41-188.74l3638.62-1.67c269.58-1777.57 1806.66-3178.72 3694.24-3178.72zm-2469.01 3736.15c0 1363.71 1105.29 2468.92 2469.01 2468.92 1363.71 0 2468.92-1105.21 2468.92-2468.92S37179.28 1744.7 35815.57 1744.7c-1385.33 0-2469.01 1119.09-2469.01 2469.01zm-1334.98 21133.08c2063.32 0 3736.15 1672.92 3736.15 3736.15s-1672.83 3736.15-3736.15 3736.15c-2045.75 0-3707.42-1644.72-3735.45-3683.78l-.09-3.25c-.26-16.34-.62-32.69-.62-49.12 0-2033.01 1655.08-3736.15 3736.15-3736.15zm-2469.01 3736.15c0 1363.71 1105.29 2469.01 2469.01 2469.01 1363.71 0 2469.01-1105.29 2469.01-2469.01 0-1363.71-1105.29-2469.01-2469.01-2469.01-1385.24 0-2469.01 1119.18-2469.01 2469.01zm3803.99 8875.82c0 1363.8 1105.29 2469.01 2469.01 2469.01 1363.71 0 2468.92-1105.21 2468.92-2469.01 0-1363.71-1105.21-2468.92-2468.92-2468.92-1385.33 0-2469.01 1119.09-2469.01 2468.92zM20892.39 17351.4c484.07 0 946.78 92.17 1371.36 259.74l2582.18-4738.03 45.34-4454.12c-1204.32-361.23-2480.61-555.85-3802.49-555.85-7320.21 0-13223.1 5940.41-13223.1 13223.1 0 7303.07 5920.03 13223.1 13223.1 13223.1 1321.89 0 2598.17-194.63 3802.49-555.85l-45.34-4454.12-2581.04-4735.92c-424.93 168-888 260.27-1372.5 260.27-2063.32 0-3736.15-1672.92-3736.15-3736.15 0-2033.01 1655.08-3736.15 3736.15-3736.15zm-2469.01 3736.15c0 1363.71 1105.21 2469.01 2469.01 2469.01 1363.71 0 2468.92-1105.29 2468.92-2469.01 0-1363.71-1105.21-2469.01-2468.92-2469.01-1385.33 0-2469.01 1119.09-2469.01 2469.01zm18757.65-3736.15c2063.32 0 3736.15 1672.92 3736.15 3736.15s-1672.83 3736.15-3736.15 3736.15c-2063.23 0-3736.15-1672.92-3736.15-3736.15 0-2033.01 1655.17-3736.15 3736.15-3736.15zm-2468.92 3736.15c0 1363.71 1105.21 2469.01 2468.92 2469.01 1363.8 0 2469.01-1105.29 2469.01-2469.01 0-1363.71-1105.21-2469.01-2469.01-2469.01-1385.24 0-2468.92 1119.09-2468.92 2469.01zm-24259.95-1300.01c-42.35 347.25-358.15 594.34-705.32 551.99-347.17-42.44-594.25-358.24-551.9-705.41 172.4-1412.57 595.13-2773.82 1237.8-4024.54 641.44-1248.17 1501.84-2383.51 2550.99-3347.07 256.93-236.45 656.99-219.85 893.44 37.17 236.45 256.93 219.85 656.99-37.17 893.44-939.66 863.04-1709.83 1879.15-2283.61 2995.6-572.37 1113.9-949.5 2331.05-1104.24 3598.82z"></path></symbol>
<symbol viewBox="0 0 20 20" id="marker"><path d="M19.828 1.734 18.266.17a.586.586 0 0 0-.78-.043L6.508 8.917a.585.585 0 0 0-.144.17L3.68 13.859l-2.557.568a.586.586 0 0 0-.452.485l-.664 4.414a.586.586 0 0 0 .58.673c.068 0-.217.04 4.5-.67a.586.586 0 0 0 .485-.453l.568-2.557 4.772-2.684a.584.584 0 0 0 .17-.144l8.79-10.977a.586.586 0 0 0-.044-.78zM4.515 18.23l-3.231.486.486-3.232 2.106-.468 1.108 1.108-.468 2.106zm5.724-5.56-4.514 2.538-.934-.934 2.54-4.513 10.477-8.39.82.82-8.39 10.478z"></path></symbol>
<symbol viewBox="0 0 1507.18 1507.18" id="operation"><path d="M428.47 879.39v50.8c0 166.56-253.48 166.56-253.48 0v-50.8c0-166.55 253.48-166.55 253.48 0zm536.96-185.03-56.08 9.91c-3.9-185.6-307.65-185.6-311.54 0l-56.08-9.91c19.61-249.89 404.09-249.89 423.7 0zm162 2.17-52.98 9.36c0-382.32-641.73-382.32-641.73 0l-52.98-9.36c9.4-447.65 738.3-447.65 747.7 0zm379.74-69.52v253.16h-126.58v-52.99h73.59V680c-156.29 0-151.48 10.42-160.21-34.08-23.29-91.25-58.43-151.78-101.78-227.91l108.21-106.68-103.03-104.56-108.94 107.49c-78.67-52.15-119.72-78.31-237.13-102.89-26.93-5.64-24.77 1.08-24.31-25.73.76-44.04.17-88.54.17-132.64H679.98c0 44.1-.59 88.6.17 132.64.46 26.82 2.62 20.1-24.31 25.73-117.41 24.58-158.46 50.74-237.13 102.89L309.77 206.77 206.74 311.33l108.21 106.68c-43.35 76.13-78.49 136.66-101.78 227.91-8.73 44.5-3.92 34.08-160.21 34.08v147.18h73.59v52.99H-.03V627.01h161.91c28.84-60.12 43.91-127.39 82.42-200.17L130.22 311.31 311.27 128.8l114.81 116.26c80.28-44.12 130.19-66.39 200.9-83.15V0h253.16v161.91c70.71 16.76 120.61 39.03 200.9 83.15l114.81-116.26 181.05 182.51-114.08 115.53c38.51 72.78 53.58 140.05 82.42 200.17h161.91zm0 621.12v259.05h-52.99v-214.9c.06-26.68-1.4-42.13-9.74-60.9-13.8-31.05-43.95-59.33-76.1-68.15-36.6-10.03-89.56-6.36-134.94-6.36v350.3h-52.99v-350.3c-42.37 0-97.15-3.03-135.41 5.89 6.38 16.23 10.09 40.81 11.14 70.12 2.66 74.45.64 241.15.64 274.3h-52.99c0-54.02 4.07-271.7-4.75-307.29-9.46-38.16-38.92-69.38-72.97-83.05-37.01-14.86-95.5-10.01-146.01-10.01v400.34h-52.98v-400.34c-50.51 0-109-4.85-146.01 10.01-34.05 13.67-63.51 44.89-72.97 83.05-8.82 35.58-4.75 253.26-4.75 307.29h-52.99c0-33.14-2.02-199.85.64-274.3 1.05-29.31 4.76-53.88 11.14-70.12-38.26-8.91-93.04-5.89-135.41-5.89v350.3h-52.99v-350.3c-45.38 0-98.34-3.67-134.94 6.36-32.15 8.82-62.29 37.1-76.1 68.15-8.35 18.77-9.8 34.22-9.74 60.9v214.9H-.03v-259.05c5.21-73.58 63.32-145.77 179.53-144.28 98.97-.48 276.01-2.2 312.07 11.81 17.77-11.9 38.97-47.68 102.92-58.98 48.98-8.66 269.16-8.66 318.14 0 63.95 11.31 85.15 47.08 102.92 58.98 36.06-14.01 213.1-12.29 312.07-11.81 116.21-1.49 174.32 70.7 179.53 144.28zm-176.62 259.05h52.99v-203.12h-52.99v203.12zm-453.33 0h52.98v-253.16h-52.98v253.16zm-300.26 0h52.98v-253.16h-52.98v253.16zm-453.33 0h52.99v-203.12h-52.99v203.12zm1208.55-628.12v50.8c0 166.56-253.48 166.56-253.48 0v-50.8c0-166.55 253.48-166.55 253.48 0zm-74.99-51.76c-28.59-28.59-74.92-28.59-103.51 0-13.32 13.32-21.59 31.64-21.59 51.76v50.8c0 20.11 8.27 38.44 21.59 51.76 28.59 28.59 74.92 28.59 103.51 0 13.32-13.32 21.58-31.64 21.58-51.76v-50.8c0-20.11-8.26-38.44-21.58-51.76zm-376.53 1.63v50.8c0 166.56-253.49 166.56-253.49 0v-50.8c0-166.55 253.49-166.55 253.49 0zm-74.99-51.76c-28.59-28.59-74.92-28.59-103.51 0-13.32 13.32-21.59 31.64-21.59 51.76v50.8c0 20.11 8.27 38.44 21.59 51.76 28.59 28.59 74.92 28.59 103.51 0 13.32-13.32 21.59-31.64 21.59-51.76v-50.8c0-20.11-8.27-38.44-21.59-51.76zm-452.2 50.46c-28.59-28.59-74.92-28.59-103.51 0-13.32 13.32-21.58 31.64-21.58 51.75v50.8c0 20.11 8.26 38.44 21.58 51.76 28.59 28.59 74.92 28.59 103.51 0 13.32-13.32 21.59-31.64 21.59-51.76v-50.8c0-20.11-8.27-38.44-21.59-51.75z"></path></symbol>
<symbol viewBox="0 0 1024.42 1024.42" id="production-order"><path d="m878.31 327.64 41.04-72.6c-23.06-36.47-51.25-70.07-83.17-99.11l-79.52 28.13c-4.38 1.55-9 .99-12.74-1.15l-.01.01c-.24-.14-82.64-47.57-127.07-59.52-5.37-1.43-9.31-5.54-10.78-10.5l-29.14-77.87c-42.88-5.81-86.51-5.78-129.39 0l-29.56 78.99c-1.8 4.83-5.78 8.22-10.41 9.46l.01.04c-32.97 8.91-66.52 24.12-96.64 40.12-4.78 2.54-10.29 2.3-14.69-.14l-75.66-34.45c-34.32 26.18-65.31 57.17-91.49 91.49l34.95 76.76a15.303 15.303 0 0 1-.95 14.5c-17.26 30.13-30.46 62.21-39.53 95.72-1.43 5.37-5.54 9.31-10.5 10.78l-77.99 29.19a488.267 488.267 0 0 0 0 129.39l78.88 29.52c4.48 1.67 7.71 5.2 9.15 9.4l.05-.02c.07.2 23.2 67.89 40.19 97.36 2.56 4.45 2.63 9.66.65 14h.01l-34.92 76.68c26.18 34.32 57.17 65.31 91.49 91.5l76.69-34.92c4.63-2.11 9.76-1.73 13.88.58 5.1 2.66 56.8 29.3 96.47 39.98 5.37 1.43 9.31 5.54 10.78 10.5l29.15 77.87c42.83 5.74 86.56 5.74 129.39 0l29.52-78.88c1.8-4.83 5.78-8.22 10.41-9.46l-.01-.04c32.86-8.85 66.75-24.39 96.82-40.19 4.62-2.43 9.92-2.27 14.23-.04l75.98 34.6c34.32-26.18 65.31-57.17 91.49-91.5l-34.92-76.68c-2.11-4.63-1.73-9.76.58-13.88 2.66-5.1 29.3-56.8 39.98-96.47 1.43-5.37 5.54-9.31 10.5-10.78l77.87-29.15c5.77-42.89 5.8-86.51-.01-129.39l-78.87-29.52c-4.83-1.8-8.22-5.78-9.46-10.41l-.04.01c-6.04-22.45-15.11-44.35-23.98-65.81-1.98-4.81-1.33-10.04 1.27-14.11zM512.23 308.3l176.56 101.94v203.88L512.23 716.06 335.67 614.12V410.24L512.23 308.3zM380.4 418.73l132.39 75.3 131.12-75.39-131.67-76.02-131.83 76.11zm278.55 25.53-131.31 75.5-.47 153.36 131.78-76.08V444.26zM497.44 673.21l.47-153.4-132.4-75.31v152.54l131.93 76.17zM356.22 320.08c-15.65 12.73-35.03-11.11-19.38-23.83 49.57-40.26 111.52-62.3 175.39-62.3 153.66 0 278.24 124.57 278.24 278.24 0 153.66-124.58 278.24-278.24 278.24-153.66 0-278.24-124.58-278.24-278.24 0-61.08 20.21-120.62 57.34-169.11 12.25-16.05 36.68 2.6 24.43 18.65-33.09 43.22-50.96 96.03-50.96 150.46 0 136.65 110.77 247.43 247.43 247.43 136.66 0 247.43-110.77 247.43-247.43 0-136.65-110.77-247.43-247.43-247.43-56.81 0-111.91 19.5-156.01 55.32zm156.01-160.16c194.55 0 352.27 157.72 352.27 352.27 0 194.55-157.72 352.27-352.27 352.27-194.55 0-352.27-157.72-352.27-352.27 0-193.84 157.45-352.27 352.27-352.27zM191.05 512.19c0 177.39 143.8 321.18 321.18 321.18 177.39 0 321.18-143.79 321.18-321.18 0-177.39-143.8-321.18-321.18-321.18-177.8 0-321.18 144.29-321.18 321.18zm759.44-249.98-42.25 74.74c7.4 18.02 14.67 36.36 20.28 55.02l80.08 29.97c5.03 1.88 8.92 6.34 9.8 12.02 7.97 51.57 8.04 104.77.14 156.36l-.05-.01c-.81 5.33-4.4 10.08-9.81 12.09l-80.17 30c-10.34 34.03-29.33 73.3-37.08 88.74l35.29 77.5c2.62 5.02 2.36 11.32-1.22 16.2-31.09 42.38-68.21 79.51-110.6 110.6l-.01-.02c-4.33 3.17-10.21 3.97-15.44 1.58l-78.16-35.59c-28.19 14.44-58.45 28-88.84 37.07l-29.56 78.99c-1.6 5.63-6.35 10.09-12.52 11.01a516.865 516.865 0 0 1-156.27 0l.01-.05c-5.33-.81-10.08-4.4-12.09-9.81l-30-80.17c-34.03-10.33-73.3-29.33-88.74-37.08l-77.5 35.29c-5.02 2.63-11.32 2.36-16.2-1.22-42.38-31.09-79.5-68.21-110.6-110.6l.02-.01c-3.17-4.33-3.97-10.21-1.58-15.44l35.52-78.01c-14.39-27.61-30.53-71.92-36.5-88.79l-79.49-29.75c-5.63-1.6-10.09-6.36-11.01-12.52a516.865 516.865 0 0 1 0-156.27l.05.01c.81-5.33 4.4-10.08 9.81-12.09l80.23-30.03a436.159 436.159 0 0 1 36.9-88.99l-35.16-77.23c-2.63-5.02-2.36-11.32 1.22-16.2 31.09-42.38 68.21-79.5 110.6-110.6l.01.02c4.33-3.17 10.21-3.97 15.44-1.58l78.17 35.59c28.05-14.46 58.51-27.91 88.78-36.96l29.6-79.1c1.6-5.63 6.36-10.09 12.52-11.01 51.45-7.88 104.53-7.84 155.98.07 5.46.71 10.35 4.34 12.4 9.86l30 80.17c41 13.05 101.32 46 120.56 56.78l81.45-28.81.01.02a15.33 15.33 0 0 1 15.2 2.92c39.55 34.64 73.3 74.9 100.55 119.86 2.76 4.57 3.05 10.46.24 15.45z"></path></symbol>
<symbol viewBox="0 0 18799.48 18846.77" id="sale-order"><path d="M6242.1 6205.24c0-390.44 697.52-490.27 697.52 36.73 0 424.36-697.52 437.11-697.52-36.73zm7049.66 7086.52c0 600.98 734.47 600.98 734.47 0 0-443.64-734.47-443.64-734.47 0zM3157.78 3231.14c0-102.23 154.76-256.95 256.99-256.95 630.77 0 470.68 660.79 110.18 660.79-321.96 0-367.17-155.03-367.17-403.85zm-771.15 0c0 710.93 461.45 1175.04 954.69 1175.04 385.82 0 664.97 6.17 983.29-338.66C5017.02 3317.33 4391.53 2203 3635.08 2203c-370.81 0-711.64 24.82-961.35 323.82-146.86 175.77-287.1 392.35-287.1 704.31zm7380.23 5140.47c0 346.03 144.9 383.6 523.22 761.96l1487.05 1487.1c316.76 318.98 508.65 358.51 844.73 18.38 217.69-220.31 816.89-740.02 816.89-945.58 0-333.19-218.35-403.98-440.66-403.98-196.33 0-664.79 502.12-771.15 660.93-229.59-154.05-763.69-745.44-1000.43-982.18l-495.73-495.73c-223.64-223.64-326.31-431.43-633.39-431.43-181.58 0-330.53 148.99-330.53 330.53zM4222.59 6829.54l2174.22-3847.52c331.82-553.86-334.22-996.12-685.71-377.47 0 0-2217.08 3903.3-2224.36 3917.46-256.1 497.82 368.01 906.64 735.84 307.53zm9803.59 2166.32c357.09 0 421.43-182.7 706.84-468.15 145.21-145.17 468.15-386.04 468.15-633.44 0-299.13-208.36-367.21-440.66-367.21-189.09 0-555.55 393.28-660.97 550.75l-522.73-505.1c93.75-65.72 480.9-433.91 528.86-518.6 155.07-273.87-52.27-591.87-336.52-591.87-277.02 0-532.72 415.57-734.38 550.75l-469.13-448.79c224.13-341.45 542.62-313.79 542.62-836.25 0-127.05-186.69-284.61-317.87-284.61-294.03 0-400.56 176.74-554.26 330.44-803.21 803.3-831.76 728.87-73.45 1487.18l1340.19 1340.19c122.43 122.43 318.85 394.7 523.31 394.7zm-8445.14 3892.02c0 577.66 497.99 1101.59 991.46 1101.59 1025.87 0 681.09-403.89 1248.09-403.89 92.28 0 257.26 114.4 257.26 367.12 0 204.28-355.09 480.23-561.27 687.08-384.75 386.08 53.87 1064.24 607.55 497.37 576.95-590.67 724.92-598.62 724.92-1368.04 0-239.89-195.66-548.66-324.85-666.61-262.59-239.76-478.94-288.12-850.19-288.12-576.37 0-881.01 644.27-1202.75 321.6-478.1-479.52 615.36-754.09 615.36-1312.93 0-213.87-284.17-627.04-743.93-156.36-360.33 368.9-761.64 633.13-761.64 1221.18zm3745.34-1835.83c246.64 57.55 487.56 272.98 734.2 330.49-58.89 87.75-114 131.71-192.11 211.65-84.38 86.33-92.37 123.5-198.37 148.81l-343.72-690.95zm-1285.26-954.69c0 310.06 611.46 1333.04 783.32 1676.81 141.93 283.81 261.96 523.93 403.89 807.78 212.94 425.83 236.61 673.18 648.76 673.18 235.05 0 330.49-179.41 330.49-403.98 0-117.1-100.67-279.99-146.86-367.12l725.85-706.13c151.39 84.2 321.56 177.5 492.26 128.03 267.96-77.63 504.74-515.4-17.99-769.02-491.33-238.34-2622.3-1390.06-2853.09-1391.35-182.12-.98-366.63 137.89-366.63 351.8zm7710.85-5434.23c0-177.54 116.13-293.67 293.67-293.67 506.79 0 390.61 479.52 263.12 593.51-83.22 74.38-556.79 207.74-556.79-299.84zm-15017.55-3121c0-567.4 240.34-807.74 807.74-807.74h13108.22c114.71 0 1230.91 1167.58 1285.04 1248.31h-3157.64c-896.25 0-688.06-64.75-1165.85 413.04L7710.81 6278.66c0-1215.76-1331.71-1480.08-1938.37-836.74-302.02 320.27-400.16 877.02-190.47 1276.51 222.4 423.7 584.59 625.13 1063.89 625.13l-1468.62 1431.9H1358.58c-484.49 0-624.16-400.3-624.16-844.47V1542.12zM0 991.29v6960.93c9.19 1159.59 330.4 1567.21 1689.02 1594.43h2753.79l-2052.23 2095.58c-479.3 489.42-552.39 1209.94-166.93 1775.84l4945.11 4968.65c828.83 839.8 1603.27 397.99 2276.94-275.69l3323.06-3322.88c340.08-413.4-178.03-935.46-607.1-496.88l-3321.91 3323.95c-543.6 543.69-809.16 546.04-1251.38 106.09L3016.6 13172.76c-586.54-583.61-264.36-815.6 260.54-1340.46 881.99-882.03 8969.42-9076.09 9172.73-9112.55l4589.72-5.15c258.01.36 181.63 14.83 327.82 112.71l-816.4 835.81c-211.34-40.9-542.71-130.56-832.92-25.18-899.4 326.53-912.19 1385.31-435.69 1861.86 373.12 373.12 985.15 405.14 1432.43 126.3 552.13-344.16 513.71-897.44 395.68-1403.52 199.17-133.36 711.82-729.85 796.95-767.28 180.92-79.62 121.06 312.32 120.88 546.93-.98 1350.72 29.13 2947.9 3.06 4262.34-3.51 177.99 9.15 148.59-82.6 247.75-629.93 680.78-1900.49 1894.36-2628.39 2622.26-223.11 223.11-418.46 420.5-642.63 642.54-112.09 111.02-253.44 202.15-244.96 410.46 7.24 178.65 149.79 334.3 300.15 364.72 326.44 65.95 627.4-355.98 789.49-518.02 771.59-771.64 2731.77-2667.6 3277.01-3295.4V3194.39c-5.73-6.57-13.23-16.08-16.61-20.12l-139.18-154.54c-67.99-67.46-87.26-80.16-137.93-155.74 31.66-47.21 254.33-301.53 293.72-330.4v-367.3c-72.96-53.51-168.53-260.36-504.12-174.83-150.1 38.24-250.55 200.15-377.11 284.97-137.49-92.15-215.96-253.79-374.41-286.48-221.15-45.61-395.77 61.33-555.46-68.7C16681.02 1670.92 15607.23 480.16 15054.31.02H991.32C388.88.02 0 405.24 0 991.3z"></path></symbol>
<symbol viewBox="0 0 455.98 455.98" id="scanning-delete"><path d="M71.11 384.87h109.04V275.83h-19.13c-10.67 0-10.67-16.25 0-16.25h27.26a8.12 8.12 0 0 1 8.12 8.12v125.29a8.12 8.12 0 0 1-8.12 8.12H62.99a8.12 8.12 0 0 1-8.12-8.12V267.7a8.12 8.12 0 0 1 8.12-8.12h27.26c10.67 0 10.67 16.25 0 16.25H71.12v109.04zM0 8.13v211.81c0 10.67 16.25 10.67 16.25 0V27.74l411.99 411.99h-192.2c-10.67 0-10.67 16.25 0 16.25h211.81a8.13 8.13 0 0 0 8.13-8.13V236.04c0-10.67-16.25-10.67-16.25 0v192.2L27.74 16.25h192.2c10.67 0 10.67-16.25 0-16.25H8.13A8.13 8.13 0 0 0 0 8.13zm87.2 46.74h101.08a8.12 8.12 0 0 1 8.12 8.12v27.26c0 10.67-16.25 10.67-16.25 0V71.12h-76.71L87.19 54.87zm-16.09 48.58v76.71h76.71l16.25 16.25H62.99a8.12 8.12 0 0 1-8.12-8.12V87.21l16.25 16.25zm114.6 49.94c4.7-1.38 10.69 1.16 10.69 7.64v3.05l-10.69-10.69zm34.15 202.88V252.2l16.25 16.25v87.82c0 10.67-16.25 10.67-16.25 0zm-16.08-120.15H99.71c-10.67 0-10.67-16.25 0-16.25h87.82l16.25 16.25zm16.08-48.58V99.72c0-10.67 16.25-10.67 16.25 0v104.07l-16.25-16.25zm32.33 32.33h104.07c10.67 0 10.67 16.25 0 16.25h-87.82l-16.25-16.25zm-32.33 173.12a8.12 8.12 0 0 1 8.12-8.12 8.12 8.12 0 0 1 8.12 8.12c0 4.49-3.64 8.13-8.12 8.13-4.49 0-8.12-3.64-8.12-8.13zm0-330a8.12 8.12 0 0 0 8.12 8.12 8.12 8.12 0 0 0 8.12-8.12c0-4.49-3.64-8.13-8.12-8.13-4.49 0-8.12 3.64-8.12 8.13zM62.98 219.87a8.12 8.12 0 0 1 8.12 8.12 8.12 8.12 0 0 1-8.12 8.12c-4.49 0-8.13-3.64-8.13-8.12 0-4.49 3.64-8.12 8.13-8.12zm330 0a8.12 8.12 0 0 0-8.12 8.12 8.12 8.12 0 0 0 8.12 8.12c4.49 0 8.13-3.64 8.13-8.12 0-4.49-3.64-8.12-8.13-8.12zm-267.36 39.71a8.12 8.12 0 0 1 8.12 8.12 8.12 8.12 0 0 1-8.12 8.12c-4.49 0-8.13-3.64-8.13-8.12 0-4.49 3.64-8.12 8.13-8.12zm142.07 62.64a8.12 8.12 0 0 1 8.12 8.12c0 4.49-3.64 8.13-8.12 8.13-4.49 0-8.12-3.64-8.12-8.13a8.12 8.12 0 0 1 8.12-8.12zm62.64-142.07c4.49 0 8.13 3.64 8.13 8.12 0 4.49-3.64 8.12-8.13 8.12a8.12 8.12 0 0 1-8.12-8.12 8.12 8.12 0 0 1 8.12-8.12zm-142.07-66.12a8.12 8.12 0 0 1 8.12 8.12c0 4.49-3.64 8.13-8.12 8.13-4.49 0-8.12-3.64-8.12-8.13a8.12 8.12 0 0 1 8.12-8.12zM107.6 304.21h36.02a8.12 8.12 0 0 1 8.12 8.12v36.02a8.12 8.12 0 0 1-8.12 8.12H107.6a8.12 8.12 0 0 1-8.12-8.12v-36.02a8.12 8.12 0 0 1 8.12-8.12zm228.92 0h11.82a8.12 8.12 0 0 1 8.12 8.12v11.82l-19.94-19.94zm-12.39 52.27h-11.82a8.12 8.12 0 0 1-8.12-8.12v-11.82l19.94 19.94zM312.31 99.49h36.02a8.12 8.12 0 0 1 8.12 8.12v36.02a8.12 8.12 0 0 1-8.12 8.12h-36.02a8.12 8.12 0 0 1-8.12-8.12v-36.02a8.12 8.12 0 0 1 8.12-8.12zm-180.51 0h11.82a8.12 8.12 0 0 1 8.12 8.12v11.82L131.8 99.49zm-12.39 52.27h-11.82a8.12 8.12 0 0 1-8.12-8.12v-11.82l19.94 19.94zm249.35 249.35H267.68a8.12 8.12 0 0 1-8.12-8.12v-27.26c0-10.67 16.25-10.67 16.25 0v19.13h76.71l16.25 16.25zm16.09-48.58v-76.71h-76.71l-16.25-16.25h101.08a8.12 8.12 0 0 1 8.12 8.12v101.08l-16.25-16.25zm-114.6-49.94c-4.7 1.38-10.69-1.16-10.69-7.64v-3.05l10.69 10.69zM384.85 71.1H275.81v109.04h19.13c10.67 0 10.67 16.25 0 16.25h-27.26a8.12 8.12 0 0 1-8.12-8.12V62.98a8.12 8.12 0 0 1 8.12-8.12h125.29a8.12 8.12 0 0 1 8.12 8.12v125.29a8.12 8.12 0 0 1-8.12 8.12h-27.26c-10.67 0-10.67-16.25 0-16.25h19.13V71.1z"></path></symbol>
<symbol fill-rule="evenodd" viewBox="0 0 2156.04 2156.04" id="section"><path d="M1078.03 0C482.75 0 0 482.45 0 1078.02c0 595.58 482.74 1078.03 1078.03 1078.03 595.46 0 1078.02-482.57 1078.02-1078.03C2156.05 482.44 1673.31 0 1078.03 0zm48.74 98.66c523.28 30.11 931.79 453.26 931.79 979.36s-408.5 949.26-931.79 979.37V98.66zm-281.32 979.36c0-114.24 75.84-199.55 183.84-227.68v455.38c-108.04-28.13-183.84-113.43-183.84-227.69zm-494.93 0c0 388.72 294.31 694.32 678.77 725.99v253.38c-523.29-30.11-931.8-453.27-931.8-979.37S506 128.77 1029.29 98.66v253.38c-384.11 31.64-678.77 337.6-678.77 725.98zm397.44 0c0 167.71 118.38 297.85 281.32 326.62v301.66c-330.32-32.03-581.29-293.15-581.29-628.28 0-335.41 250.71-596.21 581.29-628.28v301.67c-162.68 28.72-281.32 159.17-281.32 326.61z"></path></symbol>
<symbol viewBox="0 0 1034.94 1035.3" id="style"><path d="M33.95 133.98h100.11c-1.29 227.78-.02 457.79-.02 686.01l-.05 128.18c.06 26.65-18.51 51.7-49.59 50.26-38.19-1.77-47.35-17.99-50.02-48.57-15.7-55.77.59-699.15-.43-815.88zm925.17 531.7 47.18 47.18 23.6-23.6-47.18-47.18-23.6 23.6zm0-162.6 47.18-47.18 23.6 23.6-47.18 47.18-23.6-23.6zm9.1 64.61h66.73v33.38h-66.73v-33.38zM611.3 523.68h.02v-.01c8.46-3.58 17.95-5.69 28.32-6.1 31.25-1.22 63.39.98 94.94.02l.01 200.25-88.63-.03c-50.64.24-78.17-29.76-78.17-84.45l-.01-37.54c-.26-33.76 16.21-60.58 43.52-72.14zM501.14 300.87l-.11-33.38-49.93-.08-.1-33.35 50.14.01-.11-33.3-49.93-.08-.1-33.35 50.14.01-.11-33.31s-73.51-3.56-79.78 3.55c-4.68 5.44-3.62 27.82-3.62 38.07l1.31 115.35c1.65 10.39 20.82 9.78 40.4 9.78 13.81 0 28.04-.33 41.8.08zm166.82-33.36-.13 33.28c33.94.1 80.68 9.87 96.99-29.17 7.31-21.95 4.02-42.01-12.36-58.57-16.4-10.88-52.28-6.63-49.29-30.1 2.99-23.48 45.36-16.12 64.88-15.53l-.11-33.38-56.32-.13c-13.3-.12-27.61 8.99-35.93 20.35-4.98 6.8-7.54 14.13-8.06 28.1-.41 11.3 1.93 25.91 14.84 39.1 12.91 13.19 43.42 10.82 48.38 21.57 14 35.34-52.28 24.2-62.88 24.47zM200.75 867.96l367.13.01-.11-33.3-366.88-.08-.13 33.37zm0 66.72 367.13.01-.11-33.3-366.88-.08-.13 33.37zm0-133.45h367.13l-.11-33.3-366.88-.08-.13 33.37zm387.96-542.19 10.6 26.9c3.29 10.38 6.98 14.94 18.52 14.93 20.38-.02 16.7-13.13 16.7-33.46 0-44.03 1.11-89.52-.1-133.37l-33.19-.06-.1 58.32c-1.9-.72-2.18-1.48-2.56-2.25-4.11-8.22-22.01-8.49-27.5-1-.65 1.44-1.21 2.77-3.21 3.39l-.11-58.41-33.26-.06c-1.58 50.06.47 100.48-.16 150.15-.28 22.05 26.07 20.54 31.39 10.49 3.93-7.41 7.2-18.48 9.64-23.73l7.2-17.87c3.56-7.51 4.71 3.25 6.11 6.01zm-321.2 41.75 33.47.02-.1-87.63c3.71 1.44 47.03 74.05 48.99 77.21 7.45 10.99 28.55 16.85 33.78 1.45 2.16-6.36.73-151.69.56-157.79l-33.19-.06-.1 87.49c-6.4-2.37-47.25-80.28-56.22-85.48-7-4.06-25.61-3.32-26.49 6.97-2.14 6.65-.77 150.03-.71 157.82zm-33.37 133.45 233.56-.06-.01 266.95H234.17l-.03-266.89zm-33.36-1.05v277.33c-.02 25.5 4.05 24.56 31.66 24.4l233.55-.31c28.26-.63 35.17 3.47 35.46-26.7l-.14-279.15c-.33-31.81-1.44-26.47-34.29-26.89l-230.67-1.43c-35.94.53-35.58-1.86-35.58 32.75zm33.38-332.57 567.17-.01-.02 233.56-567.06-.02-.08-233.54zM200.8 88.38s-1.43 172.09-.08 253.33c.42 25.28 4.9 25.82 42.81 25.82l568.93-.39c10.54-.21 22.12.4 22.3-14.14l-.75-276.77c-2.78-6.15-5.63-8.82-12.81-9.06 0 0-504.18-.36-595.53.77-22.28.27-24.07-.29-24.87 20.45zm500.22 777.27c-.01 12.51-6.12 24.13-19.89 31.21-7.87 4.03-19.69 3.56-26.52.02-16.2-8.32-19.7-21.11-20.19-35.11l.06-110.58 66.75-.05-.22 114.52zm167.24-424.93 33.15-21.1-.03 396.09c-3.96-.03-5.41-2.17-8.93-4.46-.19-.12-.45-.29-.63-.41l-15.2-10.86c-3.19-2.25-4.98-2.91-8.51-5.24l.16-354.02zm-100.25 71.71 66.66-47.04.17 304.63c-8.45-3.34-61.56-40.67-66.88-46.98l.04-210.6zM601.13 748.05c.06 15.43-1.15 130.07.72 135.88 2.84 28.26 34.58 50.78 66.8 50.74 38.55-.05 64.17-23.92 65.75-52.3 1.61-7.98.38-114.92.17-131.17 19.84-.03 122.8 79.11 133.54 86.51l-1.06 80.3c-3.6 35.76-23.89 83.59-94.92 83.39-205.96 0-413.65-3.03-619.41.07 7.9-5.21 14.63-25.79 14.8-37.53.91-64.28-.07-128.66-.07-192.95V524.94c0-163.5 1.4-327.61-.03-491.04h700.64l-1.44 364.55c-37.54 26.02-74.92 52.27-112.51 78.22-16.56 10.72-11.83 7.61-34.11 7.61h-93.83c-49.86-.24-91.76 48.79-91.75 95.92v46.92c0 84.13 15.11 94.09 66.72 120.94zM901.26 861.5c28.15 13.96 33.52 8.68 33.52-23.79 0-146.54-.43-293.1.48-439.63.18-27.99-3.06-39.47-33.79-24.2-.02-114.8.14-229.56.38-344.35C901.9 3.92 900.61.71 870.12.52c-65.29 0-718.2-1.28-725.46.21-11.25 2.31-10.38 12.03-10.73 21.17-.89 23.05.04 66.78.13 78.74-6.72-.11-72.73-.93-106.2-.21-23.44.51-26.67 3.72-27.01 25.22C-.89 236.57.6 885.99.6 956.58c0 41.82 31.55 67.38 67.83 78.15 8.64 1.29 660.51.05 728.71.05 53.86-4.2 99.5-53.8 104.07-96.11 1.5-7.36.24-62.25.05-77.16z"></path></symbol>
<symbol viewBox="0 0 355.55 355.55" id="toggle-sidebar"><path d="M0 0h355.55v23.53H0V0zm223.83 85.39 131.72 92.38-131.72 92.38-15.06-18.75 88.22-61.87H.01V166h296.98l-88.22-61.87 15.06-18.75zM0 249.02h177.78v23.53H0v-23.53zM0 83.01h177.78v23.53H0V83.01zm0 249.02h355.55v23.53H0v-23.53z"></path></symbol>
<symbol viewBox="0 0 401.47 507.2" id="user"><path d="M200.74 331c6.43 0 12.86 4.23 12.86 12.69v34.09h34.09c16.92 0 16.92 25.73 0 25.73H213.6v34.09c0 8.46-6.43 12.69-12.86 12.69s-12.86-4.23-12.86-12.69v-34.09h-34.09c-16.92 0-16.92-25.73 0-25.73h34.09v-34.09c0-8.46 6.43-12.69 12.86-12.69zm0 150.47c-50.16 0-90.83-40.66-90.83-90.83 0-50.38 40.81-90.5 90.83-90.81 50.01.32 90.83 40.44 90.83 90.81 0 50.16-40.66 90.83-90.83 90.83zm0-207.37c-59.45.02-109.08 44.53-115.85 103.68l-58.7.05c5.26-72.88 55.59-135.06 125.83-155.36 15.48 7.13 31.81 10.55 48.71 10.64 16.91-.09 33.23-3.51 48.71-10.64 70.25 20.3 120.58 82.48 125.83 155.36l-58.7-.05c-6.77-59.15-56.4-103.66-115.85-103.68zm0-66.72c-50.25-.3-90.83-40.4-90.83-90.83 0-50.16 40.66-90.83 90.83-90.83 50.16 0 90.83 40.66 90.83 90.83 0 50.42-40.57 90.53-90.83 90.83zm0-207.38C136.37 0 84.19 52.19 84.19 116.55c0 34.06 14.74 66.13 40.5 88.32C49.38 235.73 0 309.1 0 390.64c0 7.1 5.76 12.86 12.86 12.86 24 0 48.01-.05 72.02-.05 6.45 58.97 56.44 103.74 115.86 103.74 59.41 0 109.41-44.77 115.86-103.74 24 0 48.01.05 72.02.05 7.1 0 12.86-5.76 12.86-12.86 0-81.54-49.38-154.91-124.69-185.77 25.76-22.2 40.5-54.26 40.5-88.32C317.29 52.18 265.1 0 200.74 0z"></path></symbol>
<symbol fill-rule="evenodd" viewBox="0 0 453.15 639.72" id="worker"><path d="M396.64 567.34v-34.27c0-13.17 19.91-13.17 19.91 0v34.27c0 13.17-19.91 13.17-19.91 0zM98.18 432.19l57.14-12.14c15.01 28.43 25 39.47 59.85 46.42l-.03 152.61-116.89-.01-.06-186.87zm256.79 0-57.14-12.14c-15.01 28.43-25 39.47-59.85 46.42l.03 152.61 116.89-.01.06-186.87zm77.69 60.63c-3.13-33.65-26.19-54.42-57.54-55.29l.02 181.54 57.74-.01-.22-126.24zM283.73 372.95c-9.82 3.29-27.74 11.12-57.15 11.12s-47.33-7.83-57.15-11.12c.96 97.99 113.35 97.99 114.3 0zm-57.15-9.1c32.15-.83 61.83-11.11 85.28-34.61 32.76-32.85 34.69-63.97 35.06-106.78-80.22.02-160.44.02-240.67 0 .37 42.81 2.3 73.93 35.06 106.78 23.44 23.5 53.13 33.78 85.28 34.61zm144.5-161.56.03-12.09c-96.36.01-192.71.01-289.07 0l.03 12.09h289zm-127.7-32.27.02-150.56h-33.63l.02 150.56h33.59zM249.93.49c8.79.43 11.6 1.55 11.58 10.93l.19 14.73c.46 4.53 2.44 4.77 6.25 5.74 24.29 8.17 46.59 20.17 64.63 38.2 26.76 26.76 40.52 62.7 41.26 99.52 0 0 12.39-.67 15.39 4.48 2.98 8.53 3.25 29.82 2.02 38.25-1.07 10.08-13.99 10.41-24.18 10.09.26 46.49-9.96 76.05-25.23 103.21-15.27 27.16-28.04 29.09-35.75 34.79-7.71 5.69-9.43 40.27 3.34 42.03 35.12 7.23 84.2 14.1 108.5 28.08 24.3 13.98 35.15 38.94 35.22 60.09V628.5c-.76 9.14-6.27 9.14-13.13 9.26-140.6 2.63-286.28 2.63-426.89 0-6.86-.13-12.37-.13-13.13-9.26V490.63c.07-21.15 10.92-46.11 35.22-60.09 24.3-13.98 73.38-20.85 108.5-28.08 12.77-1.76 11.05-36.34 3.34-42.03-7.71-5.69-20.48-7.63-35.75-34.79s-25.49-56.72-25.23-103.21c-10.19.31-23.11-.02-24.18-10.09-1.23-8.43-.96-29.72 2.02-38.25 3-5.14 15.39-4.48 15.39-4.48.74-36.82 14.49-72.76 41.26-99.52 18.04-18.03 40.34-30.03 64.63-38.2 3.81-.97 5.79-1.2 6.25-5.74l.19-14.73c-.02-9.37 2.79-10.5 11.58-10.93 13.21-.65 33.48-.65 46.69 0zm105.11 169.57c2.06-46.74-39.5-114.43-92.82-118.32l-.01 118.28h29.52l-.16-55.19c.48-14.03 17.62-13.54 17.89-.6l1.15 55.78 44.43.03zM20.5 492.82c3.13-33.65 26.19-54.42 57.54-55.29l-.02 181.54-57.74-.01.22-126.24zm77.63-322.76c-2.06-46.74 39.5-114.43 92.82-118.32l.01 118.28h-29.52l.16-55.19c-.48-14.03-17.62-13.54-17.89-.6l-1.15 55.78-44.43.03zm34.03 332.31h48.87c13.17 0 13.17 19.91 0 19.91h-48.87c-13.17 0-13.17-19.91 0-19.91z"></path></symbol>
<symbol viewBox="0 0 1728.82 431.88" id="bottom"><path d="M1512.89 0c119.26 0 215.93 96.68 215.93 215.94 0 119.26-96.68 215.94-215.93 215.94-119.26 0-215.94-96.68-215.94-215.94C1296.95 96.68 1393.63 0 1512.89 0zM864.41 0c119.26 0 215.94 96.68 215.94 215.94 0 119.26-96.68 215.94-215.94 215.94-119.26 0-215.94-96.68-215.94-215.94C648.47 96.68 745.15 0 864.41 0zM215.94 0C335.2 0 431.87 96.68 431.87 215.94c0 119.26-96.68 215.94-215.93 215.94C96.68 431.88 0 335.2 0 215.94 0 96.68 96.68 0 215.94 0z"></path></symbol>
<symbol viewBox="0 0 453.14 542.08" id="cutting"><path d="M78.06 474.33c-6.44 0-11.66-5.22-11.66-11.66s5.22-11.66 11.66-11.66l296.7-.01c6.44 0 11.66 5.22 11.66 11.66s-5.22 11.66-11.66 11.66l-296.7.01zM54.85 0h343.46c30.16 0 54.84 24.68 54.84 54.84v432.39c0 30.16-24.68 54.84-54.84 54.84H54.85c-30.16 0-54.84-24.68-54.84-54.84V54.84C.01 24.68 24.69 0 54.85 0zm343.46 23.41H54.85c-17.24 0-31.43 14.19-31.43 31.43v432.39c0 17.24 14.19 31.43 31.43 31.43h343.46c17.24 0 31.43-14.19 31.43-31.43V54.84c0-17.24-14.19-31.43-31.43-31.43zm-289 324.06 60.04-59v-84.26c-20.14 2.62-38.19 11.9-51.85 25.57-16.26 16.26-26.32 38.73-26.32 63.56 0 20.33 6.75 39.08 18.13 54.14zm83.45-143.26v89.12h-.03c0 3.02-1.16 6.04-3.49 8.32l-63.57 62.47c15.26 11.96 34.49 19.09 55.38 19.09 24.82 0 47.29-10.06 63.55-26.32 16.26-16.26 26.32-38.73 26.32-63.55s-10.06-47.29-26.32-63.56c-13.66-13.66-31.71-22.95-51.85-25.57zm-11.71-24.16c62.57 0 113.29 50.72 113.29 113.29 0 62.57-50.72 113.29-113.29 113.29-62.57 0-113.29-50.72-113.29-113.29 0-62.57 50.72-113.29 113.29-113.29zm146.06 23.25c-15.34 0-15.34-23.32 0-23.32l47.64-.01c15.34 0 15.34 23.32 0 23.32l-47.64.01zm0 67.76c-15.34 0-15.34-23.32 0-23.32l47.64-.01c15.34 0 15.34 23.32 0 23.32l-47.64.01zm0 67.76c-15.34 0-15.34-23.32 0-23.32l47.64-.01c15.34 0 15.34 23.32 0 23.32l-47.64.01zm0 67.76c-15.34 0-15.34-23.32 0-23.32l47.64-.01c15.34 0 15.34 23.32 0 23.32l-47.64.01z"></path></symbol>
<symbol viewBox="0 0 18799.48 18846.77" id="order-generation"><path d="M6242.1 6205.24c0-390.44 697.52-490.27 697.52 36.73 0 424.36-697.52 437.11-697.52-36.73zm7049.66 7086.52c0 600.98 734.47 600.98 734.47 0 0-443.64-734.47-443.64-734.47 0zM3157.78 3231.14c0-102.23 154.76-256.95 256.99-256.95 630.77 0 470.68 660.79 110.18 660.79-321.96 0-367.17-155.03-367.17-403.85zm-771.15 0c0 710.93 461.45 1175.04 954.69 1175.04 385.82 0 664.97 6.17 983.29-338.66C5017.02 3317.33 4391.53 2203 3635.08 2203c-370.81 0-711.64 24.82-961.35 323.82-146.86 175.77-287.1 392.35-287.1 704.31zm7380.23 5140.47c0 346.03 144.9 383.6 523.22 761.96l1487.05 1487.1c316.76 318.98 508.65 358.51 844.73 18.38 217.69-220.31 816.89-740.02 816.89-945.58 0-333.19-218.35-403.98-440.66-403.98-196.33 0-664.79 502.12-771.15 660.93-229.59-154.05-763.69-745.44-1000.43-982.18l-495.73-495.73c-223.64-223.64-326.31-431.43-633.39-431.43-181.58 0-330.53 148.99-330.53 330.53zM4222.59 6829.54l2174.22-3847.52c331.82-553.86-334.22-996.12-685.71-377.47 0 0-2217.08 3903.3-2224.36 3917.46-256.1 497.82 368.01 906.64 735.84 307.53zm9803.59 2166.32c357.09 0 421.43-182.7 706.84-468.15 145.21-145.17 468.15-386.04 468.15-633.44 0-299.13-208.36-367.21-440.66-367.21-189.09 0-555.55 393.28-660.97 550.75l-522.73-505.1c93.75-65.72 480.9-433.91 528.86-518.6 155.07-273.87-52.27-591.87-336.52-591.87-277.02 0-532.72 415.57-734.38 550.75l-469.13-448.79c224.13-341.45 542.62-313.79 542.62-836.25 0-127.05-186.69-284.61-317.87-284.61-294.03 0-400.56 176.74-554.26 330.44-803.21 803.3-831.76 728.87-73.45 1487.18l1340.19 1340.19c122.43 122.43 318.85 394.7 523.31 394.7zm-8445.14 3892.02c0 577.66 497.99 1101.59 991.46 1101.59 1025.87 0 681.09-403.89 1248.09-403.89 92.28 0 257.26 114.4 257.26 367.12 0 204.28-355.09 480.23-561.27 687.08-384.75 386.08 53.87 1064.24 607.55 497.37 576.95-590.67 724.92-598.62 724.92-1368.04 0-239.89-195.66-548.66-324.85-666.61-262.59-239.76-478.94-288.12-850.19-288.12-576.37 0-881.01 644.27-1202.75 321.6-478.1-479.52 615.36-754.09 615.36-1312.93 0-213.87-284.17-627.04-743.93-156.36-360.33 368.9-761.64 633.13-761.64 1221.18zm3745.34-1835.83c246.64 57.55 487.56 272.98 734.2 330.49-58.89 87.75-114 131.71-192.11 211.65-84.38 86.33-92.37 123.5-198.37 148.81l-343.72-690.95zm-1285.26-954.69c0 310.06 611.46 1333.04 783.32 1676.81 141.93 283.81 261.96 523.93 403.89 807.78 212.94 425.83 236.61 673.18 648.76 673.18 235.05 0 330.49-179.41 330.49-403.98 0-117.1-100.67-279.99-146.86-367.12l725.85-706.13c151.39 84.2 321.56 177.5 492.26 128.03 267.96-77.63 504.74-515.4-17.99-769.02-491.33-238.34-2622.3-1390.06-2853.09-1391.35-182.12-.98-366.63 137.89-366.63 351.8zm7710.85-5434.23c0-177.54 116.13-293.67 293.67-293.67 506.79 0 390.61 479.52 263.12 593.51-83.22 74.38-556.79 207.74-556.79-299.84zm-15017.55-3121c0-567.4 240.34-807.74 807.74-807.74h13108.22c114.71 0 1230.91 1167.58 1285.04 1248.31h-3157.64c-896.25 0-688.06-64.75-1165.85 413.04L7710.81 6278.66c0-1215.76-1331.71-1480.08-1938.37-836.74-302.02 320.27-400.16 877.02-190.47 1276.51 222.4 423.7 584.59 625.13 1063.89 625.13l-1468.62 1431.9H1358.58c-484.49 0-624.16-400.3-624.16-844.47V1542.12zM0 991.29v6960.93c9.19 1159.59 330.4 1567.21 1689.02 1594.43h2753.79l-2052.23 2095.58c-479.3 489.42-552.39 1209.94-166.93 1775.84l4945.11 4968.65c828.83 839.8 1603.27 397.99 2276.94-275.69l3323.06-3322.88c340.08-413.4-178.03-935.46-607.1-496.88l-3321.91 3323.95c-543.6 543.69-809.16 546.04-1251.38 106.09L3016.6 13172.76c-586.54-583.61-264.36-815.6 260.54-1340.46 881.99-882.03 8969.42-9076.09 9172.73-9112.55l4589.72-5.15c258.01.36 181.63 14.83 327.82 112.71l-816.4 835.81c-211.34-40.9-542.71-130.56-832.92-25.18-899.4 326.53-912.19 1385.31-435.69 1861.86 373.12 373.12 985.15 405.14 1432.43 126.3 552.13-344.16 513.71-897.44 395.68-1403.52 199.17-133.36 711.82-729.85 796.95-767.28 180.92-79.62 121.06 312.32 120.88 546.93-.98 1350.72 29.13 2947.9 3.06 4262.34-3.51 177.99 9.15 148.59-82.6 247.75-629.93 680.78-1900.49 1894.36-2628.39 2622.26-223.11 223.11-418.46 420.5-642.63 642.54-112.09 111.02-253.44 202.15-244.96 410.46 7.24 178.65 149.79 334.3 300.15 364.72 326.44 65.95 627.4-355.98 789.49-518.02 771.59-771.64 2731.77-2667.6 3277.01-3295.4V3194.39c-5.73-6.57-13.23-16.08-16.61-20.12l-139.18-154.54c-67.99-67.46-87.26-80.16-137.93-155.74 31.66-47.21 254.33-301.53 293.72-330.4v-367.3c-72.96-53.51-168.53-260.36-504.12-174.83-150.1 38.24-250.55 200.15-377.11 284.97-137.49-92.15-215.96-253.79-374.41-286.48-221.15-45.61-395.77 61.33-555.46-68.7C16681.02 1670.92 15607.23 480.16 15054.31.02H991.32C388.88.02 0 405.24 0 991.3z"></path></symbol>
<symbol viewBox="0 0 24 24" id="planning"><path d="M11 15h6v2h-6v-2M9 7H7v2h2V7m2 6h6v-2h-6v2m0-4h6V7h-6v2m-2 2H7v2h2v-2m12-6v14c0 1.1-.9 2-2 2H5c-1.1 0-2-.9-2-2V5c0-1.1.9-2 2-2h14c1.1 0 2 .9 2 2m-2 0H5v14h14V5M9 15H7v2h2v-2z"></path></symbol>
<symbol viewBox="0 0 386.75 347.15" id="quality"><path d="M233.16 22.9c-17.64-30.55-61.86-30.53-79.5.01L6.22 278.25c-8.32 14.41-8.28 31.64.06 46.02 8.3 14.32 23.14 22.89 39.7 22.89h294.85c35.19 0 57.35-38.44 39.76-68.9L233.17 22.92zm129.48 265.73c9.68 16.77-2.46 37.73-21.81 37.73H45.98c-18.9 0-31.94-21.26-21.87-37.64L171.59 33.25c9.65-16.71 33.98-16.66 43.62.03l147.42 255.34zM193.41 248.2c-16.47 0-29.83 13.36-29.83 29.83s13.36 29.83 29.83 29.83 29.83-13.36 29.83-29.83-13.36-29.83-29.83-29.83zm0 20.78c5 0 9.05 4.05 9.05 9.05 0 5-4.05 9.05-9.05 9.05-5 0-9.05-4.05-9.05-9.05 0-5 4.05-9.05 9.05-9.05zm36.96-128.27c.99-10.95-2.2-21.18-10.66-28.48-7.31-6.3-17.21-9.18-26.76-9.06-9.13.12-18.47 3-25.5 8.95-8.56 7.25-11.92 17.45-11.06 28.46l4.93 63.52c3.5 45.06 59.32 44.61 63.36-.28l5.69-63.12zm-26.32 61.32c-1.74 19.35-20.48 20.55-22.04.52l-4.93-63.52c-1.58-20.37 34.48-20.4 32.66-.12l-5.69 63.12z"></path></symbol>
<symbol viewBox="0 0 192.5 176.05" id="smart-box-allocation"><path d="M3.32 0h185.87c1.83 0 3.32 1.48 3.32 3.32v169.42c0 1.83-1.48 3.32-3.32 3.32H3.32c-1.83 0-3.32-1.49-3.32-3.32V3.32C0 1.49 1.49 0 3.32 0zm38.69 112.87h39.74c1.83 0 3.32 1.48 3.32 3.32v13.32c0 1.83-1.48 3.32-3.32 3.32H42.01c-1.83 0-3.32-1.49-3.32-3.32v-13.32c0-1.83 1.48-3.32 3.32-3.32zm36.42 6.63h-33.1v6.69h33.1v-6.69zm2.03-60.34-2.36 2.36c-3.08 3.08-7.77-1.61-4.69-4.69l2.36-2.36a23.124 23.124 0 0 0-10.57-4.38v3.34c0 4.36-6.63 4.36-6.63 0v-3.34c-3.93.56-7.54 2.11-10.57 4.38l2.36 2.36c3.08 3.08-1.61 7.78-4.69 4.69l-2.36-2.36a23.08 23.08 0 0 0-4.38 10.57h3.34c4.36 0 4.36 6.63 0 6.63h-3.34c.56 3.93 2.11 7.54 4.38 10.57l2.36-2.36c3.08-3.08 7.77 1.61 4.69 4.69L48 91.62c3.04 2.27 6.65 3.82 10.57 4.38v-3.34c0-1.83 1.49-3.32 3.32-3.32 1.83 0 3.32 1.49 3.32 3.32V96c3.93-.56 7.54-2.11 10.57-4.38l-2.36-2.36c-3.08-3.08 1.61-7.78 4.69-4.69l2.36 2.36c2.27-3.04 3.82-6.65 4.38-10.57h-3.34c-4.36 0-4.36-6.63 0-6.63h3.34c-.56-3.93-2.11-7.54-4.38-10.57zM32.05 73.05c0-16.47 13.43-29.92 29.92-29.83 16.42 0 29.75 13.44 29.75 29.83 0 16.47-13.36 29.83-29.83 29.83-16.53-.17-29.83-13.22-29.83-29.83zm29.83-11.32c6.25 0 11.32 5.07 11.32 11.32s-5.07 11.32-11.32 11.32c-6.23 0-11.32-5.09-11.32-11.32 0-6.24 5.08-11.32 11.32-11.32zm0 6.63c-2.59 0-4.68 2.08-4.68 4.68 0 2.6 2.08 4.68 4.68 4.68a4.68 4.68 0 1 0 0-9.36zm55.98-8.35h33.1V48.67h-33.1v11.34zm36.42 6.63h-39.74c-1.83 0-3.32-1.48-3.32-3.32V45.34c0-1.83 1.48-3.32 3.32-3.32h39.74c1.83 0 3.32 1.48 3.32 3.32v17.98c0 1.83-1.49 3.32-3.32 3.32zm-39.74 11.39h39.74c1.83 0 3.32 1.48 3.32 3.32v13.32c0 1.83-1.49 3.32-3.32 3.32h-39.74c-1.83 0-3.32-1.49-3.32-3.32V81.35c0-1.83 1.48-3.32 3.32-3.32zm36.42 6.63h-33.1v6.69h33.1v-6.69zm-36.42 24.71h39.74c1.83 0 3.32 1.48 3.32 3.32v17.98c0 1.83-1.49 3.32-3.32 3.32h-39.74c-1.83 0-3.32-1.49-3.32-3.32v-17.98c0-1.83 1.48-3.32 3.32-3.32zm36.42 6.63h-33.1v11.34h33.1V116zM19.53 16.07h153.43c1.83 0 3.32 1.49 3.32 3.32v137.23c0 1.83-1.48 3.32-3.32 3.32H19.53c-1.83 0-3.32-1.48-3.32-3.32V19.39c0-1.83 1.48-3.32 3.32-3.32zm150.11 6.63H22.85v130.6h146.79V22.7zm16.22-16.09H6.63v162.78h179.23V6.61z"></path></symbol>
<symbol viewBox="0 0 1507.18 1507.18" id="stitching"><path d="M428.47 879.39v50.8c0 166.56-253.48 166.56-253.48 0v-50.8c0-166.55 253.48-166.55 253.48 0zm536.96-185.03-56.08 9.91c-3.9-185.6-307.65-185.6-311.54 0l-56.08-9.91c19.61-249.89 404.09-249.89 423.7 0zm162 2.17-52.98 9.36c0-382.32-641.73-382.32-641.73 0l-52.98-9.36c9.4-447.65 738.3-447.65 747.7 0zm379.74-69.52v253.16h-126.58v-52.99h73.59V680c-156.29 0-151.48 10.42-160.21-34.08-23.29-91.25-58.43-151.78-101.78-227.91l108.21-106.68-103.03-104.56-108.94 107.49c-78.67-52.15-119.72-78.31-237.13-102.89-26.93-5.64-24.77 1.08-24.31-25.73.76-44.04.17-88.54.17-132.64H679.98c0 44.1-.59 88.6.17 132.64.46 26.82 2.62 20.1-24.31 25.73-117.41 24.58-158.46 50.74-237.13 102.89L309.77 206.77 206.74 311.33l108.21 106.68c-43.35 76.13-78.49 136.66-101.78 227.91-8.73 44.5-3.92 34.08-160.21 34.08v147.18h73.59v52.99H-.03V627.01h161.91c28.84-60.12 43.91-127.39 82.42-200.17L130.22 311.31 311.27 128.8l114.81 116.26c80.28-44.12 130.19-66.39 200.9-83.15V0h253.16v161.91c70.71 16.76 120.61 39.03 200.9 83.15l114.81-116.26 181.05 182.51-114.08 115.53c38.51 72.78 53.58 140.05 82.42 200.17h161.91zm0 621.12v259.05h-52.99v-214.9c.06-26.68-1.4-42.13-9.74-60.9-13.8-31.05-43.95-59.33-76.1-68.15-36.6-10.03-89.56-6.36-134.94-6.36v350.3h-52.99v-350.3c-42.37 0-97.15-3.03-135.41 5.89 6.38 16.23 10.09 40.81 11.14 70.12 2.66 74.45.64 241.15.64 274.3h-52.99c0-54.02 4.07-271.7-4.75-307.29-9.46-38.16-38.92-69.38-72.97-83.05-37.01-14.86-95.5-10.01-146.01-10.01v400.34h-52.98v-400.34c-50.51 0-109-4.85-146.01 10.01-34.05 13.67-63.51 44.89-72.97 83.05-8.82 35.58-4.75 253.26-4.75 307.29h-52.99c0-33.14-2.02-199.85.64-274.3 1.05-29.31 4.76-53.88 11.14-70.12-38.26-8.91-93.04-5.89-135.41-5.89v350.3h-52.99v-350.3c-45.38 0-98.34-3.67-134.94 6.36-32.15 8.82-62.29 37.1-76.1 68.15-8.35 18.77-9.8 34.22-9.74 60.9v214.9H-.03v-259.05c5.21-73.58 63.32-145.77 179.53-144.28 98.97-.48 276.01-2.2 312.07 11.81 17.77-11.9 38.97-47.68 102.92-58.98 48.98-8.66 269.16-8.66 318.14 0 63.95 11.31 85.15 47.08 102.92 58.98 36.06-14.01 213.1-12.29 312.07-11.81 116.21-1.49 174.32 70.7 179.53 144.28zm-176.62 259.05h52.99v-203.12h-52.99v203.12zm-453.33 0h52.98v-253.16h-52.98v253.16zm-300.26 0h52.98v-253.16h-52.98v253.16zm-453.33 0h52.99v-203.12h-52.99v203.12zm1208.55-628.12v50.8c0 166.56-253.48 166.56-253.48 0v-50.8c0-166.55 253.48-166.55 253.48 0zm-74.99-51.76c-28.59-28.59-74.92-28.59-103.51 0-13.32 13.32-21.59 31.64-21.59 51.76v50.8c0 20.11 8.27 38.44 21.59 51.76 28.59 28.59 74.92 28.59 103.51 0 13.32-13.32 21.58-31.64 21.58-51.76v-50.8c0-20.11-8.26-38.44-21.58-51.76zm-376.53 1.63v50.8c0 166.56-253.49 166.56-253.49 0v-50.8c0-166.55 253.49-166.55 253.49 0zm-74.99-51.76c-28.59-28.59-74.92-28.59-103.51 0-13.32 13.32-21.59 31.64-21.59 51.76v50.8c0 20.11 8.27 38.44 21.59 51.76 28.59 28.59 74.92 28.59 103.51 0 13.32-13.32 21.59-31.64 21.59-51.76v-50.8c0-20.11-8.27-38.44-21.59-51.76zm-452.2 50.46c-28.59-28.59-74.92-28.59-103.51 0-13.32 13.32-21.58 31.64-21.58 51.75v50.8c0 20.11 8.26 38.44 21.58 51.76 28.59 28.59 74.92 28.59 103.51 0 13.32-13.32 21.59-31.64 21.59-51.76v-50.8c0-20.11-8.27-38.44-21.59-51.75z"></path></symbol>
<symbol viewBox="0 0 50 50" id="dark-mode"><path d="M26.448 7.14a1.75 1.75 0 0 1-.117 1.9A11.89 11.89 0 0 0 42.96 25.67a1.75 1.75 0 0 1 2.783 1.568 19.287 19.287 0 1 1-20.98-20.98 1.75 1.75 0 0 1 1.685.883Zm-4.879 3.338a15.789 15.789 0 0 0-6.195 26.148 15.787 15.787 0 0 0 26.148-6.195A15.39 15.39 0 0 1 21.57 10.478Z"></path></symbol>
<symbol viewBox="0 0 50 50" id="light-mode"><path d="M24.5 6.25c.967 0 1.75.784 1.75 1.75v3.182a1.75 1.75 0 1 1-3.5 0V8c0-.966.784-1.75 1.75-1.75Zm-13.615 5.635a1.75 1.75 0 0 1 2.475 0l2.26 2.26a1.75 1.75 0 1 1-2.475 2.474l-2.26-2.259a1.75 1.75 0 0 1 0-2.475Zm27.23 0a1.75 1.75 0 0 1 0 2.475l-2.26 2.26a1.75 1.75 0 1 1-2.474-2.476l2.259-2.259a1.75 1.75 0 0 1 2.475 0ZM24.5 19.295a6.205 6.205 0 1 0 0 12.41 6.205 6.205 0 0 0 0-12.41ZM14.796 25.5c0-5.36 4.344-9.704 9.704-9.704s9.705 4.344 9.705 9.704-4.345 9.705-9.705 9.705-9.704-4.345-9.704-9.705Zm-9.546 0c0-.966.784-1.75 1.75-1.75h3.182a1.75 1.75 0 1 1 0 3.5H7a1.75 1.75 0 0 1-1.75-1.75Zm31.818 0c0-.966.784-1.75 1.75-1.75H42a1.75 1.75 0 1 1 0 3.5h-3.182a1.75 1.75 0 0 1-1.75-1.75ZM15.62 34.38a1.75 1.75 0 0 1 0 2.476l-2.259 2.259a1.75 1.75 0 0 1-2.475-2.475l2.26-2.26a1.75 1.75 0 0 1 2.474 0Zm17.762 0a1.75 1.75 0 0 1 2.475 0l2.259 2.26a1.75 1.75 0 0 1-2.475 2.475l-2.26-2.26a1.75 1.75 0 0 1 0-2.474Zm-8.88 3.688c.966 0 1.75.784 1.75 1.75V43a1.75 1.75 0 1 1-3.5 0v-3.182c0-.966.783-1.75 1.75-1.75Z"></path></symbol>
<symbol viewBox="0 0 24 24" id="sort"><path d="M7 3a1 1 0 0 1 1 1v13.586l2.293-2.293a1 1 0 0 1 1.414 1.414l-4 4a1 1 0 0 1-1.414 0l-4-4a1 1 0 1 1 1.414-1.414L6 17.586V4a1 1 0 0 1 1-1zm9.293.293a1 1 0 0 1 1.414 0l4 4a1 1 0 0 1-1.414 1.414L18 6.414V20a1 1 0 1 1-2 0V6.414l-2.293 2.293a1 1 0 1 1-1.414-1.414l4-4z"></path></symbol>
<symbol viewBox="0 0 50 50" id="system-mode"><path d="M15.1 15.1a1 1 0 0 1 1.415 0L34.9 33.486a1 1 0 0 1-1.415 1.415L15.101 16.515a1 1 0 0 1 0-1.415zM37.466.578c.22.39.19.874-.076 1.234A7.721 7.721 0 0 0 48.188 12.61a1.136 1.136 0 0 1 1.807 1.018A12.523 12.523 0 1 1 36.372.005c.446-.041.874.183 1.094.573zm-3.168 2.167a10.251 10.251 0 1 0 12.957 12.957A9.993 9.993 0 0 1 34.298 2.745zM12.5 25c.628 0 1.136.509 1.136 1.136v2.067a1.136 1.136 0 0 1-2.272 0v-2.067c0-.627.508-1.136 1.136-1.136zm-8.84 3.66a1.136 1.136 0 0 1 1.606 0l1.467 1.466a1.136 1.136 0 0 1-1.607 1.607L3.66 30.266a1.136 1.136 0 0 1 0-1.607zm17.68 0a1.136 1.136 0 0 1 0 1.606l-1.466 1.467a1.136 1.136 0 1 1-1.607-1.607l1.467-1.467a1.136 1.136 0 0 1 1.607 0zm-8.84 4.81a4.029 4.029 0 1 0 0 8.058 4.029 4.029 0 0 0 0-8.058zM6.198 37.5a6.302 6.302 0 1 1 12.604 0 6.302 6.302 0 0 1-12.604 0zM0 37.5c0-.628.509-1.136 1.136-1.136h2.066a1.136 1.136 0 0 1 0 2.272H1.136A1.136 1.136 0 0 1 0 37.5zm20.661 0c0-.628.509-1.136 1.136-1.136h2.067a1.136 1.136 0 0 1 0 2.272h-2.067a1.136 1.136 0 0 1-1.136-1.136zM6.733 43.267a1.136 1.136 0 0 1 0 1.607L5.266 46.34a1.136 1.136 0 1 1-1.607-1.607l1.467-1.467a1.136 1.136 0 0 1 1.607 0zm11.534 0a1.136 1.136 0 0 1 1.607 0l1.467 1.467a1.136 1.136 0 1 1-1.607 1.607l-1.467-1.467a1.136 1.136 0 0 1 0-1.607zM12.5 45.66c.628 0 1.136.509 1.136 1.136v2.067a1.136 1.136 0 0 1-2.272 0v-2.066c0-.628.508-1.137 1.136-1.137z"></path></symbol>
</defs>
</svg>