<?xml version="1.0" encoding="UTF-8"?>
<svg xmlns="http://www.w3.org/2000/svg" xmlns:xlink="http://www.w3.org/1999/xlink" width="0" height="0">
<defs>
<symbol viewBox="0 0 1353.69 1352.81" id="logout"><path d="M949.9 203.29c-74.43-42.77-9.32-156.08 65.11-113.31 209.22 120.79 338.68 344.32 338.68 585.98 0 373.8-303.05 676.85-676.85 676.85S-.01 1049.77-.01 675.96c0-241.72 129.45-465.19 338.68-585.98 74.43-42.77 139.54 70.54 65.11 113.31-168.94 97.53-272.54 277.64-272.54 472.67 0 301.33 244.26 545.59 545.59 545.59 301.33 0 545.59-244.26 545.59-545.59 0-195.05-103.51-375.09-272.54-472.67zM611.22 64.74c0-86.32 131.26-86.32 131.26 0v605.82c0 86.32-131.26 86.32-131.26 0V64.74z"></path></symbol>
<symbol viewBox="0 0 401.47 507.2" id="register"><path d="M200.74 331c6.43 0 12.86 4.23 12.86 12.69v34.09h34.09c16.92 0 16.92 25.73 0 25.73H213.6v34.09c0 8.46-6.43 12.69-12.86 12.69s-12.86-4.23-12.86-12.69v-34.09h-34.09c-16.92 0-16.92-25.73 0-25.73h34.09v-34.09c0-8.46 6.43-12.69 12.86-12.69zm0 150.47c-50.16 0-90.83-40.66-90.83-90.83 0-50.38 40.81-90.5 90.83-90.81 50.01.32 90.83 40.44 90.83 90.81 0 50.16-40.66 90.83-90.83 90.83zm0-207.37c-59.45.02-109.08 44.53-115.85 103.68l-58.7.05c5.26-72.88 55.59-135.06 125.83-155.36 15.48 7.13 31.81 10.55 48.71 10.64 16.91-.09 33.23-3.51 48.71-10.64 70.25 20.3 120.58 82.48 125.83 155.36l-58.7-.05c-6.77-59.15-56.4-103.66-115.85-103.68zm0-66.72c-50.25-.3-90.83-40.4-90.83-90.83 0-50.16 40.66-90.83 90.83-90.83 50.16 0 90.83 40.66 90.83 90.83 0 50.42-40.57 90.53-90.83 90.83zm0-207.38C136.37 0 84.19 52.19 84.19 116.55c0 34.06 14.74 66.13 40.5 88.32C49.38 235.73 0 309.1 0 390.64c0 7.1 5.76 12.86 12.86 12.86 24 0 48.01-.05 72.02-.05 6.45 58.97 56.44 103.74 115.86 103.74 59.41 0 109.41-44.77 115.86-103.74 24 0 48.01.05 72.02.05 7.1 0 12.86-5.76 12.86-12.86 0-81.54-49.38-154.91-124.69-185.77 25.76-22.2 40.5-54.26 40.5-88.32C317.29 52.18 265.1 0 200.74 0z"></path></symbol>
<symbol viewBox="0 0 1728.82 431.88" id="settings"><path d="M1512.89 0c119.26 0 215.93 96.68 215.93 215.94 0 119.26-96.68 215.94-215.93 215.94-119.26 0-215.94-96.68-215.94-215.94C1296.95 96.68 1393.63 0 1512.89 0zM864.41 0c119.26 0 215.94 96.68 215.94 215.94 0 119.26-96.68 215.94-215.94 215.94-119.26 0-215.94-96.68-215.94-215.94C648.47 96.68 745.15 0 864.41 0zM215.94 0C335.2 0 431.87 96.68 431.87 215.94c0 119.26-96.68 215.94-215.93 215.94C96.68 431.88 0 335.2 0 215.94 0 96.68 96.68 0 215.94 0z"></path></symbol>
<symbol viewBox="0 0 355.55 355.55" id="toggle-sidebar"><path d="M0 0h355.55v23.53H0V0zm223.83 85.39 131.72 92.38-131.72 92.38-15.06-18.75 88.22-61.87H.01V166h296.98l-88.22-61.87 15.06-18.75zM0 249.02h177.78v23.53H0v-23.53zM0 83.01h177.78v23.53H0V83.01zm0 249.02h355.55v23.53H0v-23.53z"></path></symbol>
<symbol viewBox="0 0 401.47 507.2" id="user"><path d="M200.74 331c6.43 0 12.86 4.23 12.86 12.69v34.09h34.09c16.92 0 16.92 25.73 0 25.73H213.6v34.09c0 8.46-6.43 12.69-12.86 12.69s-12.86-4.23-12.86-12.69v-34.09h-34.09c-16.92 0-16.92-25.73 0-25.73h34.09v-34.09c0-8.46 6.43-12.69 12.86-12.69zm0 150.47c-50.16 0-90.83-40.66-90.83-90.83 0-50.38 40.81-90.5 90.83-90.81 50.01.32 90.83 40.44 90.83 90.81 0 50.16-40.66 90.83-90.83 90.83zm0-207.37c-59.45.02-109.08 44.53-115.85 103.68l-58.7.05c5.26-72.88 55.59-135.06 125.83-155.36 15.48 7.13 31.81 10.55 48.71 10.64 16.91-.09 33.23-3.51 48.71-10.64 70.25 20.3 120.58 82.48 125.83 155.36l-58.7-.05c-6.77-59.15-56.4-103.66-115.85-103.68zm0-66.72c-50.25-.3-90.83-40.4-90.83-90.83 0-50.16 40.66-90.83 90.83-90.83 50.16 0 90.83 40.66 90.83 90.83 0 50.42-40.57 90.53-90.83 90.83zm0-207.38C136.37 0 84.19 52.19 84.19 116.55c0 34.06 14.74 66.13 40.5 88.32C49.38 235.73 0 309.1 0 390.64c0 7.1 5.76 12.86 12.86 12.86 24 0 48.01-.05 72.02-.05 6.45 58.97 56.44 103.74 115.86 103.74 59.41 0 109.41-44.77 115.86-103.74 24 0 48.01.05 72.02.05 7.1 0 12.86-5.76 12.86-12.86 0-81.54-49.38-154.91-124.69-185.77 25.76-22.2 40.5-54.26 40.5-88.32C317.29 52.18 265.1 0 200.74 0z"></path></symbol>
</defs>
</svg>