<svg xmlns="http://www.w3.org/2000/svg" viewBox="0 0 50 50"><path d="M24.5 6.25c.967 0 1.75.784 1.75 1.75v3.182a1.75 1.75 0 1 1-3.5 0V8c0-.966.784-1.75 1.75-1.75Zm-13.615 5.635a1.75 1.75 0 0 1 2.475 0l2.26 2.26a1.75 1.75 0 1 1-2.475 2.474l-2.26-2.259a1.75 1.75 0 0 1 0-2.475Zm27.23 0a1.75 1.75 0 0 1 0 2.475l-2.26 2.26a1.75 1.75 0 1 1-2.474-2.476l2.259-2.259a1.75 1.75 0 0 1 2.475 0ZM24.5 19.295a6.205 6.205 0 1 0 0 12.41 6.205 6.205 0 0 0 0-12.41ZM14.796 25.5c0-5.36 4.344-9.704 9.704-9.704s9.705 4.344 9.705 9.704-4.345 9.705-9.705 9.705-9.704-4.345-9.704-9.705Zm-9.546 0c0-.966.784-1.75 1.75-1.75h3.182a1.75 1.75 0 1 1 0 3.5H7a1.75 1.75 0 0 1-1.75-1.75Zm31.818 0c0-.966.784-1.75 1.75-1.75H42a1.75 1.75 0 1 1 0 3.5h-3.182a1.75 1.75 0 0 1-1.75-1.75ZM15.62 34.38a1.75 1.75 0 0 1 0 2.476l-2.259 2.259a1.75 1.75 0 0 1-2.475-2.475l2.26-2.26a1.75 1.75 0 0 1 2.474 0Zm17.762 0a1.75 1.75 0 0 1 2.475 0l2.259 2.26a1.75 1.75 0 0 1-2.475 2.475l-2.26-2.26a1.75 1.75 0 0 1 0-2.474Zm-8.88 3.688c.966 0 1.75.784 1.75 1.75V43a1.75 1.75 0 1 1-3.5 0v-3.182c0-.966.783-1.75 1.75-1.75Z"/></svg>