<svg xmlns="http://www.w3.org/2000/svg" viewBox="0 0 50 50"><path d="M15.1 15.1a1 1 0 0 1 1.415 0L34.9 33.486a1 1 0 0 1-1.415 1.415L15.101 16.515a1 1 0 0 1 0-1.415zM37.466.578c.22.39.19.874-.076 1.234A7.721 7.721 0 0 0 48.188 12.61a1.136 1.136 0 0 1 1.807 1.018A12.523 12.523 0 1 1 36.372.005c.446-.041.874.183 1.094.573zm-3.168 2.167a10.251 10.251 0 1 0 12.957 12.957A9.993 9.993 0 0 1 34.298 2.745zM12.5 25c.628 0 1.136.509 1.136 1.136v2.067a1.136 1.136 0 0 1-2.272 0v-2.067c0-.627.508-1.136 1.136-1.136zm-8.84 3.66a1.136 1.136 0 0 1 1.606 0l1.467 1.466a1.136 1.136 0 0 1-1.607 1.607L3.66 30.266a1.136 1.136 0 0 1 0-1.607zm17.68 0a1.136 1.136 0 0 1 0 1.606l-1.466 1.467a1.136 1.136 0 1 1-1.607-1.607l1.467-1.467a1.136 1.136 0 0 1 1.607 0zm-8.84 4.81a4.029 4.029 0 1 0 0 8.058 4.029 4.029 0 0 0 0-8.058zM6.198 37.5a6.302 6.302 0 1 1 12.604 0 6.302 6.302 0 0 1-12.604 0zM0 37.5c0-.628.509-1.136 1.136-1.136h2.066a1.136 1.136 0 0 1 0 2.272H1.136A1.136 1.136 0 0 1 0 37.5zm20.661 0c0-.628.509-1.136 1.136-1.136h2.067a1.136 1.136 0 0 1 0 2.272h-2.067a1.136 1.136 0 0 1-1.136-1.136zM6.733 43.267a1.136 1.136 0 0 1 0 1.607L5.266 46.34a1.136 1.136 0 1 1-1.607-1.607l1.467-1.467a1.136 1.136 0 0 1 1.607 0zm11.534 0a1.136 1.136 0 0 1 1.607 0l1.467 1.467a1.136 1.136 0 1 1-1.607 1.607l-1.467-1.467a1.136 1.136 0 0 1 0-1.607zM12.5 45.66c.628 0 1.136.509 1.136 1.136v2.067a1.136 1.136 0 0 1-2.272 0v-2.066c0-.628.508-1.137 1.136-1.137z"/></svg>