<svg xmlns="http://www.w3.org/2000/svg" viewBox="0 0 18799.48 18846.77"><path d="M6242.1 6205.24c0-390.44 697.52-490.27 697.52 36.73 0 424.36-697.52 437.11-697.52-36.73zm7049.66 7086.52c0 600.98 734.47 600.98 734.47 0 0-443.64-734.47-443.64-734.47 0zM3157.78 3231.14c0-102.23 154.76-256.95 256.99-256.95 630.77 0 470.68 660.79 110.18 660.79-321.96 0-367.17-155.03-367.17-403.85zm-771.15 0c0 710.93 461.45 1175.04 954.69 1175.04 385.82 0 664.97 6.17 983.29-338.66C5017.02 3317.33 4391.53 2203 3635.08 2203c-370.81 0-711.64 24.82-961.35 323.82-146.86 175.77-287.1 392.35-287.1 704.31zm7380.23 5140.47c0 346.03 144.9 383.6 523.22 761.96l1487.05 1487.1c316.76 318.98 508.65 358.51 844.73 18.38 217.69-220.31 816.89-740.02 816.89-945.58 0-333.19-218.35-403.98-440.66-403.98-196.33 0-664.79 502.12-771.15 660.93-229.59-154.05-763.69-745.44-1000.43-982.18l-495.73-495.73c-223.64-223.64-326.31-431.43-633.39-431.43-181.58 0-330.53 148.99-330.53 330.53zM4222.59 6829.54l2174.22-3847.52c331.82-553.86-334.22-996.12-685.71-377.47 0 0-2217.08 3903.3-2224.36 3917.46-256.1 497.82 368.01 906.64 735.84 307.53zm9803.59 2166.32c357.09 0 421.43-182.7 706.84-468.15 145.21-145.17 468.15-386.04 468.15-633.44 0-299.13-208.36-367.21-440.66-367.21-189.09 0-555.55 393.28-660.97 550.75l-522.73-505.1c93.75-65.72 480.9-433.91 528.86-518.6 155.07-273.87-52.27-591.87-336.52-591.87-277.02 0-532.72 415.57-734.38 550.75l-469.13-448.79c224.13-341.45 542.62-313.79 542.62-836.25 0-127.05-186.69-284.61-317.87-284.61-294.03 0-400.56 176.74-554.26 330.44-803.21 803.3-831.76 728.87-73.45 1487.18l1340.19 1340.19c122.43 122.43 318.85 394.7 523.31 394.7zm-8445.14 3892.02c0 577.66 497.99 1101.59 991.46 1101.59 1025.87 0 681.09-403.89 1248.09-403.89 92.28 0 257.26 114.4 257.26 367.12 0 204.28-355.09 480.23-561.27 687.08-384.75 386.08 53.87 1064.24 607.55 497.37 576.95-590.67 724.92-598.62 724.92-1368.04 0-239.89-195.66-548.66-324.85-666.61-262.59-239.76-478.94-288.12-850.19-288.12-576.37 0-881.01 644.27-1202.75 321.6-478.1-479.52 615.36-754.09 615.36-1312.93 0-213.87-284.17-627.04-743.93-156.36-360.33 368.9-761.64 633.13-761.64 1221.18zm3745.34-1835.83c246.64 57.55 487.56 272.98 734.2 330.49-58.89 87.75-114 131.71-192.11 211.65-84.38 86.33-92.37 123.5-198.37 148.81l-343.72-690.95zm-1285.26-954.69c0 310.06 611.46 1333.04 783.32 1676.81 141.93 283.81 261.96 523.93 403.89 807.78 212.94 425.83 236.61 673.18 648.76 673.18 235.05 0 330.49-179.41 330.49-403.98 0-117.1-100.67-279.99-146.86-367.12l725.85-706.13c151.39 84.2 321.56 177.5 492.26 128.03 267.96-77.63 504.74-515.4-17.99-769.02-491.33-238.34-2622.3-1390.06-2853.09-1391.35-182.12-.98-366.63 137.89-366.63 351.8zm7710.85-5434.23c0-177.54 116.13-293.67 293.67-293.67 506.79 0 390.61 479.52 263.12 593.51-83.22 74.38-556.79 207.74-556.79-299.84zm-15017.55-3121c0-567.4 240.34-807.74 807.74-807.74h13108.22c114.71 0 1230.91 1167.58 1285.04 1248.31h-3157.64c-896.25 0-688.06-64.75-1165.85 413.04L7710.81 6278.66c0-1215.76-1331.71-1480.08-1938.37-836.74-302.02 320.27-400.16 877.02-190.47 1276.51 222.4 423.7 584.59 625.13 1063.89 625.13l-1468.62 1431.9H1358.58c-484.49 0-624.16-400.3-624.16-844.47V1542.12zM0 991.29v6960.93c9.19 1159.59 330.4 1567.21 1689.02 1594.43h2753.79l-2052.23 2095.58c-479.3 489.42-552.39 1209.94-166.93 1775.84l4945.11 4968.65c828.83 839.8 1603.27 397.99 2276.94-275.69l3323.06-3322.88c340.08-413.4-178.03-935.46-607.1-496.88l-3321.91 3323.95c-543.6 543.69-809.16 546.04-1251.38 106.09L3016.6 13172.76c-586.54-583.61-264.36-815.6 260.54-1340.46 881.99-882.03 8969.42-9076.09 9172.73-9112.55l4589.72-5.15c258.01.36 181.63 14.83 327.82 112.71l-816.4 835.81c-211.34-40.9-542.71-130.56-832.92-25.18-899.4 326.53-912.19 1385.31-435.69 1861.86 373.12 373.12 985.15 405.14 1432.43 126.3 552.13-344.16 513.71-897.44 395.68-1403.52 199.17-133.36 711.82-729.85 796.95-767.28 180.92-79.62 121.06 312.32 120.88 546.93-.98 1350.72 29.13 2947.9 3.06 4262.34-3.51 177.99 9.15 148.59-82.6 247.75-629.93 680.78-1900.49 1894.36-2628.39 2622.26-223.11 223.11-418.46 420.5-642.63 642.54-112.09 111.02-253.44 202.15-244.96 410.46 7.24 178.65 149.79 334.3 300.15 364.72 326.44 65.95 627.4-355.98 789.49-518.02 771.59-771.64 2731.77-2667.6 3277.01-3295.4V3194.39c-5.73-6.57-13.23-16.08-16.61-20.12l-139.18-154.54c-67.99-67.46-87.26-80.16-137.93-155.74 31.66-47.21 254.33-301.53 293.72-330.4v-367.3c-72.96-53.51-168.53-260.36-504.12-174.83-150.1 38.24-250.55 200.15-377.11 284.97-137.49-92.15-215.96-253.79-374.41-286.48-221.15-45.61-395.77 61.33-555.46-68.7C16681.02 1670.92 15607.23 480.16 15054.31.02H991.32C388.88.02 0 405.24 0 991.3z"/></svg>