<svg xmlns="http://www.w3.org/2000/svg" viewBox="0 0 192.5 176.05"><path d="M3.32 0h185.87c1.83 0 3.32 1.48 3.32 3.32v169.42c0 1.83-1.48 3.32-3.32 3.32H3.32c-1.83 0-3.32-1.49-3.32-3.32V3.32C0 1.49 1.49 0 3.32 0zm38.69 112.87h39.74c1.83 0 3.32 1.48 3.32 3.32v13.32c0 1.83-1.48 3.32-3.32 3.32H42.01c-1.83 0-3.32-1.49-3.32-3.32v-13.32c0-1.83 1.48-3.32 3.32-3.32zm36.42 6.63h-33.1v6.69h33.1v-6.69zm2.03-60.34-2.36 2.36c-3.08 3.08-7.77-1.61-4.69-4.69l2.36-2.36a23.124 23.124 0 0 0-10.57-4.38v3.34c0 4.36-6.63 4.36-6.63 0v-3.34c-3.93.56-7.54 2.11-10.57 4.38l2.36 2.36c3.08 3.08-1.61 7.78-4.69 4.69l-2.36-2.36a23.08 23.08 0 0 0-4.38 10.57h3.34c4.36 0 4.36 6.63 0 6.63h-3.34c.56 3.93 2.11 7.54 4.38 10.57l2.36-2.36c3.08-3.08 7.77 1.61 4.69 4.69L48 91.62c3.04 2.27 6.65 3.82 10.57 4.38v-3.34c0-1.83 1.49-3.32 3.32-3.32 1.83 0 3.32 1.49 3.32 3.32V96c3.93-.56 7.54-2.11 10.57-4.38l-2.36-2.36c-3.08-3.08 1.61-7.78 4.69-4.69l2.36 2.36c2.27-3.04 3.82-6.65 4.38-10.57h-3.34c-4.36 0-4.36-6.63 0-6.63h3.34c-.56-3.93-2.11-7.54-4.38-10.57zM32.05 73.05c0-16.47 13.43-29.92 29.92-29.83 16.42 0 29.75 13.44 29.75 29.83 0 16.47-13.36 29.83-29.83 29.83-16.53-.17-29.83-13.22-29.83-29.83zm29.83-11.32c6.25 0 11.32 5.07 11.32 11.32s-5.07 11.32-11.32 11.32c-6.23 0-11.32-5.09-11.32-11.32 0-6.24 5.08-11.32 11.32-11.32zm0 6.63c-2.59 0-4.68 2.08-4.68 4.68 0 2.6 2.08 4.68 4.68 4.68a4.68 4.68 0 1 0 0-9.36zm55.98-8.35h33.1V48.67h-33.1v11.34zm36.42 6.63h-39.74c-1.83 0-3.32-1.48-3.32-3.32V45.34c0-1.83 1.48-3.32 3.32-3.32h39.74c1.83 0 3.32 1.48 3.32 3.32v17.98c0 1.83-1.49 3.32-3.32 3.32zm-39.74 11.39h39.74c1.83 0 3.32 1.48 3.32 3.32v13.32c0 1.83-1.49 3.32-3.32 3.32h-39.74c-1.83 0-3.32-1.49-3.32-3.32V81.35c0-1.83 1.48-3.32 3.32-3.32zm36.42 6.63h-33.1v6.69h33.1v-6.69zm-36.42 24.71h39.74c1.83 0 3.32 1.48 3.32 3.32v17.98c0 1.83-1.49 3.32-3.32 3.32h-39.74c-1.83 0-3.32-1.49-3.32-3.32v-17.98c0-1.83 1.48-3.32 3.32-3.32zm36.42 6.63h-33.1v11.34h33.1V116zM19.53 16.07h153.43c1.83 0 3.32 1.49 3.32 3.32v137.23c0 1.83-1.48 3.32-3.32 3.32H19.53c-1.83 0-3.32-1.48-3.32-3.32V19.39c0-1.83 1.48-3.32 3.32-3.32zm150.11 6.63H22.85v130.6h146.79V22.7zm16.22-16.09H6.63v162.78h179.23V6.61z"/></svg>