<svg xmlns="http://www.w3.org/2000/svg" viewBox="0 0 196.7 179.78"><path d="M2.73 0h191.24c1.51 0 2.73 1.22 2.73 2.73v174.32c0 1.51-1.22 2.73-2.73 2.73H2.73c-1.51 0-2.73-1.22-2.73-2.73V2.73C0 1.22 1.22 0 2.73 0zM126.8 134.79c0 3.95 3.2 7.15 7.15 7.15s7.15-3.2 7.15-7.15-3.2-7.15-7.15-7.15c-4.01 0-7.15 3.24-7.15 7.15zM109.55 98.4c2.3 29.51 46.51 29.51 48.81 0a.767.767 0 0 0-.77-.83h-4.56c-.4 0-.73.3-.77.7-2.13 21.69-34.49 21.69-36.61 0-.04-.4-.37-.7-.77-.7h-4.56c-.45 0-.8.38-.77.83zm21.36-38.67v22.44c0 .42-.35.77-.77.77h-10.62c-.69 0-1.03.83-.54 1.32l14.43 14.43c.3.3.79.3 1.09 0l14.43-14.43c.49-.49.14-1.32-.54-1.32h-10.62c-.42 0-.77-.35-.77-.77V59.73c0-.42-.35-.77-.77-.77h-4.54c-.42 0-.77.35-.77.77zm-4.11-14.76c0 3.95 3.2 7.15 7.15 7.15s7.15-3.2 7.15-7.15-3.2-7.15-7.15-7.15c-4.01 0-7.15 3.24-7.15 7.15zm-84.26 71.15h40.89c1.51 0 2.73 1.22 2.73 2.73v13.71c0 1.51-1.22 2.73-2.73 2.73H42.54c-1.51 0-2.73-1.22-2.73-2.73v-13.71c0-1.51 1.22-2.73 2.73-2.73zm38.16 5.46H45.27v8.25H80.7v-8.25zm1.47-62.44-2.98 2.98a2.722 2.722 0 0 1-3.86 0 2.722 2.722 0 0 1 0-3.86l2.98-2.98a24.525 24.525 0 0 0-12.59-5.22v4.21c0 1.51-1.22 2.73-2.73 2.73s-2.73-1.22-2.73-2.73v-4.21c-4.73.52-9.06 2.39-12.59 5.22l2.98 2.98a2.722 2.722 0 0 1 0 3.86 2.722 2.722 0 0 1-3.86 0l-2.98-2.98a24.525 24.525 0 0 0-5.22 12.59h4.21c1.51 0 2.73 1.22 2.73 2.73s-1.22 2.73-2.73 2.73h-4.21c.52 4.73 2.39 9.06 5.22 12.59l2.98-2.98a2.722 2.722 0 0 1 3.86 0 2.722 2.722 0 0 1 0 3.86l-2.98 2.98c3.53 2.82 7.86 4.69 12.59 5.22v-4.21c0-1.51 1.22-2.73 2.73-2.73s2.73 1.22 2.73 2.73v4.21c4.73-.52 9.06-2.39 12.59-5.22l-2.98-2.98a2.722 2.722 0 0 1 0-3.86 2.722 2.722 0 0 1 3.86 0l2.98 2.98c2.82-3.53 4.69-7.86 5.22-12.59h-4.21c-1.51 0-2.73-1.22-2.73-2.73s1.22-2.73 2.73-2.73h4.21C86.87 67 85 62.67 82.17 59.14zM62.99 63.5c3.03 0 5.77 1.23 7.75 3.21 1.98 1.98 3.21 4.72 3.21 7.75 0 3.02-1.23 5.76-3.21 7.74l-.01.01.01.01a10.928 10.928 0 0 1-7.75 3.21c-3.03 0-5.77-1.23-7.75-3.21a10.928 10.928 0 0 1-3.21-7.75c0-3.03 1.23-5.77 3.21-7.75l.17-.16a10.93 10.93 0 0 1 7.58-3.05zm3.89 7.07a5.495 5.495 0 0 0-3.89-1.61c-1.47 0-2.8.57-3.78 1.49l-.11.12c-.99.99-1.61 2.37-1.61 3.89s.62 2.89 1.61 3.89c.99.99 2.37 1.61 3.89 1.61s2.89-.62 3.89-1.61l.01.01c.99-.99 1.61-2.37 1.61-3.89s-.62-2.89-1.61-3.89zm-3.89-26.12c8.26 0 15.74 3.34 21.17 8.74l.05.05.05.05C89.66 58.72 93 66.2 93 74.46c0 8.29-3.36 15.79-8.79 21.22s-12.93 8.79-21.22 8.79c-8.26 0-15.74-3.34-21.17-8.74l-.05-.05-.05-.05c-5.4-5.43-8.74-12.91-8.74-21.17 0-8.26 3.34-15.74 8.74-21.17l.05-.05.05-.05c5.43-5.4 12.91-8.74 21.17-8.74zM19.43 16.54H177.3c1.51 0 2.73 1.22 2.73 2.73v141.2c0 1.51-1.22 2.73-2.73 2.73H19.43c-1.51 0-2.73-1.22-2.73-2.73V19.27c0-1.51 1.22-2.73 2.73-2.73zM174.57 22H22.16v135.74h152.41V22zm16.69-16.56H5.48V174.3h185.78V5.44z"/></svg>