<svg xmlns="http://www.w3.org/2000/svg" viewBox="0 0 453.14 542.08"><path d="M78.06 474.33c-6.44 0-11.66-5.22-11.66-11.66s5.22-11.66 11.66-11.66l296.7-.01c6.44 0 11.66 5.22 11.66 11.66s-5.22 11.66-11.66 11.66l-296.7.01zM54.85 0h343.46c30.16 0 54.84 24.68 54.84 54.84v432.39c0 30.16-24.68 54.84-54.84 54.84H54.85c-30.16 0-54.84-24.68-54.84-54.84V54.84C.01 24.68 24.69 0 54.85 0zm343.46 23.41H54.85c-17.24 0-31.43 14.19-31.43 31.43v432.39c0 17.24 14.19 31.43 31.43 31.43h343.46c17.24 0 31.43-14.19 31.43-31.43V54.84c0-17.24-14.19-31.43-31.43-31.43zm-289 324.06 60.04-59v-84.26c-20.14 2.62-38.19 11.9-51.85 25.57-16.26 16.26-26.32 38.73-26.32 63.56 0 20.33 6.75 39.08 18.13 54.14zm83.45-143.26v89.12h-.03c0 3.02-1.16 6.04-3.49 8.32l-63.57 62.47c15.26 11.96 34.49 19.09 55.38 19.09 24.82 0 47.29-10.06 63.55-26.32 16.26-16.26 26.32-38.73 26.32-63.55s-10.06-47.29-26.32-63.56c-13.66-13.66-31.71-22.95-51.85-25.57zm-11.71-24.16c62.57 0 113.29 50.72 113.29 113.29 0 62.57-50.72 113.29-113.29 113.29-62.57 0-113.29-50.72-113.29-113.29 0-62.57 50.72-113.29 113.29-113.29zm146.06 23.25c-15.34 0-15.34-23.32 0-23.32l47.64-.01c15.34 0 15.34 23.32 0 23.32l-47.64.01zm0 67.76c-15.34 0-15.34-23.32 0-23.32l47.64-.01c15.34 0 15.34 23.32 0 23.32l-47.64.01zm0 67.76c-15.34 0-15.34-23.32 0-23.32l47.64-.01c15.34 0 15.34 23.32 0 23.32l-47.64.01zm0 67.76c-15.34 0-15.34-23.32 0-23.32l47.64-.01c15.34 0 15.34 23.32 0 23.32l-47.64.01z"/></svg>