<svg xmlns="http://www.w3.org/2000/svg" viewBox="0 0 668.81 800.07"><path d="M668.81 80.94C668.81 36.42 632.39 0 587.87 0H80.95C36.43 0 .01 36.42.01 80.94v638.18c0 44.52 36.42 80.94 80.94 80.94h506.92c44.52 0 80.94-36.42 80.94-80.94V80.94zM115.7 709.62l437.91-.01c9.5 0 17.21-7.7 17.21-17.21 0-9.5-7.7-17.21-17.21-17.21l-437.91.01c-9.5 0-17.21 7.7-17.21 17.21 0 9.5 7.7 17.21 17.21 17.21zm0-86.95 437.91-.01c9.5 0 17.21-7.7 17.21-17.21 0-9.5-7.7-17.21-17.21-17.21l-437.91.01c-9.5 0-17.21 7.7-17.21 17.21 0 9.5 7.7 17.21 17.21 17.21zm0-488.26 437.91-.01c9.5 0 17.21-7.7 17.21-17.21 0-9.5-7.7-17.21-17.21-17.21l-437.91.01c-9.5 0-17.21 7.7-17.21 17.21 0 9.5 7.7 17.21 17.21 17.21zm0 100 70.32-.01c22.63 0 22.63-34.42 0-34.42l-70.32.01c-22.63 0-22.63 34.42 0 34.42zm0 100.01 70.32-.01c22.63 0 22.63-34.41 0-34.41l-70.32.01c-22.63 0-22.63 34.41 0 34.41zm0 100.01 70.32-.01c22.63 0 22.63-34.42 0-34.42l-70.32.01c-22.63 0-22.63 34.42 0 34.42zm70.32 100c22.63 0 22.63-34.42 0-34.42l-70.32.01c-22.63 0-22.63 34.41 0 34.41l70.32-.01zM495.4 273.32c-20.17-20.17-46.8-33.87-76.53-37.73v124.36l88.62 87.09c16.8-22.22 26.76-49.9 26.76-79.91 0-36.64-14.85-69.8-38.85-93.8zm73.4 93.8c0 92.34-74.86 167.2-167.2 167.2-92.34 0-167.2-74.86-167.2-167.2 0-92.34 74.86-167.2 167.2-167.2 92.34 0 167.2 74.86 167.2 167.2zM483.34 471.6l-93.82-92.2a17.173 17.173 0 0 1-5.15-12.28h-.05V235.58c-29.73 3.87-56.36 17.57-76.53 37.73-24 24-38.85 57.17-38.85 93.8 0 36.63 14.85 69.8 38.85 93.8s57.17 38.85 93.8 38.85c30.84 0 59.22-10.52 81.74-28.17zM634.26 80.93v638.18c0 25.45-20.95 46.39-46.39 46.39H80.95c-25.45 0-46.39-20.95-46.39-46.39V80.93c0-25.45 20.95-46.39 46.39-46.39h506.92c25.45 0 46.39 20.95 46.39 46.39z"/></svg>