<svg xmlns="http://www.w3.org/2000/svg" viewBox="0 0 386.75 347.15"><path d="M233.16 22.9c-17.64-30.55-61.86-30.53-79.5.01L6.22 278.25c-8.32 14.41-8.28 31.64.06 46.02 8.3 14.32 23.14 22.89 39.7 22.89h294.85c35.19 0 57.35-38.44 39.76-68.9L233.17 22.92zm129.48 265.73c9.68 16.77-2.46 37.73-21.81 37.73H45.98c-18.9 0-31.94-21.26-21.87-37.64L171.59 33.25c9.65-16.71 33.98-16.66 43.62.03l147.42 255.34zM193.41 248.2c-16.47 0-29.83 13.36-29.83 29.83s13.36 29.83 29.83 29.83 29.83-13.36 29.83-29.83-13.36-29.83-29.83-29.83zm0 20.78c5 0 9.05 4.05 9.05 9.05 0 5-4.05 9.05-9.05 9.05-5 0-9.05-4.05-9.05-9.05 0-5 4.05-9.05 9.05-9.05zm36.96-128.27c.99-10.95-2.2-21.18-10.66-28.48-7.31-6.3-17.21-9.18-26.76-9.06-9.13.12-18.47 3-25.5 8.95-8.56 7.25-11.92 17.45-11.06 28.46l4.93 63.52c3.5 45.06 59.32 44.61 63.36-.28l5.69-63.12zm-26.32 61.32c-1.74 19.35-20.48 20.55-22.04.52l-4.93-63.52c-1.58-20.37 34.48-20.4 32.66-.12l-5.69 63.12z"/></svg>