<svg xmlns="http://www.w3.org/2000/svg" viewBox="0 0 40917.21 42175.13"><path d="M26106.85 13037.26h2169.29-2169.29zm-.26 16098.06h2169.55-2169.55zm347.08-23688.64c-382.14-153.77-743.1-281.79-1057.84-366.5-220.9-59.05-383.19-228.02-443.65-432.4l-1199.75-3205.87c-881.49-119.41-1771.33-179.16-2661.09-179.6-884.04-.44-1775.46 59.49-2666.1 179.43l-1217.15 3252.18c-74.07 199.02-237.95 338.47-428.53 389.52l.35 1.49c-1357.56 366.59-2738.76 992.91-3978.58 1651.48-196.65 104.48-423.52 94.72-604.8-5.8L9081.69 5312.33C7668.59 6390.3 6392.84 7666.05 5314.87 9079.15L6753.8 12239.5c91.47 200.25 69.5 423.35-38.93 597.15-710.41 1240.35-1254.23 2561-1627.23 3940.71-59.05 220.9-228.02 383.19-432.4 443.65l-3210.88 1201.68c-118.18 880.88-177.23 1771.77-177.23 2663.55 0 891.77 59.05 1782.67 177.23 2663.55l3247.34 1215.39c184.26 68.63 317.47 214.22 376.69 386.71l1.93-.62c2.72 8 955.04 2794.91 1654.82 4008.28 105.35 183.38 108.34 397.6 26.8 576.5l.44.18-1437.52 3157.1c537.84 705.05 1125.42 1376.28 1757.98 2008.84s1303.79 1220.14 2008.84 1757.98l3157.1-1437.52c190.5-86.99 401.73-71.35 571.41 23.81 210.18 109.31 2338.61 1206.34 3971.55 1645.86 220.9 59.05 383.19 228.02 443.65 432.4l1199.84 3205.96c880.88 118.18 1771.77 177.23 2663.55 177.23 891.77 0 1782.67-59.05 2663.55-177.23l1215.39-3247.34c74.07-199.02 237.95-338.38 428.53-389.52l-.44-1.49c347.96-93.67 710.59-211.15 1078.23-345.32l-1390.43-1408.79c-75.3-76.53-127.06-167.48-155.53-263.69-1222.86 335.13-2510.04 514.73-3839.31 514.73-8009.62 0-14502.99-6493.37-14502.99-14502.99 0-7980.36 6482.3-14502.9 14502.99-14502.9 1329.44 0 2616.89 179.6 3839.93 514.82 29.79-100.61 83.83-190.59 155.44-263.34l1369.51-1388.14zm5557.92 3906.71c2063.32 0 3736.15 1672.92 3736.15 3736.15s-1672.83 3736.15-3736.15 3736.15c-2063.23 0-3736.15-1672.92-3736.15-3736.15 0-17.49.44-34.88.7-52.28v-4.39c30.49-2007.87 1673.8-3679.48 3735.45-3679.48zm-2469.01 3736.15c0 1363.71 1105.29 2469.01 2469.01 2469.01 1363.71 0 2469.01-1105.29 2469.01-2469.01 0-1363.71-1105.29-2469.01-2469.01-2469.01-1385.24 0-2469.01 1119.18-2469.01 2469.01zM35815.57 477.56c2063.23 0 3736.15 1672.83 3736.15 3736.15 0 2063.23-1672.92 3736.15-3736.15 3736.15-1820.63 0-3336.97-1302.65-3668.58-3026.53h-3401.9l-2582.53 2616.63-55.71 5478.58-.09 8.79.09 9.93c.09 102.19-24.69 205.88-76.97 301.91l-2686.3 4928.96c787.21 684.93 1284.98 1694.1 1284.98 2819.43 0 1124.89-497.33 2133.61-1284.02 2818.63l2685.34 4927.12c46.13 84.62 73.55 181.01 76.45 283.55l.26 13.44v5.01l55.97 5497.29 2582.53 2616.63h3402.87c331.79-1704.73 1834.25-3026.62 3667.62-3026.62 2063.23 0 3736.15 1672.92 3736.15 3736.15 0 2063.32-1672.92 3736.15-3736.15 3736.15-1873.79 0-3425.45-1379.71-3694.68-3178.54h-3638.18c-193.31 0-366.41-86.64-482.66-223.27l-555.59-562.97c-473.7 188.92-948.1 358.24-1406.51 495.14l-1217.06 3251.82c-65.81 231.71-261.58 415.35-515.26 453.49-1064.08 163-2141.08 244.54-3216.85 244.54s-2152.77-81.54-3216.85-244.54l.35-1.93c-219.49-33.13-414.83-181.27-497.77-404.02l-1235.25-3300.42c-1400.88-425.46-3017.92-1207.48-3653.47-1526.71l-3190.49 1452.72c-206.84 108.08-465.96 97.01-666.92-50.35-874.9-641.7-1694.36-1344.73-2451.43-2101.81-757.07-757.07-1460.02-1576.62-2101.81-2451.43l.62-.44c-130.48-178.46-163.35-420.27-65.02-635.64l1462.48-3211.67c-592.58-1136.75-1256.95-2960.89-1502.63-3655.75L697.95 24818.34c-231.62-65.81-415.35-261.58-453.49-515.26C81.46 23239.08.01 22162 .01 21086.23s81.45-2152.86 244.45-3216.85l1.93.35c33.13-219.49 181.27-414.83 404.02-497.77l3302.88-1236.13c369.4-1273.3 879.3-2502.57 1519.24-3663.66L4024.81 9292.75c-108.08-206.84-97.01-465.96 50.35-666.92C5355.22 6880.94 6883.51 5352.57 8628.4 4072.59l.44.62c178.46-130.48 420.27-163.35 635.64-64.93l3218.35 1465.38c1154.68-595.48 2408.91-1149.23 3655.05-1521.52L17356.7 695.48c65.81-231.71 261.58-415.44 515.26-453.58C18927.26 80.31 20004.7-.44 21091.36.09c1071.46.44 2143.1 81.98 3202.27 244.8 224.68 29.26 425.98 178.72 510.6 405.78l1235.16 3300.5c420.19 133.65 889.66 318.17 1370.13 526.77l622.81-631.24c123.63-125.74 286.98-188.74 450.41-188.74l3638.62-1.67c269.58-1777.57 1806.66-3178.72 3694.24-3178.72zm-2469.01 3736.15c0 1363.71 1105.29 2468.92 2469.01 2468.92 1363.71 0 2468.92-1105.21 2468.92-2468.92S37179.28 1744.7 35815.57 1744.7c-1385.33 0-2469.01 1119.09-2469.01 2469.01zm-1334.98 21133.08c2063.32 0 3736.15 1672.92 3736.15 3736.15s-1672.83 3736.15-3736.15 3736.15c-2045.75 0-3707.42-1644.72-3735.45-3683.78l-.09-3.25c-.26-16.34-.62-32.69-.62-49.12 0-2033.01 1655.08-3736.15 3736.15-3736.15zm-2469.01 3736.15c0 1363.71 1105.29 2469.01 2469.01 2469.01 1363.71 0 2469.01-1105.29 2469.01-2469.01 0-1363.71-1105.29-2469.01-2469.01-2469.01-1385.24 0-2469.01 1119.18-2469.01 2469.01zm3803.99 8875.82c0 1363.8 1105.29 2469.01 2469.01 2469.01 1363.71 0 2468.92-1105.21 2468.92-2469.01 0-1363.71-1105.21-2468.92-2468.92-2468.92-1385.33 0-2469.01 1119.09-2469.01 2468.92zM20892.39 17351.4c484.07 0 946.78 92.17 1371.36 259.74l2582.18-4738.03 45.34-4454.12c-1204.32-361.23-2480.61-555.85-3802.49-555.85-7320.21 0-13223.1 5940.41-13223.1 13223.1 0 7303.07 5920.03 13223.1 13223.1 13223.1 1321.89 0 2598.17-194.63 3802.49-555.85l-45.34-4454.12-2581.04-4735.92c-424.93 168-888 260.27-1372.5 260.27-2063.32 0-3736.15-1672.92-3736.15-3736.15 0-2033.01 1655.08-3736.15 3736.15-3736.15zm-2469.01 3736.15c0 1363.71 1105.21 2469.01 2469.01 2469.01 1363.71 0 2468.92-1105.29 2468.92-2469.01 0-1363.71-1105.21-2469.01-2468.92-2469.01-1385.33 0-2469.01 1119.09-2469.01 2469.01zm18757.65-3736.15c2063.32 0 3736.15 1672.92 3736.15 3736.15s-1672.83 3736.15-3736.15 3736.15c-2063.23 0-3736.15-1672.92-3736.15-3736.15 0-2033.01 1655.17-3736.15 3736.15-3736.15zm-2468.92 3736.15c0 1363.71 1105.21 2469.01 2468.92 2469.01 1363.8 0 2469.01-1105.29 2469.01-2469.01 0-1363.71-1105.21-2469.01-2469.01-2469.01-1385.24 0-2468.92 1119.09-2468.92 2469.01zm-24259.95-1300.01c-42.35 347.25-358.15 594.34-705.32 551.99-347.17-42.44-594.25-358.24-551.9-705.41 172.4-1412.57 595.13-2773.82 1237.8-4024.54 641.44-1248.17 1501.84-2383.51 2550.99-3347.07 256.93-236.45 656.99-219.85 893.44 37.17 236.45 256.93 219.85 656.99-37.17 893.44-939.66 863.04-1709.83 1879.15-2283.61 2995.6-572.37 1113.9-949.5 2331.05-1104.24 3598.82z"/></svg>