<svg xmlns="http://www.w3.org/2000/svg" viewBox="0 0 18799.48 11991.22"><path d="M4075.69 8828.92h9693.46v1872.6H4075.69v-1872.6zm799.61 1260.44h724.07c447.9 0 447.9-660.93 0-660.93H4875.3c-413.17 0-413.17 660.93 0 660.93zm2028.65 0h5948.25c447.94 0 447.94-660.93 0-660.93H6903.95c-413.17 0-413.17 660.93 0 660.93zm916.94-3757.24h1248.4c447.9 0 447.9-660.88 0-660.88h-1248.4c-413.22 0-413.22 660.88 0 660.88zm-3745.21 954.69h2092.91c182.7 0 71.81 293.72 403.89 293.72h3781.89c189.31 0 289.45-100.27 293.76-293.72h3121v881.24H4075.67v-881.24zm10354.38 0h3671.75l-480.36 3632.05c-15.76 178.88-130.6 406.87-275.82 406.87h-2915.57V7286.81zm-11015.31 0v4038.92H1468.7c-140.33 0-263.16-132.87-293.72-440.57-64.08-596.85-470.73-3301.7-477.34-3598.35h2717.11zm3488.17-2203.09h3121V6919.6h-3121V5083.72zm3781.93 293.76h7453.69v1248.4h-7453.69v-1248.4zm-6609.18 0h2166.32v1248.4H4075.67v-1248.4zm10354.38-4369.41h3084.28v3708.48h-3084.28V1008.07zm-6572.49 1872.6h1211.72v1542.16H7857.56V2880.67zM660.91 677.58h3708.48v2496.8H1542.15c-383.29 0-456.16 660.93 110.18 660.93h1762.43v2790.56H660.92V677.58zm4369.41 330.49h587.48v1835.88h-587.48V1008.07zm7820.85 514.02c279.33-65.06 680.69-310.68 917.96-330.44v1505.44c-137.49-72.74-305.79-129.72-466.77-194.15-140.6-56.27-317.52-141.88-451.19-173.01V1522.1zM-.02 457.32v6792.76s463.67 3330.7 570.69 4129.2c68.08 524.59 883.72 607.37 1742.53 607.37 638.5 0 1753.28 98.99 1762.47-624.2h9693.46c32.73 393.46 281.77 580.77 665.28 619.8l2565.86 4.4c1108.78-18.34 1156.79-137.62 1319.77-1287.17 79.14-558.25 479.43-3449.4 479.43-3449.4V5157.17c-168.53-337.9-339.06-386.17-624.2-440.62v-2900.7c0-1451.35 102.72-1468.71-1432.03-1468.71-561.32 0-2491.79-75.32-2851.94 48.72-360.46 124.17-706.36 288.21-1045.37 423.34-388.75 154.98-643.92 249.53-655.69 776.34-9.68 873.06-88.15 1150.17 597.91 1421.59l980.98 377.6v1321.81h-3121c-8.79-394.43-436.71-293.72-917.96-293.72 0-588.1 2.75-1176.64 2.09-1764.56-.36-334.17-112.93-434.36-440.88-440.35l-1727.48 1.87c-315.16-16.12-371.87 188.33-368.37 476.14 6.97 574.33 1.15 1152.13 1.15 1726.9-187.89 0-445.86-15.28-624.91-.71-247.8 20.12-249.84 127.85-329.77 294.43H4075.68V3835.3c456.16 0 919.12 96.72 954.64-330.44 520.6 0 954.73 76.03 1152.21-279.82 126.79-230.35 108.8-1297.92 108.8-1297.92 0-1212.43 76.43-1580-1261.01-1580-36.73-294.43-653.16-330.44-1138.23-330.44-552.84 0-3217.68-72.12-3551.36 83.66C96.75 214.2 115.18 324.78-.01 457.29z"/></svg>