<svg xmlns="http://www.w3.org/2000/svg" fill-rule="evenodd" viewBox="0 0 3299.49 3167.37"><path d="M2586.5 781.88v621.73h-343.46l422.32 422.33 422.33-422.33h-343.47V781.88h-157.71zm-599.82-372.83c-28.7-11.55-55.81-21.16-79.44-27.52-16.59-4.43-28.78-17.12-33.32-32.47l-90.1-240.76c-66.2-8.97-133.03-13.46-199.85-13.49-66.39-.03-133.34 4.47-200.22 13.48l-91.41 244.24c-5.56 14.95-17.87 25.42-32.18 29.25l.03.11c-101.95 27.53-205.68 74.57-298.79 124.03-14.77 7.85-31.81 7.11-45.42-.44L682.05 398.97c-106.12 80.96-201.93 176.77-282.89 282.89L507.22 919.2c6.87 15.04 5.22 31.79-2.92 44.85-53.35 93.15-94.19 192.33-122.21 295.95-4.43 16.59-17.12 28.78-32.47 33.32l-241.14 90.25c-8.88 66.15-13.31 133.06-13.31 200.03s4.43 133.88 13.31 200.03l243.88 91.28c13.84 5.15 23.84 16.09 28.29 29.04l.15-.05c.2.6 71.72 209.9 124.28 301.02 7.91 13.77 8.14 29.86 2.01 43.3l.03.01-107.96 237.1c40.39 52.95 84.52 103.36 132.02 150.86 47.51 47.51 97.92 91.63 150.86 132.02l237.1-107.96c14.31-6.53 30.17-5.36 42.91 1.79 15.78 8.21 175.63 90.6 298.27 123.6 16.59 4.43 28.78 17.12 33.32 32.47l90.11 240.77c66.15 8.88 133.06 13.31 200.03 13.31s133.88-4.43 200.03-13.31l91.28-243.88c1.6-4.3 32.16-29.33 32.15-29.37 26.13-7.03 53.37-15.86 80.98-25.93l-104.42-105.8a47.313 47.313 0 0 1-11.68-19.8c-91.84 25.17-188.51 38.66-288.33 38.66-601.53 0-1089.18-487.65-1089.18-1089.18 0-599.33 486.82-1089.17 1089.18-1089.17 99.84 0 196.53 13.49 288.38 38.66 2.24-7.56 6.3-14.31 11.67-19.78l102.85-104.25zm703.08-373.18c154.95 0 280.59 125.63 280.59 280.59 0 154.95-125.64 280.59-280.59 280.59-136.73 0-250.61-97.83-275.51-227.29h-255.48l-193.95 196.51-4.18 412.85a47.13 47.13 0 0 1-5.78 22.67l-201.74 370.17c59.12 51.44 96.5 127.23 96.5 211.74 0 84.48-37.35 160.24-96.43 211.68l201.67 370.03c3.87 7.11 5.69 14.61 5.76 22.68l4.2 412.85 193.95 196.51h255.56c24.92-128.03 137.75-227.3 275.44-227.3 154.95 0 280.59 125.64 280.59 280.59 0 154.96-125.64 280.59-280.59 280.59-140.72 0-257.25-103.62-277.47-238.71h-273.23c-14.52 0-27.52-6.51-36.25-16.77l-41.73-42.28c-35.57 14.19-71.2 26.9-105.63 37.19l-91.4 244.21c-4.94 17.4-19.65 31.19-38.7 34.06-79.91 12.24-160.8 18.36-241.59 18.36-20.25 0-242.63-11.13-241.56-18.51-16.48-2.49-31.15-13.61-37.38-30.34l-92.77-247.86c-105.21-31.95-226.65-90.68-274.38-114.66l-239.61 109.1c-15.53 8.12-34.99 7.29-50.09-3.78-65.71-48.19-127.25-100.99-184.1-157.85-14.64-14.64-164.87-179.08-157.8-184.14-9.8-13.4-12.27-31.56-4.88-47.74l109.83-241.2c-44.5-85.37-94.4-222.36-112.85-274.55L52.4 1863.88c-17.39-4.94-31.19-19.65-34.06-38.7C6.1 1745.27-.02 1664.38-.02 1583.59c0-20.25 11.13-242.63 18.5-241.56 2.49-16.48 13.61-31.15 30.34-37.38l248.05-92.83c27.74-95.63 66.04-187.94 114.1-275.14L302.25 697.9c-8.12-15.53-7.29-34.99 3.78-50.09 96.13-131.04 210.91-245.82 341.95-341.95.01.01 42.49-7.25 47.77-4.83l241.7 110.05c86.72-44.72 180.91-86.31 274.5-114.27l91.53-244.58c4.94-17.4 19.65-31.2 38.7-34.06C1421.43 6.03 1502.35-.03 1583.96.01c80.47.03 160.95 6.16 240.49 18.38 16.87 2.2 31.99 13.42 38.35 30.47l92.76 247.87c31.56 10.04 66.81 23.89 102.9 39.56l46.77-47.41c9.28-9.44 21.55-14.17 33.83-14.17l273.26-.13c20.25-133.5 135.68-238.72 277.44-238.72zm-185.42 280.59c0 102.42 83.01 185.42 185.42 185.42 102.42 0 185.42-83 185.42-185.42 0-102.42-83-185.42-185.42-185.42-104.04 0-185.42 84.04-185.42 185.42zm0 2534.27c0 102.42 83.01 185.42 185.42 185.42 102.42 0 185.42-83 185.42-185.42 0-102.42-83-185.42-185.42-185.42-104.04 0-185.42 84.04-185.42 185.42zm-935.31-1547.62c36.35 0 71.1 6.92 102.99 19.51l193.92-355.83 3.41-334.51c-90.45-27.13-186.29-41.74-285.57-41.74-549.75 0-993.06 446.13-993.06 993.06 0 548.46 444.6 993.06 993.06 993.06 99.27 0 195.12-14.62 285.57-41.74l-3.41-334.51-193.84-355.67c-31.91 12.62-66.69 19.55-103.08 19.55-154.96 0-280.59-125.64-280.59-280.59 0-152.68 124.3-280.59 280.59-280.59zm-185.42 280.59c0 102.42 83 185.42 185.42 185.42 102.42 0 185.42-83.01 185.42-185.42 0-102.42-83-185.42-185.42-185.42-104.04 0-185.42 84.04-185.42 185.42zm-598.64-97.63c-3.18 26.08-26.9 44.64-52.97 41.45-26.07-3.19-44.63-26.9-41.45-52.98 12.95-106.08 44.69-208.32 92.96-302.24a899.485 899.485 0 0 1 191.58-251.37c19.3-17.76 49.34-16.51 67.1 2.79 17.76 19.3 16.51 49.34-2.79 67.1a804.958 804.958 0 0 0-171.5 224.97c-42.99 83.65-71.31 175.06-82.93 270.27zm1246.25 296.85c16.89 335.28 294.72 602.58 634.14 602.58 339.42 0 617.24-267.3 634.14-602.58h-157.96c-16.64 248.54-223.41 444.87-476.18 444.87s-459.54-196.32-476.19-444.87h-157.96z"/></svg>