<svg xmlns="http://www.w3.org/2000/svg" viewBox="0 0 20 20"><path d="M19.828 1.734 18.266.17a.586.586 0 0 0-.78-.043L6.508 8.917a.585.585 0 0 0-.144.17L3.68 13.859l-2.557.568a.586.586 0 0 0-.452.485l-.664 4.414a.586.586 0 0 0 .58.673c.068 0-.217.04 4.5-.67a.586.586 0 0 0 .485-.453l.568-2.557 4.772-2.684a.584.584 0 0 0 .17-.144l8.79-10.977a.586.586 0 0 0-.044-.78zM4.515 18.23l-3.231.486.486-3.232 2.106-.468 1.108 1.108-.468 2.106zm5.724-5.56-4.514 2.538-.934-.934 2.54-4.513 10.477-8.39.82.82-8.39 10.478z"/></svg>