<svg xmlns="http://www.w3.org/2000/svg" viewBox="0 0 1507.18 1507.18"><path d="M428.47 879.39v50.8c0 166.56-253.48 166.56-253.48 0v-50.8c0-166.55 253.48-166.55 253.48 0zm536.96-185.03-56.08 9.91c-3.9-185.6-307.65-185.6-311.54 0l-56.08-9.91c19.61-249.89 404.09-249.89 423.7 0zm162 2.17-52.98 9.36c0-382.32-641.73-382.32-641.73 0l-52.98-9.36c9.4-447.65 738.3-447.65 747.7 0zm379.74-69.52v253.16h-126.58v-52.99h73.59V680c-156.29 0-151.48 10.42-160.21-34.08-23.29-91.25-58.43-151.78-101.78-227.91l108.21-106.68-103.03-104.56-108.94 107.49c-78.67-52.15-119.72-78.31-237.13-102.89-26.93-5.64-24.77 1.08-24.31-25.73.76-44.04.17-88.54.17-132.64H679.98c0 44.1-.59 88.6.17 132.64.46 26.82 2.62 20.1-24.31 25.73-117.41 24.58-158.46 50.74-237.13 102.89L309.77 206.77 206.74 311.33l108.21 106.68c-43.35 76.13-78.49 136.66-101.78 227.91-8.73 44.5-3.92 34.08-160.21 34.08v147.18h73.59v52.99H-.03V627.01h161.91c28.84-60.12 43.91-127.39 82.42-200.17L130.22 311.31 311.27 128.8l114.81 116.26c80.28-44.12 130.19-66.39 200.9-83.15V0h253.16v161.91c70.71 16.76 120.61 39.03 200.9 83.15l114.81-116.26 181.05 182.51-114.08 115.53c38.51 72.78 53.58 140.05 82.42 200.17h161.91zm0 621.12v259.05h-52.99v-214.9c.06-26.68-1.4-42.13-9.74-60.9-13.8-31.05-43.95-59.33-76.1-68.15-36.6-10.03-89.56-6.36-134.94-6.36v350.3h-52.99v-350.3c-42.37 0-97.15-3.03-135.41 5.89 6.38 16.23 10.09 40.81 11.14 70.12 2.66 74.45.64 241.15.64 274.3h-52.99c0-54.02 4.07-271.7-4.75-307.29-9.46-38.16-38.92-69.38-72.97-83.05-37.01-14.86-95.5-10.01-146.01-10.01v400.34h-52.98v-400.34c-50.51 0-109-4.85-146.01 10.01-34.05 13.67-63.51 44.89-72.97 83.05-8.82 35.58-4.75 253.26-4.75 307.29h-52.99c0-33.14-2.02-199.85.64-274.3 1.05-29.31 4.76-53.88 11.14-70.12-38.26-8.91-93.04-5.89-135.41-5.89v350.3h-52.99v-350.3c-45.38 0-98.34-3.67-134.94 6.36-32.15 8.82-62.29 37.1-76.1 68.15-8.35 18.77-9.8 34.22-9.74 60.9v214.9H-.03v-259.05c5.21-73.58 63.32-145.77 179.53-144.28 98.97-.48 276.01-2.2 312.07 11.81 17.77-11.9 38.97-47.68 102.92-58.98 48.98-8.66 269.16-8.66 318.14 0 63.95 11.31 85.15 47.08 102.92 58.98 36.06-14.01 213.1-12.29 312.07-11.81 116.21-1.49 174.32 70.7 179.53 144.28zm-176.62 259.05h52.99v-203.12h-52.99v203.12zm-453.33 0h52.98v-253.16h-52.98v253.16zm-300.26 0h52.98v-253.16h-52.98v253.16zm-453.33 0h52.99v-203.12h-52.99v203.12zm1208.55-628.12v50.8c0 166.56-253.48 166.56-253.48 0v-50.8c0-166.55 253.48-166.55 253.48 0zm-74.99-51.76c-28.59-28.59-74.92-28.59-103.51 0-13.32 13.32-21.59 31.64-21.59 51.76v50.8c0 20.11 8.27 38.44 21.59 51.76 28.59 28.59 74.92 28.59 103.51 0 13.32-13.32 21.58-31.64 21.58-51.76v-50.8c0-20.11-8.26-38.44-21.58-51.76zm-376.53 1.63v50.8c0 166.56-253.49 166.56-253.49 0v-50.8c0-166.55 253.49-166.55 253.49 0zm-74.99-51.76c-28.59-28.59-74.92-28.59-103.51 0-13.32 13.32-21.59 31.64-21.59 51.76v50.8c0 20.11 8.27 38.44 21.59 51.76 28.59 28.59 74.92 28.59 103.51 0 13.32-13.32 21.59-31.64 21.59-51.76v-50.8c0-20.11-8.27-38.44-21.59-51.76zm-452.2 50.46c-28.59-28.59-74.92-28.59-103.51 0-13.32 13.32-21.58 31.64-21.58 51.75v50.8c0 20.11 8.26 38.44 21.58 51.76 28.59 28.59 74.92 28.59 103.51 0 13.32-13.32 21.59-31.64 21.59-51.76v-50.8c0-20.11-8.27-38.44-21.59-51.75z"/></svg>