<svg xmlns="http://www.w3.org/2000/svg" viewBox="0 0 1024.42 1024.42"><path d="m878.31 327.64 41.04-72.6c-23.06-36.47-51.25-70.07-83.17-99.11l-79.52 28.13c-4.38 1.55-9 .99-12.74-1.15l-.01.01c-.24-.14-82.64-47.57-127.07-59.52-5.37-1.43-9.31-5.54-10.78-10.5l-29.14-77.87c-42.88-5.81-86.51-5.78-129.39 0l-29.56 78.99c-1.8 4.83-5.78 8.22-10.41 9.46l.01.04c-32.97 8.91-66.52 24.12-96.64 40.12-4.78 2.54-10.29 2.3-14.69-.14l-75.66-34.45c-34.32 26.18-65.31 57.17-91.49 91.49l34.95 76.76a15.303 15.303 0 0 1-.95 14.5c-17.26 30.13-30.46 62.21-39.53 95.72-1.43 5.37-5.54 9.31-10.5 10.78l-77.99 29.19a488.267 488.267 0 0 0 0 129.39l78.88 29.52c4.48 1.67 7.71 5.2 9.15 9.4l.05-.02c.07.2 23.2 67.89 40.19 97.36 2.56 4.45 2.63 9.66.65 14h.01l-34.92 76.68c26.18 34.32 57.17 65.31 91.49 91.5l76.69-34.92c4.63-2.11 9.76-1.73 13.88.58 5.1 2.66 56.8 29.3 96.47 39.98 5.37 1.43 9.31 5.54 10.78 10.5l29.15 77.87c42.83 5.74 86.56 5.74 129.39 0l29.52-78.88c1.8-4.83 5.78-8.22 10.41-9.46l-.01-.04c32.86-8.85 66.75-24.39 96.82-40.19 4.62-2.43 9.92-2.27 14.23-.04l75.98 34.6c34.32-26.18 65.31-57.17 91.49-91.5l-34.92-76.68c-2.11-4.63-1.73-9.76.58-13.88 2.66-5.1 29.3-56.8 39.98-96.47 1.43-5.37 5.54-9.31 10.5-10.78l77.87-29.15c5.77-42.89 5.8-86.51-.01-129.39l-78.87-29.52c-4.83-1.8-8.22-5.78-9.46-10.41l-.04.01c-6.04-22.45-15.11-44.35-23.98-65.81-1.98-4.81-1.33-10.04 1.27-14.11zM512.23 308.3l176.56 101.94v203.88L512.23 716.06 335.67 614.12V410.24L512.23 308.3zM380.4 418.73l132.39 75.3 131.12-75.39-131.67-76.02-131.83 76.11zm278.55 25.53-131.31 75.5-.47 153.36 131.78-76.08V444.26zM497.44 673.21l.47-153.4-132.4-75.31v152.54l131.93 76.17zM356.22 320.08c-15.65 12.73-35.03-11.11-19.38-23.83 49.57-40.26 111.52-62.3 175.39-62.3 153.66 0 278.24 124.57 278.24 278.24 0 153.66-124.58 278.24-278.24 278.24-153.66 0-278.24-124.58-278.24-278.24 0-61.08 20.21-120.62 57.34-169.11 12.25-16.05 36.68 2.6 24.43 18.65-33.09 43.22-50.96 96.03-50.96 150.46 0 136.65 110.77 247.43 247.43 247.43 136.66 0 247.43-110.77 247.43-247.43 0-136.65-110.77-247.43-247.43-247.43-56.81 0-111.91 19.5-156.01 55.32zm156.01-160.16c194.55 0 352.27 157.72 352.27 352.27 0 194.55-157.72 352.27-352.27 352.27-194.55 0-352.27-157.72-352.27-352.27 0-193.84 157.45-352.27 352.27-352.27zM191.05 512.19c0 177.39 143.8 321.18 321.18 321.18 177.39 0 321.18-143.79 321.18-321.18 0-177.39-143.8-321.18-321.18-321.18-177.8 0-321.18 144.29-321.18 321.18zm759.44-249.98-42.25 74.74c7.4 18.02 14.67 36.36 20.28 55.02l80.08 29.97c5.03 1.88 8.92 6.34 9.8 12.02 7.97 51.57 8.04 104.77.14 156.36l-.05-.01c-.81 5.33-4.4 10.08-9.81 12.09l-80.17 30c-10.34 34.03-29.33 73.3-37.08 88.74l35.29 77.5c2.62 5.02 2.36 11.32-1.22 16.2-31.09 42.38-68.21 79.51-110.6 110.6l-.01-.02c-4.33 3.17-10.21 3.97-15.44 1.58l-78.16-35.59c-28.19 14.44-58.45 28-88.84 37.07l-29.56 78.99c-1.6 5.63-6.35 10.09-12.52 11.01a516.865 516.865 0 0 1-156.27 0l.01-.05c-5.33-.81-10.08-4.4-12.09-9.81l-30-80.17c-34.03-10.33-73.3-29.33-88.74-37.08l-77.5 35.29c-5.02 2.63-11.32 2.36-16.2-1.22-42.38-31.09-79.5-68.21-110.6-110.6l.02-.01c-3.17-4.33-3.97-10.21-1.58-15.44l35.52-78.01c-14.39-27.61-30.53-71.92-36.5-88.79l-79.49-29.75c-5.63-1.6-10.09-6.36-11.01-12.52a516.865 516.865 0 0 1 0-156.27l.05.01c.81-5.33 4.4-10.08 9.81-12.09l80.23-30.03a436.159 436.159 0 0 1 36.9-88.99l-35.16-77.23c-2.63-5.02-2.36-11.32 1.22-16.2 31.09-42.38 68.21-79.5 110.6-110.6l.01.02c4.33-3.17 10.21-3.97 15.44-1.58l78.17 35.59c28.05-14.46 58.51-27.91 88.78-36.96l29.6-79.1c1.6-5.63 6.36-10.09 12.52-11.01 51.45-7.88 104.53-7.84 155.98.07 5.46.71 10.35 4.34 12.4 9.86l30 80.17c41 13.05 101.32 46 120.56 56.78l81.45-28.81.01.02a15.33 15.33 0 0 1 15.2 2.92c39.55 34.64 73.3 74.9 100.55 119.86 2.76 4.57 3.05 10.46.24 15.45z"/></svg>