<svg xmlns="http://www.w3.org/2000/svg" viewBox="0 0 455.98 455.98"><path d="M71.11 384.87h109.04V275.83h-19.13c-10.67 0-10.67-16.25 0-16.25h27.26a8.12 8.12 0 0 1 8.12 8.12v125.29a8.12 8.12 0 0 1-8.12 8.12H62.99a8.12 8.12 0 0 1-8.12-8.12V267.7a8.12 8.12 0 0 1 8.12-8.12h27.26c10.67 0 10.67 16.25 0 16.25H71.12v109.04zM0 8.13v211.81c0 10.67 16.25 10.67 16.25 0V27.74l411.99 411.99h-192.2c-10.67 0-10.67 16.25 0 16.25h211.81a8.13 8.13 0 0 0 8.13-8.13V236.04c0-10.67-16.25-10.67-16.25 0v192.2L27.74 16.25h192.2c10.67 0 10.67-16.25 0-16.25H8.13A8.13 8.13 0 0 0 0 8.13zm87.2 46.74h101.08a8.12 8.12 0 0 1 8.12 8.12v27.26c0 10.67-16.25 10.67-16.25 0V71.12h-76.71L87.19 54.87zm-16.09 48.58v76.71h76.71l16.25 16.25H62.99a8.12 8.12 0 0 1-8.12-8.12V87.21l16.25 16.25zm114.6 49.94c4.7-1.38 10.69 1.16 10.69 7.64v3.05l-10.69-10.69zm34.15 202.88V252.2l16.25 16.25v87.82c0 10.67-16.25 10.67-16.25 0zm-16.08-120.15H99.71c-10.67 0-10.67-16.25 0-16.25h87.82l16.25 16.25zm16.08-48.58V99.72c0-10.67 16.25-10.67 16.25 0v104.07l-16.25-16.25zm32.33 32.33h104.07c10.67 0 10.67 16.25 0 16.25h-87.82l-16.25-16.25zm-32.33 173.12a8.12 8.12 0 0 1 8.12-8.12 8.12 8.12 0 0 1 8.12 8.12c0 4.49-3.64 8.13-8.12 8.13-4.49 0-8.12-3.64-8.12-8.13zm0-330a8.12 8.12 0 0 0 8.12 8.12 8.12 8.12 0 0 0 8.12-8.12c0-4.49-3.64-8.13-8.12-8.13-4.49 0-8.12 3.64-8.12 8.13zM62.98 219.87a8.12 8.12 0 0 1 8.12 8.12 8.12 8.12 0 0 1-8.12 8.12c-4.49 0-8.13-3.64-8.13-8.12 0-4.49 3.64-8.12 8.13-8.12zm330 0a8.12 8.12 0 0 0-8.12 8.12 8.12 8.12 0 0 0 8.12 8.12c4.49 0 8.13-3.64 8.13-8.12 0-4.49-3.64-8.12-8.13-8.12zm-267.36 39.71a8.12 8.12 0 0 1 8.12 8.12 8.12 8.12 0 0 1-8.12 8.12c-4.49 0-8.13-3.64-8.13-8.12 0-4.49 3.64-8.12 8.13-8.12zm142.07 62.64a8.12 8.12 0 0 1 8.12 8.12c0 4.49-3.64 8.13-8.12 8.13-4.49 0-8.12-3.64-8.12-8.13a8.12 8.12 0 0 1 8.12-8.12zm62.64-142.07c4.49 0 8.13 3.64 8.13 8.12 0 4.49-3.64 8.12-8.13 8.12a8.12 8.12 0 0 1-8.12-8.12 8.12 8.12 0 0 1 8.12-8.12zm-142.07-66.12a8.12 8.12 0 0 1 8.12 8.12c0 4.49-3.64 8.13-8.12 8.13-4.49 0-8.12-3.64-8.12-8.13a8.12 8.12 0 0 1 8.12-8.12zM107.6 304.21h36.02a8.12 8.12 0 0 1 8.12 8.12v36.02a8.12 8.12 0 0 1-8.12 8.12H107.6a8.12 8.12 0 0 1-8.12-8.12v-36.02a8.12 8.12 0 0 1 8.12-8.12zm228.92 0h11.82a8.12 8.12 0 0 1 8.12 8.12v11.82l-19.94-19.94zm-12.39 52.27h-11.82a8.12 8.12 0 0 1-8.12-8.12v-11.82l19.94 19.94zM312.31 99.49h36.02a8.12 8.12 0 0 1 8.12 8.12v36.02a8.12 8.12 0 0 1-8.12 8.12h-36.02a8.12 8.12 0 0 1-8.12-8.12v-36.02a8.12 8.12 0 0 1 8.12-8.12zm-180.51 0h11.82a8.12 8.12 0 0 1 8.12 8.12v11.82L131.8 99.49zm-12.39 52.27h-11.82a8.12 8.12 0 0 1-8.12-8.12v-11.82l19.94 19.94zm249.35 249.35H267.68a8.12 8.12 0 0 1-8.12-8.12v-27.26c0-10.67 16.25-10.67 16.25 0v19.13h76.71l16.25 16.25zm16.09-48.58v-76.71h-76.71l-16.25-16.25h101.08a8.12 8.12 0 0 1 8.12 8.12v101.08l-16.25-16.25zm-114.6-49.94c-4.7 1.38-10.69-1.16-10.69-7.64v-3.05l10.69 10.69zM384.85 71.1H275.81v109.04h19.13c10.67 0 10.67 16.25 0 16.25h-27.26a8.12 8.12 0 0 1-8.12-8.12V62.98a8.12 8.12 0 0 1 8.12-8.12h125.29a8.12 8.12 0 0 1 8.12 8.12v125.29a8.12 8.12 0 0 1-8.12 8.12h-27.26c-10.67 0-10.67-16.25 0-16.25h19.13V71.1z"/></svg>