<svg xmlns="http://www.w3.org/2000/svg" fill-rule="evenodd" viewBox="0 0 2156.04 2156.04"><path d="M1078.03 0C482.75 0 0 482.45 0 1078.02c0 595.58 482.74 1078.03 1078.03 1078.03 595.46 0 1078.02-482.57 1078.02-1078.03C2156.05 482.44 1673.31 0 1078.03 0zm48.74 98.66c523.28 30.11 931.79 453.26 931.79 979.36s-408.5 949.26-931.79 979.37V98.66zm-281.32 979.36c0-114.24 75.84-199.55 183.84-227.68v455.38c-108.04-28.13-183.84-113.43-183.84-227.69zm-494.93 0c0 388.72 294.31 694.32 678.77 725.99v253.38c-523.29-30.11-931.8-453.27-931.8-979.37S506 128.77 1029.29 98.66v253.38c-384.11 31.64-678.77 337.6-678.77 725.98zm397.44 0c0 167.71 118.38 297.85 281.32 326.62v301.66c-330.32-32.03-581.29-293.15-581.29-628.28 0-335.41 250.71-596.21 581.29-628.28v301.67c-162.68 28.72-281.32 159.17-281.32 326.61z"/></svg>