<svg xmlns="http://www.w3.org/2000/svg" viewBox="0 0 1034.94 1035.3"><path d="M33.95 133.98h100.11c-1.29 227.78-.02 457.79-.02 686.01l-.05 128.18c.06 26.65-18.51 51.7-49.59 50.26-38.19-1.77-47.35-17.99-50.02-48.57-15.7-55.77.59-699.15-.43-815.88zm925.17 531.7 47.18 47.18 23.6-23.6-47.18-47.18-23.6 23.6zm0-162.6 47.18-47.18 23.6 23.6-47.18 47.18-23.6-23.6zm9.1 64.61h66.73v33.38h-66.73v-33.38zM611.3 523.68h.02v-.01c8.46-3.58 17.95-5.69 28.32-6.1 31.25-1.22 63.39.98 94.94.02l.01 200.25-88.63-.03c-50.64.24-78.17-29.76-78.17-84.45l-.01-37.54c-.26-33.76 16.21-60.58 43.52-72.14zM501.14 300.87l-.11-33.38-49.93-.08-.1-33.35 50.14.01-.11-33.3-49.93-.08-.1-33.35 50.14.01-.11-33.31s-73.51-3.56-79.78 3.55c-4.68 5.44-3.62 27.82-3.62 38.07l1.31 115.35c1.65 10.39 20.82 9.78 40.4 9.78 13.81 0 28.04-.33 41.8.08zm166.82-33.36-.13 33.28c33.94.1 80.68 9.87 96.99-29.17 7.31-21.95 4.02-42.01-12.36-58.57-16.4-10.88-52.28-6.63-49.29-30.1 2.99-23.48 45.36-16.12 64.88-15.53l-.11-33.38-56.32-.13c-13.3-.12-27.61 8.99-35.93 20.35-4.98 6.8-7.54 14.13-8.06 28.1-.41 11.3 1.93 25.91 14.84 39.1 12.91 13.19 43.42 10.82 48.38 21.57 14 35.34-52.28 24.2-62.88 24.47zM200.75 867.96l367.13.01-.11-33.3-366.88-.08-.13 33.37zm0 66.72 367.13.01-.11-33.3-366.88-.08-.13 33.37zm0-133.45h367.13l-.11-33.3-366.88-.08-.13 33.37zm387.96-542.19 10.6 26.9c3.29 10.38 6.98 14.94 18.52 14.93 20.38-.02 16.7-13.13 16.7-33.46 0-44.03 1.11-89.52-.1-133.37l-33.19-.06-.1 58.32c-1.9-.72-2.18-1.48-2.56-2.25-4.11-8.22-22.01-8.49-27.5-1-.65 1.44-1.21 2.77-3.21 3.39l-.11-58.41-33.26-.06c-1.58 50.06.47 100.48-.16 150.15-.28 22.05 26.07 20.54 31.39 10.49 3.93-7.41 7.2-18.48 9.64-23.73l7.2-17.87c3.56-7.51 4.71 3.25 6.11 6.01zm-321.2 41.75 33.47.02-.1-87.63c3.71 1.44 47.03 74.05 48.99 77.21 7.45 10.99 28.55 16.85 33.78 1.45 2.16-6.36.73-151.69.56-157.79l-33.19-.06-.1 87.49c-6.4-2.37-47.25-80.28-56.22-85.48-7-4.06-25.61-3.32-26.49 6.97-2.14 6.65-.77 150.03-.71 157.82zm-33.37 133.45 233.56-.06-.01 266.95H234.17l-.03-266.89zm-33.36-1.05v277.33c-.02 25.5 4.05 24.56 31.66 24.4l233.55-.31c28.26-.63 35.17 3.47 35.46-26.7l-.14-279.15c-.33-31.81-1.44-26.47-34.29-26.89l-230.67-1.43c-35.94.53-35.58-1.86-35.58 32.75zm33.38-332.57 567.17-.01-.02 233.56-567.06-.02-.08-233.54zM200.8 88.38s-1.43 172.09-.08 253.33c.42 25.28 4.9 25.82 42.81 25.82l568.93-.39c10.54-.21 22.12.4 22.3-14.14l-.75-276.77c-2.78-6.15-5.63-8.82-12.81-9.06 0 0-504.18-.36-595.53.77-22.28.27-24.07-.29-24.87 20.45zm500.22 777.27c-.01 12.51-6.12 24.13-19.89 31.21-7.87 4.03-19.69 3.56-26.52.02-16.2-8.32-19.7-21.11-20.19-35.11l.06-110.58 66.75-.05-.22 114.52zm167.24-424.93 33.15-21.1-.03 396.09c-3.96-.03-5.41-2.17-8.93-4.46-.19-.12-.45-.29-.63-.41l-15.2-10.86c-3.19-2.25-4.98-2.91-8.51-5.24l.16-354.02zm-100.25 71.71 66.66-47.04.17 304.63c-8.45-3.34-61.56-40.67-66.88-46.98l.04-210.6zM601.13 748.05c.06 15.43-1.15 130.07.72 135.88 2.84 28.26 34.58 50.78 66.8 50.74 38.55-.05 64.17-23.92 65.75-52.3 1.61-7.98.38-114.92.17-131.17 19.84-.03 122.8 79.11 133.54 86.51l-1.06 80.3c-3.6 35.76-23.89 83.59-94.92 83.39-205.96 0-413.65-3.03-619.41.07 7.9-5.21 14.63-25.79 14.8-37.53.91-64.28-.07-128.66-.07-192.95V524.94c0-163.5 1.4-327.61-.03-491.04h700.64l-1.44 364.55c-37.54 26.02-74.92 52.27-112.51 78.22-16.56 10.72-11.83 7.61-34.11 7.61h-93.83c-49.86-.24-91.76 48.79-91.75 95.92v46.92c0 84.13 15.11 94.09 66.72 120.94zM901.26 861.5c28.15 13.96 33.52 8.68 33.52-23.79 0-146.54-.43-293.1.48-439.63.18-27.99-3.06-39.47-33.79-24.2-.02-114.8.14-229.56.38-344.35C901.9 3.92 900.61.71 870.12.52c-65.29 0-718.2-1.28-725.46.21-11.25 2.31-10.38 12.03-10.73 21.17-.89 23.05.04 66.78.13 78.74-6.72-.11-72.73-.93-106.2-.21-23.44.51-26.67 3.72-27.01 25.22C-.89 236.57.6 885.99.6 956.58c0 41.82 31.55 67.38 67.83 78.15 8.64 1.29 660.51.05 728.71.05 53.86-4.2 99.5-53.8 104.07-96.11 1.5-7.36.24-62.25.05-77.16z"/></svg>