<svg xmlns="http://www.w3.org/2000/svg" fill-rule="evenodd" viewBox="0 0 453.15 639.72"><path d="M396.64 567.34v-34.27c0-13.17 19.91-13.17 19.91 0v34.27c0 13.17-19.91 13.17-19.91 0zM98.18 432.19l57.14-12.14c15.01 28.43 25 39.47 59.85 46.42l-.03 152.61-116.89-.01-.06-186.87zm256.79 0-57.14-12.14c-15.01 28.43-25 39.47-59.85 46.42l.03 152.61 116.89-.01.06-186.87zm77.69 60.63c-3.13-33.65-26.19-54.42-57.54-55.29l.02 181.54 57.74-.01-.22-126.24zM283.73 372.95c-9.82 3.29-27.74 11.12-57.15 11.12s-47.33-7.83-57.15-11.12c.96 97.99 113.35 97.99 114.3 0zm-57.15-9.1c32.15-.83 61.83-11.11 85.28-34.61 32.76-32.85 34.69-63.97 35.06-106.78-80.22.02-160.44.02-240.67 0 .37 42.81 2.3 73.93 35.06 106.78 23.44 23.5 53.13 33.78 85.28 34.61zm144.5-161.56.03-12.09c-96.36.01-192.71.01-289.07 0l.03 12.09h289zm-127.7-32.27.02-150.56h-33.63l.02 150.56h33.59zM249.93.49c8.79.43 11.6 1.55 11.58 10.93l.19 14.73c.46 4.53 2.44 4.77 6.25 5.74 24.29 8.17 46.59 20.17 64.63 38.2 26.76 26.76 40.52 62.7 41.26 99.52 0 0 12.39-.67 15.39 4.48 2.98 8.53 3.25 29.82 2.02 38.25-1.07 10.08-13.99 10.41-24.18 10.09.26 46.49-9.96 76.05-25.23 103.21-15.27 27.16-28.04 29.09-35.75 34.79-7.71 5.69-9.43 40.27 3.34 42.03 35.12 7.23 84.2 14.1 108.5 28.08 24.3 13.98 35.15 38.94 35.22 60.09V628.5c-.76 9.14-6.27 9.14-13.13 9.26-140.6 2.63-286.28 2.63-426.89 0-6.86-.13-12.37-.13-13.13-9.26V490.63c.07-21.15 10.92-46.11 35.22-60.09 24.3-13.98 73.38-20.85 108.5-28.08 12.77-1.76 11.05-36.34 3.34-42.03-7.71-5.69-20.48-7.63-35.75-34.79s-25.49-56.72-25.23-103.21c-10.19.31-23.11-.02-24.18-10.09-1.23-8.43-.96-29.72 2.02-38.25 3-5.14 15.39-4.48 15.39-4.48.74-36.82 14.49-72.76 41.26-99.52 18.04-18.03 40.34-30.03 64.63-38.2 3.81-.97 5.79-1.2 6.25-5.74l.19-14.73c-.02-9.37 2.79-10.5 11.58-10.93 13.21-.65 33.48-.65 46.69 0zm105.11 169.57c2.06-46.74-39.5-114.43-92.82-118.32l-.01 118.28h29.52l-.16-55.19c.48-14.03 17.62-13.54 17.89-.6l1.15 55.78 44.43.03zM20.5 492.82c3.13-33.65 26.19-54.42 57.54-55.29l-.02 181.54-57.74-.01.22-126.24zm77.63-322.76c-2.06-46.74 39.5-114.43 92.82-118.32l.01 118.28h-29.52l.16-55.19c-.48-14.03-17.62-13.54-17.89-.6l-1.15 55.78-44.43.03zm34.03 332.31h48.87c13.17 0 13.17 19.91 0 19.91h-48.87c-13.17 0-13.17-19.91 0-19.91z"/></svg>